<svg width="26" height="26" viewBox="0 0 26 26" fill="none" xmlns="http://www.w3.org/2000/svg">
<g clip-path="url(#clip0_569_5798)">
<mask id="mask0_569_5798" style="mask-type:luminance" maskUnits="userSpaceOnUse" x="0" y="0" width="26" height="26">
<path d="M0 0H26V26H0V0Z" fill="white"/>
<path fill-rule="evenodd" clip-rule="evenodd" d="M13.25 5.25C13.4489 5.25 13.6397 5.32902 13.7803 5.46967C13.921 5.61032 14 5.80109 14 6V15C14 15.1989 13.921 15.3897 13.7803 15.5303C13.6397 15.671 13.4489 15.75 13.25 15.75C13.0511 15.75 12.8603 15.671 12.7197 15.5303C12.579 15.3897 12.5 15.1989 12.5 15V6C12.5 5.80109 12.579 5.61032 12.7197 5.46967C12.8603 5.32902 13.0511 5.25 13.25 5.25Z" fill="black"/>
<path d="M14.5 19.25C14.5 19.5815 14.3683 19.8995 14.1339 20.1339C13.8995 20.3683 13.5815 20.5 13.25 20.5C12.9185 20.5 12.6005 20.3683 12.3661 20.1339C12.1317 19.8995 12 19.5815 12 19.25C12 18.9185 12.1317 18.6005 12.3661 18.3661C12.6005 18.1317 12.9185 18 13.25 18C13.5815 18 13.8995 18.1317 14.1339 18.3661C14.3683 18.6005 14.5 18.9185 14.5 19.25Z" fill="black"/>
</mask>
<g mask="url(#mask0_569_5798)">
<path d="M13 26C20.1797 26 26 20.1797 26 13C26 5.8203 20.1797 0 13 0C5.8203 0 0 5.8203 0 13C0 20.1797 5.8203 26 13 26Z" fill="#EB5151"/>
</g>
</g>
<defs>
<clipPath id="clip0_569_5798">
<rect width="26" height="26" fill="white"/>
</clipPath>
</defs>
</svg>
