<svg width="49" height="49" viewBox="0 0 49 49" fill="none" xmlns="http://www.w3.org/2000/svg">
	<mask id="path-1-inside-1_279_2070" fill="white">
		<path
			d="M23.8319 48.0807C10.5778 47.9433 -0.0554166 37.0874 0.0819602 23.8333C0.219337 10.5791 11.0753 -0.0540881 24.3294 0.0832887C37.5835 0.220665 48.2168 11.0766 48.0794 24.3307C47.942 37.5849 37.0861 48.2181 23.8319 48.0807ZM24.2989 3.02569C12.6698 2.90516 3.1449 12.2347 3.02436 23.8638C2.90383 35.4928 12.2333 45.0178 23.8624 45.1383C35.4915 45.2588 45.0164 35.9293 45.137 24.3002C45.2575 12.6712 35.928 3.14623 24.2989 3.02569Z" />
	</mask>
	<g filter="url(#filter0_i_279_2070)">
		<path
			d="M23.8319 48.0807C10.5778 47.9433 -0.0554166 37.0874 0.0819602 23.8333C0.219337 10.5791 11.0753 -0.0540881 24.3294 0.0832887C37.5835 0.220665 48.2168 11.0766 48.0794 24.3307C47.942 37.5849 37.0861 48.2181 23.8319 48.0807ZM24.2989 3.02569C12.6698 2.90516 3.1449 12.2347 3.02436 23.8638C2.90383 35.4928 12.2333 45.0178 23.8624 45.1383C35.4915 45.2588 45.0164 35.9293 45.137 24.3002C45.2575 12.6712 35.928 3.14623 24.2989 3.02569Z"
			fill="url(#paint0_linear_279_2070)" />
	</g>
	<path
		d="M23.8319 48.0807C10.5778 47.9433 -0.0554166 37.0874 0.0819602 23.8333C0.219337 10.5791 11.0753 -0.0540881 24.3294 0.0832887C37.5835 0.220665 48.2168 11.0766 48.0794 24.3307C47.942 37.5849 37.0861 48.2181 23.8319 48.0807ZM24.2989 3.02569C12.6698 2.90516 3.1449 12.2347 3.02436 23.8638C2.90383 35.4928 12.2333 45.0178 23.8624 45.1383C35.4915 45.2588 45.0164 35.9293 45.137 24.3002C45.2575 12.6712 35.928 3.14623 24.2989 3.02569Z"
		stroke="url(#paint1_linear_279_2070)" stroke-width="0.444883"
		mask="url(#path-1-inside-1_279_2070)" />
	<path
		d="M31.7969 32.625V35H16.9062V32.9219L24.3594 24.625C25.276 23.6042 25.9844 22.7396 26.4844 22.0312C26.9948 21.3125 27.349 20.6719 27.5469 20.1094C27.7552 19.5365 27.8594 18.9531 27.8594 18.3594C27.8594 17.6094 27.7031 16.9323 27.3906 16.3281C27.0885 15.7135 26.6406 15.224 26.0469 14.8594C25.4531 14.4948 24.7344 14.3125 23.8906 14.3125C22.8802 14.3125 22.0365 14.5104 21.3594 14.9062C20.6927 15.2917 20.1927 15.8333 19.8594 16.5312C19.526 17.2292 19.3594 18.0312 19.3594 18.9375H16.4688C16.4688 17.6562 16.75 16.4844 17.3125 15.4219C17.875 14.3594 18.7083 13.5156 19.8125 12.8906C20.9167 12.2552 22.276 11.9375 23.8906 11.9375C25.3281 11.9375 26.5573 12.1927 27.5781 12.7031C28.599 13.2031 29.3802 13.9115 29.9219 14.8281C30.474 15.7344 30.75 16.7969 30.75 18.0156C30.75 18.6823 30.6354 19.3594 30.4062 20.0469C30.1875 20.724 29.8802 21.401 29.4844 22.0781C29.099 22.7552 28.6458 23.4219 28.125 24.0781C27.6146 24.7344 27.0677 25.3802 26.4844 26.0156L20.3906 32.625H31.7969Z"
		fill="white" />
	<defs>
		<filter id="filter0_i_279_2070" x="0.0805664" y="0.0820312" width="48.0002" height="48.6673"
			filterUnits="userSpaceOnUse" color-interpolation-filters="sRGB">
			<feFlood flood-opacity="0" result="BackgroundImageFix" />
			<feBlend mode="normal" in="SourceGraphic" in2="BackgroundImageFix" result="shape" />
			<feColorMatrix in="SourceAlpha" type="matrix"
				values="0 0 0 0 0 0 0 0 0 0 0 0 0 0 0 0 0 0 127 0" result="hardAlpha" />
			<feOffset dy="2.22442" />
			<feGaussianBlur stdDeviation="0.333662" />
			<feComposite in2="hardAlpha" operator="arithmetic" k2="-1" k3="1" />
			<feColorMatrix type="matrix"
				values="0 0 0 0 0.592708 0 0 0 0 0.491021 0 0 0 0 0.162995 0 0 0 1 0" />
			<feBlend mode="normal" in2="shape" result="effect1_innerShadow_279_2070" />
		</filter>
		<linearGradient id="paint0_linear_279_2070" x1="24.1111" y1="49.9076" x2="25.797"
			y2="-3.20018" gradientUnits="userSpaceOnUse">
			<stop stop-color="#AD8B27" />
			<stop offset="0.479167" stop-color="#F7E582" />
			<stop offset="1" stop-color="#AD8B27" />
		</linearGradient>
		<linearGradient id="paint1_linear_279_2070" x1="24.3294" y1="0.0832887" x2="23.8319"
			y2="48.0807" gradientUnits="userSpaceOnUse">
			<stop stop-color="#AD8B27" />
			<stop offset="0.48" stop-color="#F7E582" />
			<stop offset="1" stop-color="#AD8B27" />
		</linearGradient>
	</defs>
</svg>
	