<svg width="49" height="49" viewBox="0 0 49 49" fill="none" xmlns="http://www.w3.org/2000/svg">
	<mask id="path-1-inside-1_279_2062" fill="white">
		<path
			d="M23.8319 48.0807C10.5778 47.9433 -0.0554166 37.0874 0.0819602 23.8333C0.219337 10.5791 11.0753 -0.0540881 24.3294 0.0832887C37.5835 0.220665 48.2168 11.0766 48.0794 24.3307C47.942 37.5849 37.0861 48.2181 23.8319 48.0807ZM24.2989 3.02569C12.6698 2.90516 3.1449 12.2347 3.02436 23.8638C2.90383 35.4928 12.2333 45.0178 23.8624 45.1383C35.4915 45.2588 45.0164 35.9293 45.137 24.3002C45.2575 12.6712 35.928 3.14623 24.2989 3.02569Z" />
	</mask>
	<g filter="url(#filter0_i_279_2062)">
		<path
			d="M23.8319 48.0807C10.5778 47.9433 -0.0554166 37.0874 0.0819602 23.8333C0.219337 10.5791 11.0753 -0.0540881 24.3294 0.0832887C37.5835 0.220665 48.2168 11.0766 48.0794 24.3307C47.942 37.5849 37.0861 48.2181 23.8319 48.0807ZM24.2989 3.02569C12.6698 2.90516 3.1449 12.2347 3.02436 23.8638C2.90383 35.4928 12.2333 45.0178 23.8624 45.1383C35.4915 45.2588 45.0164 35.9293 45.137 24.3002C45.2575 12.6712 35.928 3.14623 24.2989 3.02569Z"
			fill="url(#paint0_linear_279_2062)" />
	</g>
	<path
		d="M23.8319 48.0807C10.5778 47.9433 -0.0554166 37.0874 0.0819602 23.8333C0.219337 10.5791 11.0753 -0.0540881 24.3294 0.0832887C37.5835 0.220665 48.2168 11.0766 48.0794 24.3307C47.942 37.5849 37.0861 48.2181 23.8319 48.0807ZM24.2989 3.02569C12.6698 2.90516 3.1449 12.2347 3.02436 23.8638C2.90383 35.4928 12.2333 45.0178 23.8624 45.1383C35.4915 45.2588 45.0164 35.9293 45.137 24.3002C45.2575 12.6712 35.928 3.14623 24.2989 3.02569Z"
		stroke="url(#paint1_linear_279_2062)" stroke-width="0.444883"
		mask="url(#path-1-inside-1_279_2062)" />
	<path d="M26.3906 12.125V35H23.5V15.7344L17.6719 17.8594V15.25L25.9375 12.125H26.3906Z"
		fill="white" />
	<defs>
		<filter id="filter0_i_279_2062" x="0.0805664" y="0.0820312" width="48.0002" height="48.6673"
			filterUnits="userSpaceOnUse" color-interpolation-filters="sRGB">
			<feFlood flood-opacity="0" result="BackgroundImageFix" />
			<feBlend mode="normal" in="SourceGraphic" in2="BackgroundImageFix" result="shape" />
			<feColorMatrix in="SourceAlpha" type="matrix"
				values="0 0 0 0 0 0 0 0 0 0 0 0 0 0 0 0 0 0 127 0" result="hardAlpha" />
			<feOffset dy="2.22442" />
			<feGaussianBlur stdDeviation="0.333662" />
			<feComposite in2="hardAlpha" operator="arithmetic" k2="-1" k3="1" />
			<feColorMatrix type="matrix"
				values="0 0 0 0 0.592708 0 0 0 0 0.491021 0 0 0 0 0.162995 0 0 0 1 0" />
			<feBlend mode="normal" in2="shape" result="effect1_innerShadow_279_2062" />
		</filter>
		<linearGradient id="paint0_linear_279_2062" x1="24.1111" y1="49.9076" x2="25.797"
			y2="-3.20018" gradientUnits="userSpaceOnUse">
			<stop stop-color="#AD8B27" />
			<stop offset="0.479167" stop-color="#F7E582" />
			<stop offset="1" stop-color="#AD8B27" />
		</linearGradient>
		<linearGradient id="paint1_linear_279_2062" x1="24.3294" y1="0.0832887" x2="23.8319"
			y2="48.0807" gradientUnits="userSpaceOnUse">
			<stop stop-color="#AD8B27" />
			<stop offset="0.48" stop-color="#F7E582" />
			<stop offset="1" stop-color="#AD8B27" />
		</linearGradient>
	</defs>
</svg>
	