<svg width="49" height="49" viewBox="0 0 49 49" fill="none" xmlns="http://www.w3.org/2000/svg">
	<path
		d="M21.1094 22.2031H23.1719C24.1823 22.2031 25.0156 22.0365 25.6719 21.7031C26.3385 21.3594 26.8333 20.8958 27.1562 20.3125C27.4896 19.7188 27.6562 19.0521 27.6562 18.3125C27.6562 17.4375 27.5104 16.7031 27.2188 16.1094C26.9271 15.5156 26.4896 15.0677 25.9062 14.7656C25.3229 14.4635 24.5833 14.3125 23.6875 14.3125C22.875 14.3125 22.1562 14.474 21.5312 14.7969C20.9167 15.1094 20.4323 15.5573 20.0781 16.1406C19.7344 16.724 19.5625 17.4115 19.5625 18.2031H16.6719C16.6719 17.0469 16.9635 15.9948 17.5469 15.0469C18.1302 14.099 18.9479 13.3438 20 12.7812C21.0625 12.2188 22.2917 11.9375 23.6875 11.9375C25.0625 11.9375 26.2656 12.1823 27.2969 12.6719C28.3281 13.151 29.1302 13.8698 29.7031 14.8281C30.276 15.776 30.5625 16.9583 30.5625 18.375C30.5625 18.9479 30.4271 19.5625 30.1562 20.2188C29.8958 20.8646 29.4844 21.4688 28.9219 22.0312C28.3698 22.5938 27.651 23.0573 26.7656 23.4219C25.8802 23.776 24.8177 23.9531 23.5781 23.9531H21.1094V22.2031ZM21.1094 24.5781V22.8438H23.5781C25.026 22.8438 26.224 23.0156 27.1719 23.3594C28.1198 23.7031 28.8646 24.1615 29.4062 24.7344C29.9583 25.3073 30.3438 25.9375 30.5625 26.625C30.7917 27.3021 30.9062 27.9792 30.9062 28.6562C30.9062 29.7188 30.724 30.6615 30.3594 31.4844C30.0052 32.3073 29.5 33.0052 28.8438 33.5781C28.1979 34.151 27.4375 34.5833 26.5625 34.875C25.6875 35.1667 24.7344 35.3125 23.7031 35.3125C22.7135 35.3125 21.7812 35.1719 20.9062 34.8906C20.0417 34.6094 19.276 34.2031 18.6094 33.6719C17.9427 33.1302 17.4219 32.4688 17.0469 31.6875C16.6719 30.8958 16.4844 29.9948 16.4844 28.9844H19.375C19.375 29.776 19.5469 30.4688 19.8906 31.0625C20.2448 31.6562 20.7448 32.1198 21.3906 32.4531C22.0469 32.776 22.8177 32.9375 23.7031 32.9375C24.5885 32.9375 25.349 32.7865 25.9844 32.4844C26.6302 32.1719 27.125 31.7031 27.4688 31.0781C27.8229 30.4531 28 29.6667 28 28.7188C28 27.7708 27.8021 26.9948 27.4062 26.3906C27.0104 25.776 26.4479 25.3229 25.7188 25.0312C25 24.7292 24.151 24.5781 23.1719 24.5781H21.1094Z"
		fill="white" />
	<mask id="path-2-inside-1_279_2075" fill="white">
		<path
			d="M23.8319 48.0807C10.5778 47.9433 -0.0554166 37.0874 0.0819602 23.8333C0.219337 10.5791 11.0753 -0.0540881 24.3294 0.0832887C37.5835 0.220665 48.2168 11.0766 48.0794 24.3307C47.942 37.5849 37.0861 48.2181 23.8319 48.0807ZM24.2989 3.02569C12.6698 2.90516 3.1449 12.2347 3.02436 23.8638C2.90383 35.4928 12.2333 45.0178 23.8624 45.1383C35.4915 45.2588 45.0164 35.9293 45.137 24.3002C45.2575 12.6712 35.928 3.14623 24.2989 3.02569Z" />
	</mask>
	<g filter="url(#filter0_i_279_2075)">
		<path
			d="M23.8319 48.0807C10.5778 47.9433 -0.0554166 37.0874 0.0819602 23.8333C0.219337 10.5791 11.0753 -0.0540881 24.3294 0.0832887C37.5835 0.220665 48.2168 11.0766 48.0794 24.3307C47.942 37.5849 37.0861 48.2181 23.8319 48.0807ZM24.2989 3.02569C12.6698 2.90516 3.1449 12.2347 3.02436 23.8638C2.90383 35.4928 12.2333 45.0178 23.8624 45.1383C35.4915 45.2588 45.0164 35.9293 45.137 24.3002C45.2575 12.6712 35.928 3.14623 24.2989 3.02569Z"
			fill="url(#paint0_linear_279_2075)" />
	</g>
	<path
		d="M23.8319 48.0807C10.5778 47.9433 -0.0554166 37.0874 0.0819602 23.8333C0.219337 10.5791 11.0753 -0.0540881 24.3294 0.0832887C37.5835 0.220665 48.2168 11.0766 48.0794 24.3307C47.942 37.5849 37.0861 48.2181 23.8319 48.0807ZM24.2989 3.02569C12.6698 2.90516 3.1449 12.2347 3.02436 23.8638C2.90383 35.4928 12.2333 45.0178 23.8624 45.1383C35.4915 45.2588 45.0164 35.9293 45.137 24.3002C45.2575 12.6712 35.928 3.14623 24.2989 3.02569Z"
		stroke="url(#paint1_linear_279_2075)" stroke-width="0.444883"
		mask="url(#path-2-inside-1_279_2075)" />
	<defs>
		<filter id="filter0_i_279_2075" x="0.0805664" y="0.0820312" width="48.0002" height="48.6673"
			filterUnits="userSpaceOnUse" color-interpolation-filters="sRGB">
			<feFlood flood-opacity="0" result="BackgroundImageFix" />
			<feBlend mode="normal" in="SourceGraphic" in2="BackgroundImageFix" result="shape" />
			<feColorMatrix in="SourceAlpha" type="matrix"
				values="0 0 0 0 0 0 0 0 0 0 0 0 0 0 0 0 0 0 127 0" result="hardAlpha" />
			<feOffset dy="2.22442" />
			<feGaussianBlur stdDeviation="0.333662" />
			<feComposite in2="hardAlpha" operator="arithmetic" k2="-1" k3="1" />
			<feColorMatrix type="matrix"
				values="0 0 0 0 0.592708 0 0 0 0 0.491021 0 0 0 0 0.162995 0 0 0 1 0" />
			<feBlend mode="normal" in2="shape" result="effect1_innerShadow_279_2075" />
		</filter>
		<linearGradient id="paint0_linear_279_2075" x1="24.1111" y1="49.9076" x2="25.797"
			y2="-3.20018" gradientUnits="userSpaceOnUse">
			<stop stop-color="#AD8B27" />
			<stop offset="0.479167" stop-color="#F7E582" />
			<stop offset="1" stop-color="#AD8B27" />
		</linearGradient>
		<linearGradient id="paint1_linear_279_2075" x1="24.3294" y1="0.0832887" x2="23.8319"
			y2="48.0807" gradientUnits="userSpaceOnUse">
			<stop stop-color="#AD8B27" />
			<stop offset="0.48" stop-color="#F7E582" />
			<stop offset="1" stop-color="#AD8B27" />
		</linearGradient>
	</defs>
</svg>
	