<svg width="64" height="64" viewBox="0 0 64 64" fill="none" xmlns="http://www.w3.org/2000/svg">
<path d="M56.105 26.05C55.13 25.0325 54.1225 23.9825 53.7175 23.005C53.3425 22.0975 53.3225 20.755 53.3 19.335C53.265 16.99 53.225 14.335 51.445 12.555C49.665 10.775 47 10.735 44.665 10.7C43.245 10.6775 41.915 10.6575 40.995 10.2825C40.0175 9.8775 38.9675 8.87 37.95 7.895C36.29 6.305 34.41 4.5 32 4.5C29.59 4.5 27.71 6.305 26.05 7.895C25.0325 8.87 23.9825 9.8775 23.005 10.2825C22.0975 10.6575 20.755 10.6775 19.335 10.7C16.99 10.735 14.335 10.775 12.555 12.555C10.775 14.335 10.735 17 10.7 19.335C10.6775 20.755 10.6575 22.085 10.2825 23.005C9.8775 23.9825 8.87 25.0325 7.895 26.05C6.305 27.71 4.5 29.59 4.5 32C4.5 34.41 6.305 36.29 7.895 37.95C8.87 38.9675 9.8775 40.0175 10.2825 40.995C10.6575 41.9025 10.6775 43.245 10.7 44.665C10.735 47.01 10.775 49.665 12.555 51.445C14.335 53.225 17 53.265 19.335 53.3C20.755 53.3225 22.085 53.3425 23.005 53.7175C23.9825 54.1225 25.0325 55.13 26.05 56.105C27.71 57.695 29.59 59.5 32 59.5C34.41 59.5 36.29 57.695 37.95 56.105C38.9675 55.13 40.0175 54.1225 40.995 53.7175C41.9025 53.3425 43.245 53.3225 44.665 53.3C47.01 53.265 49.665 53.225 51.445 51.445C53.225 49.665 53.265 47.01 53.3 44.665C53.3225 43.245 53.3425 41.915 53.7175 40.995C54.1225 40.0175 55.13 38.9675 56.105 37.95C57.695 36.29 59.5 34.41 59.5 32C59.5 29.59 57.695 27.71 56.105 26.05ZM53.94 35.875C52.7725 37.09 51.565 38.35 50.94 39.85C50.345 41.285 50.32 42.98 50.295 44.62C50.2675 46.48 50.2375 48.405 49.32 49.325C48.4025 50.245 46.475 50.2725 44.615 50.3C42.975 50.325 41.28 50.35 39.845 50.945C38.345 51.565 37.095 52.7725 35.8675 53.945C34.555 55.195 33.1975 56.505 31.995 56.505C30.7925 56.505 29.435 55.2025 28.12 53.945C26.905 52.7775 25.645 51.57 24.145 50.945C22.71 50.35 21.015 50.325 19.375 50.3C17.515 50.2725 15.59 50.2425 14.67 49.325C13.75 48.4075 13.7225 46.48 13.695 44.62C13.67 42.98 13.645 41.285 13.05 39.85C12.43 38.35 11.2225 37.1 10.05 35.8725C8.8025 34.56 7.5 33.2025 7.5 32C7.5 30.7975 8.8025 29.44 10.06 28.125C11.2275 26.91 12.435 25.65 13.06 24.15C13.655 22.715 13.68 21.02 13.705 19.38C13.7325 17.52 13.7625 15.595 14.68 14.675C15.5975 13.755 17.525 13.7275 19.385 13.7C21.025 13.675 22.72 13.65 24.155 13.055C25.655 12.435 26.905 11.2275 28.1325 10.055C29.44 8.8025 30.7975 7.5 32 7.5C33.2025 7.5 34.56 8.8025 35.875 10.06C37.09 11.2275 38.35 12.435 39.85 13.06C41.285 13.655 42.98 13.68 44.62 13.705C46.48 13.7325 48.405 13.7625 49.325 14.68C50.245 15.5975 50.2725 17.525 50.3 19.385C50.325 21.025 50.35 22.72 50.945 24.155C51.565 25.655 52.7725 26.905 53.945 28.1325C55.195 29.445 56.505 30.8025 56.505 32.005C56.505 33.2075 55.1975 34.56 53.94 35.875ZM43.06 24.94C43.3409 25.2213 43.4987 25.6025 43.4987 26C43.4987 26.3975 43.3409 26.7787 43.06 27.06L29.06 41.06C28.7787 41.3409 28.3975 41.4987 28 41.4987C27.6025 41.4987 27.2213 41.3409 26.94 41.06L20.94 35.06C20.675 34.7757 20.5308 34.3996 20.5376 34.011C20.5445 33.6224 20.7019 33.2516 20.9768 32.9768C21.2516 32.7019 21.6224 32.5445 22.011 32.5377C22.3996 32.5308 22.7756 32.675 23.06 32.94L28 37.8775L40.94 24.94C41.2212 24.6591 41.6025 24.5013 42 24.5013C42.3975 24.5013 42.7788 24.6591 43.06 24.94Z" fill="#243D80"/>
</svg>
