<svg width="64" height="64" viewBox="0 0 64 64" fill="none" xmlns="http://www.w3.org/2000/svg">
<g clip-path="url(#clip0_1_814)">
<path d="M11.5484 15.4768L10.4391 16.5508C9.216 17.735 8.86044 19.3047 9.62844 20.062L11.0364 21.4252C11.8187 22.1825 13.44 21.8245 14.6631 20.6403L15.7724 19.5663C16.7253 18.6437 17.1947 17.432 16.9244 16.5783L15.8293 13.1773C15.5591 12.3236 15.9004 11.2358 17.0809 10.093C18.2613 8.95012 19.9253 8.55081 20.7076 9.30812L22.1156 10.6713C22.8978 11.4286 22.528 12.9983 21.3049 14.1825L20.1956 15.2565" stroke="#243D80" stroke-width="2" stroke-miterlimit="10"/>
<path d="M21.4187 10.0104L24.7467 6.78833" stroke="#243D80" stroke-width="2" stroke-miterlimit="10"/>
<path d="M10.3396 20.7505L7.01155 23.9725" stroke="#243D80" stroke-width="2" stroke-miterlimit="10"/>
<path d="M23.6373 22.8847C16.896 29.4113 7.96445 31.339 3.68356 27.1945C-0.597333 23.0499 1.37956 14.4027 8.12089 7.87605C14.848 1.34937 23.7938 -0.57834 28.0747 3.56624C32.3556 7.71082 30.3787 16.3717 23.6373 22.8984V22.8847Z" stroke="#243D80" stroke-width="2" stroke-miterlimit="10"/>
<path d="M3.68356 27.1945L8.12089 31.4905C12.4018 35.6351 21.3476 33.7074 28.0747 27.1807C34.816 20.654 36.7929 12.0069 32.512 7.84853L28.0747 3.55249" stroke="#243D80" stroke-width="2" stroke-miterlimit="10"/>
<path d="M51.8969 32.5507L51.1716 31.3941C50.3751 30.1273 49.0524 29.4939 48.2133 29.9759L46.7058 30.8709C45.8667 31.3666 45.8382 32.7848 46.6347 34.0654L47.36 35.222C47.9858 36.2134 48.9671 36.8606 49.7778 36.8192L53.0347 36.6265C53.8453 36.5714 54.7413 37.0946 55.5093 38.3201C56.2773 39.5456 56.2773 41.0189 55.4382 41.5146L53.9307 42.4096C53.0916 42.9053 51.7689 42.2719 50.9724 40.9914L50.2471 39.8347" stroke="#243D80" stroke-width="2" stroke-miterlimit="10"/>
<path d="M54.6844 41.9415L56.8462 45.3976" stroke="#243D80" stroke-width="2" stroke-miterlimit="10"/>
<path d="M47.4596 30.4302L45.2978 26.9741" stroke="#243D80" stroke-width="2" stroke-miterlimit="10"/>
<path d="M42.752 41.074C38.3716 34.0791 38.5422 26.2168 43.136 23.518C47.7298 20.8192 55.0116 24.2891 59.4062 31.2839C63.7867 38.2788 63.616 46.1411 59.0222 48.8399C54.4284 51.5387 47.1467 48.0688 42.752 41.074V41.074Z" stroke="#243D80" stroke-width="2" stroke-miterlimit="10"/>
<path d="M43.136 23.5181L38.3858 26.3132C33.792 29.012 33.6213 36.8743 38.0018 43.8692C42.3822 50.864 49.664 54.3477 54.272 51.6351L59.0222 48.8399" stroke="#243D80" stroke-width="2" stroke-miterlimit="10"/>
<path d="M15.104 47.1876L13.8951 47.6007C12.5582 48.0551 11.7333 49.1015 12.032 49.9139L12.5867 51.401C12.8853 52.2272 14.208 52.5163 15.5449 52.0482L16.7538 51.6351C17.792 51.2771 18.5742 50.5473 18.688 49.8175L19.1004 46.9397C19.2 46.2237 19.8542 45.5353 21.1342 45.0946C22.4142 44.654 23.7938 44.9294 24.0924 45.7418L24.6471 47.2289C24.9458 48.0551 24.1209 49.0878 22.784 49.5421L21.5751 49.9552" stroke="#243D80" stroke-width="2" stroke-miterlimit="10"/>
<path d="M24.3627 46.4991L27.9751 45.2461" stroke="#243D80" stroke-width="2" stroke-miterlimit="10"/>
<path d="M12.3164 50.6713L8.704 51.9243" stroke="#243D80" stroke-width="2" stroke-miterlimit="10"/>
<path d="M21.3618 56.7435C14.0373 59.2771 6.75556 57.6798 5.09156 53.1635C3.42756 48.6471 8.00711 42.9466 15.3316 40.4131C22.656 37.8795 29.9378 39.4767 31.6018 43.9931C33.2658 48.4957 28.6862 54.21 21.3618 56.7435Z" stroke="#243D80" stroke-width="2" stroke-miterlimit="10"/>
<path d="M5.09156 53.1636L6.81245 57.8314C8.47645 62.3477 15.7582 63.945 23.0827 61.4114C30.4071 58.8778 34.9867 53.1773 33.3227 48.661L31.6018 43.9932" stroke="#243D80" stroke-width="2" stroke-miterlimit="10"/>
</g>
<defs>
<clipPath id="clip0_1_814">
<rect width="64" height="64" fill="white"/>
</clipPath>
</defs>
</svg>
