<svg width="64" height="64" viewBox="0 0 64 64" fill="none" xmlns="http://www.w3.org/2000/svg">
<path d="M59.8822 62C59.3126 58.3825 58.6434 55.2466 58.1023 53.9077C57.5754 52.604 56.3793 51.547 54.8415 51.0067L38.3526 45.698C38.0108 45.3691 37.7688 45.0285 37.5694 44.6879C37.1707 43.9832 36.9571 43.208 36.6866 42.151" stroke="#243D80" stroke-width="2.50215" stroke-linecap="round" stroke-linejoin="round"/>
<path d="M24.8823 47.6533L28.8978 50.7657C30.0369 51.6583 31.8453 51.6583 32.9844 50.7657L36.9999 47.6533" stroke="#243D80" stroke-width="2.50215" stroke-linecap="round" stroke-linejoin="round"/>
<path d="M2 62C2.56957 58.3825 3.23881 55.2466 3.77989 53.9077C4.30674 52.604 5.50283 51.547 7.0549 51.0067L23.5438 45.698C23.8856 45.3691 24.1277 45.0285 24.327 44.6879C24.7257 43.9832 24.9393 43.208 25.2098 42.151" stroke="#243D80" stroke-width="2.50215" stroke-linecap="round" stroke-linejoin="round"/>
<path d="M31.2896 22.9767C27.801 25.0438 23.5008 26.1831 18.2465 26.5002C19.286 34.6747 20.9662 39.0438 25.8075 42.5321C26.9039 43.2602 27.7725 43.6009 29.111 43.777C29.111 43.777 29.2107 43.7888 29.3815 43.8123C29.9796 43.8827 30.3498 43.9297 30.9479 43.9297C31.2469 43.9297 31.4889 43.9297 31.731 43.8945C31.9731 43.871 32.2151 43.8475 32.5142 43.8123C32.685 43.7888 32.7847 43.777 32.7847 43.777C34.1232 43.6126 34.9918 43.272 36.0882 42.5321C40.8298 39.1025 42.5528 34.8274 43.5922 26.923C42.0829 26.6059 40.7586 24.4448 39.7619 22.2485" stroke="#243D80" stroke-width="2.50215" stroke-linecap="round" stroke-linejoin="round"/>
<path d="M46.4113 20.7206C51.4377 29.5645 46.5252 39.8766 46.7815 42.6249C46.8954 43.9169 44.7453 44.4454 42.4955 44.6333" stroke="#243D80" stroke-width="2.50215" stroke-linecap="round" stroke-linejoin="round"/>
<path d="M15.4702 20.7206C10.4438 29.5645 15.3563 39.8766 15.1 42.6249C14.9861 43.9169 17.1362 44.4454 19.386 44.6333" stroke="#243D80" stroke-width="2.50215" stroke-linecap="round" stroke-linejoin="round"/>
<path d="M59.3414 15.8816V9.53931" stroke="#243D80" stroke-width="2.50215" stroke-linecap="round" stroke-linejoin="round"/>
<path d="M59.1274 16.0149C59.1559 15.9327 59.2413 15.8857 59.341 15.8857C59.4264 15.8857 59.5119 15.9327 59.5546 16.0149L61.9752 21.2767C62.0749 21.7112 61.8613 22.1693 61.5623 22.1693H57.1197C56.8207 22.1693 56.6071 21.7112 56.7067 21.2767L59.1274 16.0149Z" stroke="#243D80" stroke-width="2.50215" stroke-linecap="round" stroke-linejoin="round"/>
<path d="M46.4836 13.2582V20.7045C46.4551 20.7045 46.4409 20.7162 46.4124 20.728C44.2338 21.3857 42.0125 21.9025 39.7627 22.2666C36.9576 22.7246 34.124 22.9713 31.2762 22.983C25.9365 23.0182 20.5826 22.2666 15.4707 20.728C15.4423 20.728 15.428 20.7162 15.3995 20.7045V13.2582" stroke="#243D80" stroke-width="2.50215" stroke-linecap="round" stroke-linejoin="round"/>
<path d="M31.7317 16.8485L58.2735 10.3888C59.6974 10.0247 59.6974 8.92071 58.2735 8.55662L31.7317 2.0969C31.2333 1.9677 30.6495 1.9677 30.1511 2.0969L3.60932 8.55662C2.1854 8.92071 2.1854 10.0247 3.60932 10.3888L30.1511 16.8485C30.6495 16.9777 31.2333 16.9777 31.7317 16.8485Z" stroke="#243D80" stroke-width="2.50215" stroke-linecap="round" stroke-linejoin="round"/>
</svg>
