<svg width="50" height="48" viewBox="0 0 50 48" fill="none" xmlns="http://www.w3.org/2000/svg">
<path d="M15.0263 14.36V11.6933H36.9729V14.36H15.0263ZM15.0263 21.744V19.0773H36.9729V21.744H15.0263ZM21.5889 48H5.99959C4.49559 48 3.2307 47.4871 2.20493 46.4613C1.17915 45.4356 0.66626 44.1707 0.66626 42.6667V35.28H8.66626V0H43.3329V17.5387L40.6663 20.2053V2.66667H11.3329V35.28H25.5889L22.9223 37.9467H3.33293V42.6667C3.33293 43.4222 3.58893 44.056 4.10093 44.568C4.61293 45.08 5.24582 45.3351 5.99959 45.3333H21.5889V48ZM27.9489 48V42.1067L43.8423 26.2827L49.6823 32.16L33.8396 48H27.9489ZM30.3089 45.6427H32.8423L42.0876 36.3787L40.8343 35.112L39.6209 33.8107L30.3089 43.1067V45.6427ZM40.8343 35.112L39.6209 33.8107L42.0876 36.3787L40.8343 35.112Z" fill="#243D80"/>
</svg>
