<svg width="698" height="111" viewBox="0 0 698 111" fill="none" xmlns="http://www.w3.org/2000/svg">
<path d="M74.6544 4.26172C73.9616 4.95443 73.2689 5.64714 72.5762 6.33984C71.8835 6.98307 71.3393 7.79948 70.9434 8.78906C70.3497 8.88802 69.7312 9.01172 69.088 9.16016C68.4447 9.30859 67.8262 9.38281 67.2325 9.38281C66.8366 9.38281 66.4408 9.33333 66.045 9.23438C65.6491 9.08594 65.2533 9.01172 64.8575 9.01172C64.5111 9.01172 64.338 9.1849 64.338 9.53125C64.338 9.8776 64.239 10.1497 64.0411 10.3477C63.6452 10.1992 63.2247 10.1003 62.7794 10.0508C62.334 10.0013 61.8887 9.97656 61.4434 9.97656C60.4044 9.97656 59.3653 10.1497 58.3262 10.4961C57.3366 10.793 56.3471 11.1641 55.3575 11.6094C54.3679 12.0052 53.3783 12.4258 52.3887 12.8711C51.3991 13.3164 50.3848 13.6628 49.3458 13.9102C49.3952 13.9596 49.42 14.0833 49.42 14.2812C49.42 14.6276 49.321 14.9245 49.1231 15.1719C48.9252 15.3698 48.8262 15.6419 48.8262 15.9883V16.2109C49.42 17.4974 50.0137 18.7344 50.6075 19.9219C51.2012 21.1094 51.7702 22.3464 52.3145 23.6328C52.6114 24.276 52.8588 24.8945 53.0567 25.4883C53.2546 26.082 53.4773 26.7253 53.7247 27.418C53.8236 27.8138 53.9968 28.0859 54.2442 28.2344C54.4916 28.3333 54.739 28.5065 54.9864 28.7539C54.8874 29.0508 54.838 29.3229 54.838 29.5703C54.838 30.5104 55.0606 31.4258 55.5059 32.3164C55.9512 33.1576 56.1739 34.0234 56.1739 34.9141C56.1739 35.1615 56.1244 35.4831 56.0255 35.8789C56.6192 36.7201 57.0398 37.6849 57.2872 38.7734C57.5346 39.862 57.7572 40.9753 57.9551 42.1133C58.1531 43.2018 58.351 44.2904 58.5489 45.3789C58.7963 46.418 59.2169 47.3581 59.8106 48.1992C59.4643 48.793 59.2416 49.4362 59.1426 50.1289C59.0437 50.7721 58.9942 51.4401 58.9942 52.1328C58.9942 53.7161 59.1426 55.3242 59.4395 56.957C59.7859 58.5404 59.959 60.1237 59.959 61.707C59.959 62.7956 59.8353 63.6862 59.588 64.3789C59.6869 65.1211 59.9343 65.6654 60.3301 66.0117C60.1322 66.3581 60.058 66.7786 60.1075 67.2734C60.157 67.7188 60.058 68.1146 59.8106 68.4609C60.058 69.4505 60.1817 70.3659 60.1817 71.207C60.1817 72.444 60.0085 73.681 59.6622 74.918C59.3653 76.1055 59.2169 77.3424 59.2169 78.6289C59.2169 78.9753 59.2416 79.2969 59.2911 79.5938C59.3406 79.9401 59.4395 80.3112 59.588 80.707C59.489 81.0039 59.2911 81.1771 58.9942 81.2266C58.7468 81.3255 58.5736 81.4987 58.4747 81.7461V81.9688C58.4747 82.7109 58.3757 83.3542 58.1778 83.8984C58.0294 84.4922 57.8314 85.0365 57.584 85.5312L56.9161 87.0898C56.7182 87.6341 56.545 88.2279 56.3965 88.8711C55.1101 89.5638 53.8731 90.2318 52.6856 90.875C51.5476 91.5182 50.4343 92.3841 49.3458 93.4727C49.1478 93.5221 48.851 93.5469 48.4551 93.5469C48.1088 93.5469 47.7624 93.5221 47.4161 93.4727C47.0697 93.4727 46.6986 93.4727 46.3028 93.4727C45.7585 93.4727 45.1895 93.5469 44.5958 93.6953C43.8041 92.9531 42.8393 92.4089 41.7012 92.0625C40.5632 91.7656 39.4994 91.3451 38.5098 90.8008C38.1635 90.3555 37.7676 89.9596 37.3223 89.6133L35.9864 88.5742C35.5411 88.2279 35.1205 87.8815 34.7247 87.5352C34.3288 87.1888 33.9825 86.7435 33.6856 86.1992H32.6465C32.6465 86.1497 32.6465 86.1003 32.6465 86.0508C32.696 86.0013 32.7208 85.9518 32.7208 85.9023C32.7208 85.6549 32.5971 85.5065 32.3497 85.457C32.1023 85.4076 32.0281 85.2344 32.127 84.9375C31.5333 84.4922 31.0385 83.9727 30.6426 83.3789C30.2468 82.7852 29.851 82.1667 29.4551 81.5234C29.0593 80.9297 28.6635 80.3359 28.2676 79.7422C27.8718 79.1979 27.377 78.7031 26.7833 78.2578V78.1094C26.7833 77.862 26.709 77.7135 26.5606 77.6641C26.4122 77.5651 26.3874 77.3177 26.4864 76.9219C25.6947 75.8828 25.0268 74.7943 24.4825 73.6562C23.9382 72.5182 23.4187 71.3555 22.9239 70.168C22.4786 68.931 22.0085 67.7188 21.5137 66.5312C21.0684 65.3438 20.5241 64.2057 19.8809 63.1172C19.782 62.6224 19.7325 62.1276 19.7325 61.6328V60.1484C19.7325 58.7135 19.8562 57.3529 20.1036 56.0664C20.351 54.7305 20.821 53.444 21.5137 52.207C21.9096 52.1081 22.3549 52.0833 22.8497 52.1328C23.3939 52.1328 23.8887 52.1328 24.334 52.1328C24.7794 52.1328 25.1999 52.1081 25.5958 52.0586C26.0411 51.9596 26.4369 51.737 26.7833 51.3906C26.7338 51.5885 26.7833 51.737 26.9317 51.8359C27.0801 51.8854 27.2286 51.9102 27.377 51.9102C27.6244 51.9102 27.8471 51.8854 28.045 51.8359C28.2924 51.737 28.5398 51.6875 28.7872 51.6875C28.8861 51.6875 29.0098 51.7122 29.1583 51.7617C29.3562 51.8112 29.4551 51.9596 29.4551 52.207C29.752 52.1081 30.0241 51.9844 30.2715 51.8359C30.5189 51.6875 30.7911 51.5391 31.088 51.3906C31.9291 52.1328 32.9187 52.7018 34.0567 53.0977C35.1947 53.444 36.3575 53.7904 37.545 54.1367C38.7325 54.4336 39.8952 54.7799 41.0333 55.1758C42.1713 55.5221 43.1856 56.0417 44.0762 56.7344C44.3236 57.2292 44.4473 57.7487 44.4473 58.293C44.4473 59.1341 44.101 59.8763 43.4083 60.5195C42.7156 61.1133 41.9734 61.5339 41.1817 61.7812C40.0437 60.9896 38.7572 60.4206 37.3223 60.0742C35.9369 59.7279 34.6257 59.2331 33.3887 58.5898C32.3991 58.9857 31.3106 59.2083 30.1231 59.2578C28.9851 59.2578 27.8718 59.3073 26.7833 59.4062C26.5359 59.6042 26.4369 59.9505 26.4864 60.4453C26.5853 60.9401 26.5111 61.3112 26.2637 61.5586C26.907 63.4883 27.7481 65.3685 28.7872 67.1992C29.8262 68.9805 30.7663 70.8112 31.6075 72.6914C31.7064 72.9883 31.8796 73.2109 32.127 73.3594C32.3744 73.4583 32.6218 73.582 32.8692 73.7305V73.9531C32.8692 74.25 32.9434 74.4727 33.0919 74.6211C33.2403 74.7201 33.265 74.9674 33.1661 75.3633C33.7598 75.4622 34.1804 75.7839 34.4278 76.3281C34.7247 76.8724 35.0215 77.3424 35.3184 77.7383C35.5163 77.9857 35.7143 78.2083 35.9122 78.4062C36.1596 78.6042 36.3822 78.8268 36.5801 79.0742C37.4213 80.0143 38.3366 81.0039 39.3262 82.043C40.3158 83.082 41.3549 83.8737 42.4434 84.418C42.5919 84.5169 42.7156 84.5664 42.8145 84.5664C42.963 84.5664 43.1114 84.5911 43.2598 84.6406C43.8041 84.9375 44.3978 85.2096 45.0411 85.457C45.6843 85.7539 46.3523 85.9023 47.045 85.9023C47.3913 85.9023 47.7377 85.8281 48.084 85.6797C48.4799 85.5312 48.7273 85.2839 48.8262 84.9375C49.0736 84.4922 49.2468 83.9727 49.3458 83.3789C49.4942 82.8346 49.6179 82.3151 49.7169 81.8203C50.1127 80.3854 50.4838 78.9505 50.8301 77.5156C51.226 76.0807 51.5476 74.6458 51.795 73.2109C51.696 72.5677 51.6218 71.9245 51.5723 71.2812C51.5228 70.638 51.4981 69.9948 51.4981 69.3516C51.4981 68.2135 51.5228 67.0755 51.5723 65.9375C51.6713 64.7995 51.7208 63.6615 51.7208 62.5234C51.7208 61.4844 51.6465 60.4701 51.4981 59.4805C51.3991 58.4414 51.1518 57.4271 50.7559 56.4375C50.8549 56.2396 50.9786 56.0911 51.127 55.9922C51.2755 55.8932 51.3497 55.7201 51.3497 55.4727C51.3497 55.1758 51.2507 54.7799 51.0528 54.2852C50.9044 53.7409 50.7064 53.3945 50.459 53.2461C50.8054 52.7513 50.9786 52.1328 50.9786 51.3906C50.9786 50.5495 50.8549 49.7083 50.6075 48.8672C50.3601 48.026 50.2364 47.1849 50.2364 46.3438C50.2364 45.7995 50.3106 45.2552 50.459 44.7109C50.459 44.3646 50.2859 44.1914 49.9395 44.1914C49.5932 44.1914 49.3952 44.0182 49.3458 43.6719C49.3458 43.5729 49.3458 43.474 49.3458 43.375C49.3952 43.276 49.42 43.1771 49.42 43.0781C49.42 42.4349 49.321 41.8411 49.1231 41.2969C48.9747 40.7031 48.8757 40.0846 48.8262 39.4414C48.3809 38.9466 48.0593 38.3281 47.8614 37.5859C47.6635 36.8438 47.4656 36.1016 47.2676 35.3594C47.0697 34.5677 46.8471 33.8255 46.5997 33.1328C46.3523 32.4401 45.9564 31.8711 45.4122 31.4258C45.4122 30.7826 45.3132 30.1146 45.1153 29.4219C44.9669 28.7292 44.5463 28.2344 43.8536 27.9375C43.5567 26.7995 43.1609 25.7357 42.6661 24.7461C42.1713 23.7565 41.5033 22.8659 40.6622 22.0742C40.6622 20.8867 40.4148 19.9714 39.92 19.3281C39.4747 18.6849 38.9057 17.9427 38.213 17.1016C37.0749 17.2005 35.9369 17.4232 34.7989 17.7695C33.6609 18.1159 32.5228 18.2891 31.3848 18.2891C31.088 18.2891 30.7911 18.2891 30.4942 18.2891C30.2468 18.2396 29.9747 18.1901 29.6778 18.1406C29.4304 18.2891 29.282 18.5365 29.2325 18.8828C29.183 19.1797 29.1583 19.4518 29.1583 19.6992C28.2676 19.7982 27.4018 19.9714 26.5606 20.2188C25.7195 20.4167 24.8536 20.6393 23.963 20.8867C23.1218 21.0846 22.2807 21.2578 21.4395 21.4062C20.5984 21.5547 19.7325 21.6042 18.8419 21.5547C18.4955 22.2474 18.0007 22.7174 17.3575 22.9648C16.7143 23.1628 16.0215 23.3112 15.2794 23.4102C14.5866 23.5091 13.8939 23.6328 13.2012 23.7812C12.5085 23.9297 11.9643 24.2513 11.5684 24.7461C11.3705 24.5482 11.1231 24.4492 10.8262 24.4492C10.4304 24.4492 10.0593 24.5482 9.71295 24.7461C9.31712 24.944 8.89655 25.043 8.45123 25.043C8.10488 25.043 7.83274 24.944 7.63483 24.7461C7.28847 24.9935 6.91738 25.1914 6.52155 25.3398C6.07623 25.4388 5.72988 25.6862 5.48248 26.082C4.64134 25.9336 3.89915 25.612 3.25592 25.1172C2.61269 24.6224 2.09316 24.0286 1.69733 23.3359C1.25201 22.6432 0.9304 21.901 0.732483 21.1094C0.534566 20.2682 0.435608 19.4518 0.435608 18.6602C0.732483 18.1159 1.20253 17.7448 1.84576 17.5469C2.48899 17.349 3.00852 17.0026 3.40436 16.5078C3.75071 16.6562 4.09707 16.8047 4.44342 16.9531C4.7403 17.0521 5.08665 17.1016 5.48248 17.1016C5.97727 17.1016 6.39785 17.0026 6.7442 16.8047C7.09056 16.6068 7.46165 16.5078 7.85748 16.5078C8.10488 16.5078 8.37701 16.582 8.67389 16.7305C9.02024 16.4336 9.44082 16.2604 9.93561 16.2109C10.4304 16.112 10.9005 16.0378 11.3458 15.9883C11.8406 15.8893 12.2859 15.7656 12.6817 15.6172C13.0775 15.4688 13.3497 15.1471 13.4981 14.6523C13.9434 14.8008 14.4135 14.875 14.9083 14.875C15.502 14.875 16.0958 14.8008 16.6895 14.6523C17.2833 14.4544 17.8275 14.2565 18.3223 14.0586C18.8171 13.8607 19.2624 13.6875 19.6583 13.5391C20.0541 13.3411 20.3262 13.2422 20.4747 13.2422C20.7221 13.2422 20.9695 13.3164 21.2169 13.4648C21.4643 13.5638 21.7116 13.6133 21.959 13.6133C22.4538 13.6133 22.9239 13.4648 23.3692 13.168C23.864 12.8711 24.3093 12.5742 24.7051 12.2773C25.101 12.4753 25.4721 12.5742 25.8184 12.5742C26.5111 12.5742 27.2038 12.3763 27.8965 11.9805C28.6387 11.5846 29.4304 11.3867 30.2715 11.3867C30.6179 11.3867 30.89 11.4115 31.088 11.4609C32.226 10.9167 33.5866 10.4219 35.17 9.97656C36.8028 9.53125 38.2624 9.30859 39.5489 9.30859C40.2416 8.71484 41.058 8.29427 41.9981 8.04688C42.9382 7.79948 43.9031 7.60156 44.8926 7.45312C45.8822 7.30469 46.8471 7.10677 47.7872 6.85938C48.7768 6.61198 49.6674 6.19141 50.459 5.59766C50.7064 5.69661 51.0033 5.77083 51.3497 5.82031C51.696 5.82031 51.9434 5.91927 52.0919 6.11719C52.3393 6.01823 52.5124 5.84505 52.6114 5.59766C52.7103 5.35026 52.7846 5.10286 52.834 4.85547C52.8835 4.80599 52.9825 4.78125 53.1309 4.78125C53.3783 4.78125 53.4773 4.88021 53.4278 5.07812C53.3783 5.27604 53.4773 5.375 53.7247 5.375C53.8731 5.375 54.1205 5.30078 54.4669 5.15234C54.8627 4.95443 55.3327 4.75651 55.877 4.55859C56.4213 4.36068 57.015 4.1875 57.6583 4.03906C58.3015 3.84115 58.92 3.74219 59.5137 3.74219H59.8106L60.1817 3.66797C60.4291 3.56901 60.7012 3.49479 60.9981 3.44531C61.295 3.34635 61.5671 3.2474 61.8145 3.14844C62.1114 3.04948 62.3093 3 62.4083 3C63.4968 2.65365 64.6101 2.35677 65.7481 2.10938C66.9356 1.86198 68.0984 1.73828 69.2364 1.73828C70.3249 1.73828 71.3393 1.9362 72.2794 2.33203C73.2195 2.67839 74.0111 3.32161 74.6544 4.26172ZM118.445 66.9766C118.247 67.7188 117.926 68.3372 117.48 68.832C117.035 69.3268 116.516 69.7721 115.922 70.168C115.378 70.5638 114.784 70.9349 114.141 71.2812C113.497 71.5781 112.879 71.9245 112.285 72.3203H111.32C109.242 72.3203 107.634 71.8255 106.496 70.8359C105.408 69.7969 104.566 68.5352 103.973 67.0508C103.379 65.5169 102.934 63.8841 102.637 62.1523C102.389 60.4206 102.068 58.8372 101.672 57.4023C101.078 57.8971 100.583 58.4909 100.188 59.1836C99.7917 59.8268 99.3711 60.4701 98.9258 61.1133C98.53 61.7565 98.0599 62.3503 97.5156 62.8945C97.0208 63.4388 96.3529 63.8099 95.5117 64.0078C95.3633 64.3542 95.1901 64.7005 94.9922 65.0469C94.8438 65.3932 94.7448 65.7643 94.6953 66.1602C93.6068 66.7539 92.6172 67.4466 91.7266 68.2383C90.836 69.0299 89.9453 69.8464 89.0547 70.6875C88.1641 71.5286 87.2487 72.3451 86.3086 73.1367C85.418 73.8789 84.4037 74.4974 83.2656 74.9922C83.2162 74.9427 83.1172 74.918 82.9688 74.918C82.375 74.918 81.8307 75.0664 81.336 75.3633C80.8412 75.6107 80.2969 75.7344 79.7031 75.7344C79.3073 75.7344 78.9362 75.6602 78.5899 75.5117C78.293 75.3633 77.9714 75.1901 77.625 74.9922C77.3281 74.7943 77.0065 74.6458 76.6602 74.5469C76.3138 74.4479 75.9427 74.4232 75.5469 74.4727C75.0521 73.582 74.3841 72.7656 73.543 72.0234C72.7513 71.2318 72.2565 70.3411 72.0586 69.3516C71.9597 68.9062 71.8854 68.4609 71.836 68.0156C71.836 67.5208 71.7865 67.026 71.6875 66.5312C71.5391 65.7891 71.3412 65.0469 71.0938 64.3047C70.8464 63.513 70.6485 62.7214 70.5 61.9297C70.7474 60.5938 70.9948 59.1341 71.2422 57.5508C71.4401 55.918 71.6875 54.3099 71.9844 52.7266C72.3307 51.0938 72.7761 49.5599 73.3203 48.125C73.9141 46.6406 74.6563 45.3789 75.5469 44.3398L75.4727 43.8203C75.4727 43.0286 75.6211 42.2865 75.918 41.5938C76.2149 40.901 76.5365 40.2331 76.8828 39.5898C77.2292 38.9466 77.5261 38.3034 77.7735 37.6602C78.0208 37.0169 78.0703 36.2995 77.9219 35.5078C78.5156 35.2109 79.1341 34.9635 79.7774 34.7656C80.4206 34.5677 81.0886 34.4688 81.7813 34.4688C82.4245 34.4688 83.0182 34.5677 83.5625 34.7656C83.4636 35.1615 83.6367 35.4089 84.082 35.5078V35.7305C84.082 36.7695 83.9583 37.7839 83.711 38.7734C83.4636 39.763 83.1667 40.7526 82.8203 41.7422C82.474 42.6823 82.1276 43.6471 81.7813 44.6367C81.4844 45.5768 81.2617 46.5417 81.1133 47.5312C80.9154 47.5807 80.7669 47.6797 80.668 47.8281C80.6185 47.9766 80.569 48.125 80.5195 48.2734C80.4701 48.4219 80.3958 48.5456 80.2969 48.6445C80.1979 48.7435 80.0495 48.793 79.8516 48.793C79.5547 50.5247 79.2331 52.2565 78.8867 53.9883C78.5899 55.6706 78.4414 57.3776 78.4414 59.1094C78.4414 60.1484 78.5404 61.2122 78.7383 62.3008C78.9362 63.3893 79.3073 64.4284 79.8516 65.418L80.1485 65.3438C80.6927 65.3438 81.1133 65.4674 81.4102 65.7148C81.7565 65.9622 82.2018 66.2096 82.7461 66.457C83.1419 66.3581 83.513 66.2344 83.8594 66.0859C84.2057 65.888 84.3542 65.5664 84.3047 65.1211C84.9479 65.0716 85.4922 64.9232 85.9375 64.6758C86.3828 64.3789 86.7787 64.0573 87.125 63.7109L88.2383 62.6719C88.6341 62.3255 89.1042 62.0781 89.6485 61.9297C89.6485 61.6328 89.7227 61.4102 89.8711 61.2617L90.3164 60.8164C90.4649 60.668 90.5638 60.5195 90.6133 60.3711C90.7123 60.1732 90.737 59.901 90.6875 59.5547C91.2813 59.5052 91.7266 59.3568 92.0235 59.1094C92.3698 58.862 92.6667 58.5898 92.9141 58.293C93.211 57.9466 93.4831 57.6003 93.7305 57.2539C93.9779 56.9076 94.2995 56.6107 94.6953 56.3633C95.0417 55.6211 95.5117 54.6315 96.1055 53.3945C96.7487 52.1576 97.3672 50.8711 97.961 49.5352C98.6042 48.1992 99.1485 46.9375 99.5938 45.75C100.089 44.513 100.336 43.5729 100.336 42.9297C100.336 42.6823 100.262 42.4596 100.113 42.2617C100.014 42.0638 99.9896 41.8411 100.039 41.5938V41.3711C100.435 40.8763 100.781 40.332 101.078 39.7383C101.424 39.1445 101.771 38.5755 102.117 38.0312C102.513 37.487 102.934 36.9922 103.379 36.5469C103.824 36.1016 104.393 35.7552 105.086 35.5078C105.878 35.7552 106.669 35.9284 107.461 36.0273C108.302 36.1263 109.094 36.3242 109.836 36.6211C109.885 37.8581 110.009 39.293 110.207 40.9258C110.405 42.5586 110.751 43.944 111.246 45.082C111.246 45.7253 111.221 46.3438 111.172 46.9375C111.172 47.5312 111.172 48.125 111.172 48.7188C111.172 49.7083 111.197 50.7227 111.246 51.7617C111.345 52.8008 111.518 53.7656 111.766 54.6562C111.419 55.3984 111.246 56.1901 111.246 57.0312C111.246 58.1693 111.419 59.2578 111.766 60.2969C112.112 61.2865 112.359 62.3503 112.508 63.4883C113.151 64.3789 113.992 64.8242 115.031 64.8242C115.279 64.8242 115.477 64.7995 115.625 64.75C115.823 64.7005 116.021 64.6263 116.219 64.5273C116.615 64.9727 116.961 65.418 117.258 65.8633C117.604 66.2591 118 66.6302 118.445 66.9766ZM161.717 59.9258C161.717 60.4701 161.519 60.8906 161.123 61.1875C160.727 61.4349 160.529 61.7812 160.529 62.2266C160.529 62.4245 160.628 62.6719 160.826 62.9688C160.133 62.9688 159.663 63.1914 159.416 63.6367C159.169 64.082 158.921 64.5768 158.674 65.1211H157.709C157.462 65.1211 157.264 65.1706 157.115 65.2695C156.967 65.3685 156.818 65.5169 156.67 65.7148C156.571 65.8633 156.422 66.1107 156.225 66.457C155.284 66.6549 154.369 66.9766 153.478 67.4219C152.637 67.8177 151.796 68.263 150.955 68.7578C150.163 69.2031 149.347 69.6732 148.506 70.168C147.665 70.6133 146.799 70.9844 145.908 71.2812C145.463 72.0234 144.82 72.6172 143.978 73.0625H143.756C143.508 73.112 143.286 73.0872 143.088 72.9883C142.939 72.8398 142.742 72.7656 142.494 72.7656C142.346 72.7656 142.247 72.7904 142.197 72.8398C140.713 73.8294 139.055 74.3242 137.225 74.3242C136.73 74.3242 136.26 74.2995 135.814 74.25C135.369 74.151 134.899 74.1016 134.404 74.1016C134.256 74.1016 134.157 74.151 134.107 74.25L133.959 74.5469C133.909 74.6458 133.835 74.7448 133.736 74.8438C133.687 74.9427 133.514 74.9922 133.217 74.9922C132.672 74.9922 132.128 74.918 131.584 74.7695C131.04 74.6211 130.471 74.5964 129.877 74.6953C128.739 74.0521 127.848 73.4336 127.205 72.8398C126.562 72.2461 125.968 71.3555 125.424 70.168C125.176 69.6237 124.83 69.1042 124.385 68.6094C123.989 68.1146 123.692 67.5703 123.494 66.9766C123.445 66.7786 123.37 66.4323 123.271 65.9375C123.172 65.3932 123.074 64.8242 122.975 64.2305C122.876 63.6367 122.777 63.0677 122.678 62.5234C122.628 61.9792 122.603 61.6081 122.603 61.4102C122.603 60.8164 122.628 60.2474 122.678 59.7031C122.777 59.1094 122.876 58.5156 122.975 57.9219C123.271 56.0417 123.469 54.1615 123.568 52.2812C123.717 50.3516 124.137 48.4961 124.83 46.7148C124.731 46.1706 124.682 45.651 124.682 45.1562V43.5234C124.682 42.5833 124.558 41.7917 124.311 41.1484C124.706 40.5052 124.904 39.7878 124.904 38.9961C124.904 38.1055 124.533 37.5859 123.791 37.4375V37.2148C123.791 36.1758 123.445 35.3594 122.752 34.7656C122.752 33.0339 123.172 31.7474 124.014 30.9062C124.904 30.0156 126.067 29.2487 127.502 28.6055C127.7 28.3086 127.774 28.0612 127.725 27.8633C128.071 27.9622 128.393 28.0612 128.689 28.1602C128.986 28.2591 129.283 28.3086 129.58 28.3086C130.075 28.3086 130.52 28.2344 130.916 28.0859C131.064 28.6797 131.436 29.0508 132.029 29.1992C132.672 29.2982 133.192 29.4466 133.588 29.6445V30.6094C133.588 32.1432 133.959 33.6029 134.701 34.9883C134.503 35.3841 134.38 35.8047 134.33 36.25C134.281 36.6953 134.256 37.1159 134.256 37.5117C134.256 38.1055 134.281 38.6992 134.33 39.293C134.38 39.8867 134.404 40.4557 134.404 41C134.404 41.5938 134.33 42.1875 134.182 42.7812C134.083 43.375 133.811 43.8945 133.365 44.3398C133.316 44.9831 133.266 45.7253 133.217 46.5664C133.217 47.3581 133.167 48.1745 133.068 49.0156C133.019 49.8568 132.895 50.6732 132.697 51.4648C132.499 52.2565 132.202 52.8997 131.807 53.3945C131.757 54.1367 131.708 54.9036 131.658 55.6953C131.658 56.4375 131.658 57.1549 131.658 57.8477C131.658 58.9362 131.708 60.2227 131.807 61.707C131.955 63.1914 132.301 64.4284 132.846 65.418C133.093 65.8138 133.563 66.1107 134.256 66.3086C134.998 66.5065 135.592 66.6055 136.037 66.6055C136.581 66.6055 137.126 66.5312 137.67 66.3828C138.264 66.1849 138.684 65.8633 138.932 65.418C139.228 65.4674 139.426 65.6159 139.525 65.8633C139.624 66.1107 139.797 66.3086 140.045 66.457C142.865 65.2695 145.686 64.1315 148.506 63.043C151.326 61.9544 154.097 60.6927 156.818 59.2578C157.214 59.4557 157.635 59.5547 158.08 59.5547C158.575 59.5547 159.07 59.5052 159.564 59.4062C160.059 59.3073 160.554 59.2578 161.049 59.2578H161.568C161.667 59.5547 161.717 59.7773 161.717 59.9258ZM197.789 27.9375C197.789 28.3828 197.591 28.7539 197.195 29.0508C196.849 29.3477 196.676 29.5703 196.676 29.7188C196.676 30.0156 196.725 30.2383 196.824 30.3867C196.923 30.4857 196.973 30.6094 196.973 30.7578V31.1289C196.478 31.6237 196.107 32.168 195.859 32.7617C195.612 33.306 195.414 33.8997 195.266 34.543C195.117 35.1367 194.969 35.7552 194.82 36.3984C194.721 37.0417 194.573 37.6602 194.375 38.2539C194.128 38.8477 193.806 39.3672 193.41 39.8125C193.014 40.2083 192.693 40.6784 192.445 41.2227C192.049 42.1133 191.753 43.0286 191.555 43.9688C191.357 44.9089 190.936 45.7747 190.293 46.5664V46.9375C190.243 47.2839 190.342 47.5807 190.59 47.8281C189.65 49.0651 188.907 50.5495 188.363 52.2812C187.819 53.9635 187.374 55.7448 187.027 57.625C186.681 59.4557 186.384 61.3112 186.137 63.1914C185.889 65.0221 185.592 66.6797 185.246 68.1641C185.493 69.2526 185.864 70.2917 186.359 71.2812C186.904 72.2214 187.423 73.2109 187.918 74.25C188.907 74.4974 189.848 74.8438 190.738 75.2891C191.678 75.7344 192.346 76.4518 192.742 77.4414C192.643 78.431 192.322 79.1979 191.777 79.7422C191.233 80.2865 190.565 80.8555 189.773 81.4492C189.229 81.2513 188.784 81.0781 188.437 80.9297C188.091 80.8307 187.572 80.8307 186.879 80.9297C185.939 80.1875 185.048 79.5938 184.207 79.1484C183.415 78.7031 182.698 77.9362 182.055 76.8477C181.956 76.6992 181.807 76.625 181.609 76.625H180.941C180.694 76.0312 180.397 75.4128 180.051 74.7695C179.704 74.0768 179.358 73.3841 179.012 72.6914C178.665 71.9492 178.368 71.2318 178.121 70.5391C177.874 69.7969 177.75 69.1289 177.75 68.5352C177.75 66.0117 177.973 63.513 178.418 61.0391C178.913 58.5156 179.16 55.9674 179.16 53.3945V52.6523C178.17 52.8997 177.181 53.2461 176.191 53.6914C175.251 54.1367 174.286 54.4831 173.297 54.7305C172.95 54.8294 172.753 55.0026 172.703 55.25C172.654 55.4974 172.505 55.6953 172.258 55.8438C171.763 55.8932 171.293 55.9427 170.848 55.9922C170.402 55.9922 169.982 55.9922 169.586 55.9922C168.745 55.9922 167.854 55.9674 166.914 55.918C166.023 55.819 165.133 55.6458 164.242 55.3984C163.351 55.151 162.51 54.8047 161.719 54.3594C160.976 53.9141 160.309 53.3451 159.715 52.6523C159.616 52.7018 159.492 52.7513 159.344 52.8008C159.195 52.8503 159.047 52.875 158.898 52.875C158.75 52.875 158.601 52.8503 158.453 52.8008C158.305 52.7513 158.181 52.7018 158.082 52.6523C157.686 52.1081 157.364 51.5143 157.117 50.8711L156.375 48.9414C156.128 48.2982 155.855 47.6797 155.559 47.0859C155.262 46.4922 154.866 45.9479 154.371 45.4531C154.223 44.5625 154.148 43.6966 154.148 42.8555C154.148 41.9648 154.223 41.099 154.371 40.2578C154.47 39.4167 154.643 38.5755 154.891 37.7344C154.693 37.1406 154.569 36.5221 154.519 35.8789C154.42 35.2357 154.371 34.5924 154.371 33.9492C154.371 33.207 154.445 32.4401 154.594 31.6484C154.742 30.8568 154.989 30.1393 155.336 29.4961C155.682 28.8034 156.177 28.2344 156.82 27.7891C157.414 27.3438 158.156 27.1211 159.047 27.1211C160.036 27.1211 160.952 27.3932 161.793 27.9375C162.634 28.4323 163.45 28.9518 164.242 29.4961C164.341 30.0898 164.415 30.6836 164.465 31.2773C164.514 31.8216 164.539 32.4154 164.539 33.0586C164.539 34.2461 164.465 35.4583 164.316 36.6953C164.217 37.8828 164.168 39.0951 164.168 40.332C164.168 41.6185 164.316 42.8307 164.613 43.9688C164.96 45.0573 165.553 46.0964 166.394 47.0859H166.691C167.087 47.0365 167.434 47.1107 167.73 47.3086C168.027 47.5065 168.374 47.6055 168.769 47.6055C169.116 47.6055 169.388 47.4818 169.586 47.2344C169.784 46.9375 170.031 46.7891 170.328 46.7891C170.625 46.7891 170.848 46.8385 170.996 46.9375C171.144 47.0365 171.268 47.0859 171.367 47.0859C171.911 47.0859 172.53 46.888 173.223 46.4922C173.915 46.0964 174.361 45.651 174.559 45.1562C174.756 45.3047 175.004 45.3789 175.301 45.3789C175.697 45.3789 176.068 45.2552 176.414 45.0078C176.76 44.7604 177.206 44.6367 177.75 44.6367C178.047 44.6367 178.146 44.4635 178.047 44.1172C177.997 43.7214 178.096 43.474 178.344 43.375C178.937 43.1276 179.581 42.7812 180.273 42.3359C181.016 41.8411 181.609 41.5443 182.055 41.4453C182.302 40.8021 182.599 40.2083 182.945 39.6641C183.341 39.0703 183.737 38.526 184.133 38.0312C184.281 36.8932 184.578 35.8047 185.023 34.7656C185.469 33.7266 185.939 32.6875 186.434 31.6484C186.928 30.6094 187.398 29.5703 187.844 28.5312C188.289 27.4922 188.586 26.4036 188.734 25.2656C189.279 24.7214 189.699 24.1276 189.996 23.4844C190.342 22.8411 190.639 22.1979 190.887 21.5547C191.381 21.4062 192 21.332 192.742 21.332C193.484 21.2826 194.128 21.2578 194.672 21.2578H195.934C196.082 21.5547 196.28 21.8268 196.527 22.0742L197.269 22.8164C196.824 23.5091 196.601 24.2018 196.601 24.8945C196.601 25.4388 196.725 25.9831 196.973 26.5273C197.22 27.0221 197.492 27.4922 197.789 27.9375ZM309.492 78.6289C309.195 79.0247 308.824 79.2969 308.379 79.4453C307.933 79.5938 307.488 79.7174 307.043 79.8164C306.597 79.9154 306.127 80.0143 305.633 80.1133C305.187 80.2617 304.791 80.4844 304.445 80.7812C304.346 80.8307 304.272 80.8802 304.222 80.9297C304.222 80.9792 304.173 81.0039 304.074 81.0039C303.926 81.0039 303.777 80.8802 303.629 80.6328C303.53 80.4349 303.357 80.2865 303.109 80.1875C301.823 80.8802 300.437 81.474 298.953 81.9688C297.469 82.513 295.984 83.0573 294.5 83.6016C293.065 84.1953 291.655 84.8138 290.269 85.457C288.884 86.1497 287.672 86.9909 286.633 87.9805C285.841 88.0794 285.025 88.2526 284.183 88.5C283.392 88.7969 282.798 89.3411 282.402 90.1328H282.18C281.982 90.1328 281.833 90.0586 281.734 89.9102C281.635 89.8112 281.487 89.7617 281.289 89.7617C280.943 89.7617 280.72 89.8607 280.621 90.0586C280.522 90.2565 280.448 90.4544 280.398 90.6523C280.398 90.8997 280.374 91.1224 280.324 91.3203C280.275 91.5182 280.126 91.6172 279.879 91.6172C279.78 91.6172 279.681 91.5182 279.582 91.3203C279.483 91.1719 279.235 91.1224 278.84 91.1719C277.009 92.1615 275.104 93.151 273.125 94.1406C271.146 95.1797 269.439 96.4909 268.004 98.0742C267.905 97.9753 267.781 97.9258 267.633 97.9258C267.534 97.9258 267.459 97.9258 267.41 97.9258L267.336 98C267.237 98 267.163 97.9753 267.113 97.9258C267.064 97.8763 267.014 97.8516 266.965 97.8516C265.827 98.8411 264.614 99.7318 263.328 100.523C262.091 101.365 260.829 102.181 259.543 102.973C258.256 103.764 256.995 104.556 255.758 105.348C254.521 106.189 253.358 107.129 252.269 108.168C251.577 108.217 250.884 108.366 250.191 108.613C249.499 108.861 248.806 109.108 248.113 109.355C247.47 109.603 246.802 109.826 246.109 110.023C245.416 110.271 244.724 110.395 244.031 110.395C242.745 110.395 241.681 109.826 240.84 108.688C240.691 108.786 240.543 108.861 240.394 108.91C240.295 108.96 240.172 108.984 240.023 108.984C239.627 108.984 239.256 108.811 238.91 108.465C238.613 108.168 238.193 108.069 237.648 108.168C237.005 107.475 236.535 106.585 236.238 105.496C235.991 104.457 235.669 103.492 235.273 102.602C235.372 100.672 235.694 98.7917 236.238 96.9609C236.832 95.1797 237.203 93.3242 237.351 91.3945C237.797 90.9492 238.143 90.4297 238.39 89.8359C238.638 89.2917 238.86 88.6979 239.058 88.0547C239.306 87.4609 239.553 86.8672 239.801 86.2734C240.048 85.6797 240.394 85.1849 240.84 84.7891C241.137 83.3047 241.631 81.8945 242.324 80.5586C243.017 79.2227 243.487 77.7878 243.734 76.2539C244.13 76.0065 244.452 75.7096 244.699 75.3633C244.996 75.0169 245.318 74.6953 245.664 74.3984V73.9531C245.664 73.5573 245.565 73.2604 245.367 73.0625C245.713 72.1719 246.084 71.3307 246.48 70.5391C246.926 69.7474 247.346 68.9557 247.742 68.1641C248.138 67.3724 248.484 66.556 248.781 65.7148C249.078 64.8737 249.276 63.9583 249.375 62.9688C249.771 62.6224 250.068 62.2018 250.265 61.707C250.463 61.1628 250.637 60.6432 250.785 60.1484C250.983 59.6042 251.181 59.1094 251.379 58.6641C251.626 58.2188 252.022 57.8724 252.566 57.625C252.517 57.526 252.492 57.4023 252.492 57.2539C252.492 56.7591 252.616 56.3138 252.863 55.918C253.16 55.5221 253.308 55.1016 253.308 54.6562C253.308 54.4089 253.234 54.1615 253.086 53.9141C254.075 51.8359 255.04 49.8073 255.98 47.8281C256.92 45.7995 257.638 43.6471 258.133 41.3711C258.627 41.1237 258.924 40.7526 259.023 40.2578C259.122 39.763 259.345 39.3177 259.691 38.9219V38.5508C259.691 37.7096 259.864 36.7695 260.211 35.7305C260.607 34.6914 261.077 33.8255 261.621 33.1328C261.868 31.401 262.14 29.5951 262.437 27.7148C262.784 25.7852 263.303 24.0286 263.996 22.4453C263.897 22.099 263.749 21.7526 263.551 21.4062C263.402 21.0599 263.278 20.6888 263.18 20.293C261.943 20.9857 260.532 21.6042 258.949 22.1484C258.652 22.2474 258.331 22.3464 257.984 22.4453C257.638 22.4948 257.341 22.5938 257.094 22.7422C256.797 22.8411 256.624 23.0885 256.574 23.4844C256.525 23.8307 256.5 24.1276 256.5 24.375C255.906 24.375 255.436 24.4987 255.09 24.7461C254.743 24.9935 254.397 25.2904 254.051 25.6367C253.754 25.9336 253.432 26.2305 253.086 26.5273C252.739 26.7747 252.294 26.9479 251.75 27.0469C251.156 27.6406 250.661 28.1107 250.265 28.457C249.87 28.7539 249.301 29.0508 248.558 29.3477C248.311 29.4466 248.064 29.6445 247.816 29.9414L247.074 30.832C246.827 31.1289 246.579 31.3763 246.332 31.5742C246.134 31.7721 245.911 31.8464 245.664 31.7969C245.515 32.2422 245.293 32.6133 244.996 32.9102C244.749 33.207 244.476 33.5039 244.18 33.8008C243.883 34.0482 243.635 34.3451 243.437 34.6914C243.239 35.0378 243.165 35.4831 243.215 36.0273C243.017 36.2253 242.844 36.3242 242.695 36.3242C242.547 36.3242 242.374 36.2253 242.176 36.0273C242.077 36.6211 241.879 37.1159 241.582 37.5117C241.334 37.8581 241.038 38.1797 240.691 38.4766C240.345 38.7734 239.974 39.0703 239.578 39.3672C239.182 39.6641 238.811 39.9857 238.465 40.332C238.019 40.2826 237.624 40.1836 237.277 40.0352C236.98 39.8867 236.659 39.7383 236.312 39.5898C235.966 39.4414 235.595 39.3424 235.199 39.293C234.853 39.194 234.407 39.1693 233.863 39.2188C233.913 38.9219 233.863 38.6992 233.715 38.5508C233.566 38.4023 233.368 38.2786 233.121 38.1797C233.121 37.7839 233.121 37.2891 233.121 36.6953C233.17 36.1016 233.195 35.5078 233.195 34.9141C233.245 34.2708 233.319 33.6771 233.418 33.1328C233.517 32.5885 233.665 32.1432 233.863 31.7969C234.16 31.3021 234.63 30.8568 235.273 30.4609C235.966 30.0651 236.683 29.6693 237.426 29.2734C238.217 28.8281 238.959 28.3828 239.652 27.9375C240.394 27.4427 240.988 26.849 241.433 26.1562C241.483 26.2057 241.582 26.2305 241.73 26.2305C242.126 26.2305 242.448 26.1315 242.695 25.9336C242.943 25.4883 243.264 25.1667 243.66 24.9688C244.105 24.7708 244.501 24.474 244.847 24.0781C244.996 23.9297 245.07 23.7565 245.07 23.5586C245.12 23.3112 245.219 23.1133 245.367 22.9648C245.515 22.8164 245.788 22.668 246.183 22.5195C246.629 22.3711 246.975 22.1732 247.222 21.9258C247.519 21.6784 247.742 21.4062 247.89 21.1094C248.088 20.8125 248.311 20.5404 248.558 20.293C248.954 19.9961 249.375 19.7734 249.82 19.625C250.315 19.4766 250.785 19.2786 251.23 19.0312C251.676 18.7344 252.071 18.388 252.418 17.9922C252.814 17.5964 253.11 17.1263 253.308 16.582C254.298 16.1367 255.263 15.6914 256.203 15.2461C257.143 14.7513 258.058 14.2318 258.949 13.6875C259.444 13.3906 259.914 13.069 260.359 12.7227C260.805 12.3268 261.25 11.9557 261.695 11.6094C262.19 11.263 262.685 10.9661 263.18 10.7188C263.724 10.4714 264.293 10.3477 264.887 10.3477C265.629 10.3477 266.198 10.4961 266.594 10.793C266.989 11.0404 267.336 11.3372 267.633 11.6836C267.979 11.9805 268.325 12.3021 268.672 12.6484C269.068 12.9948 269.562 13.2422 270.156 13.3906C270.651 14.1823 270.972 15.0482 271.121 15.9883C271.319 16.8789 271.443 17.819 271.492 18.8086C271.541 19.7487 271.541 20.6888 271.492 21.6289C271.492 22.569 271.566 23.4844 271.715 24.375C271.418 25.2161 271.071 26.0326 270.676 26.8242C270.28 27.6159 270.082 28.457 270.082 29.3477C270.082 29.694 270.107 29.9909 270.156 30.2383H269.265C269.068 31.8711 268.696 33.4792 268.152 35.0625C267.608 36.5964 266.989 38.1302 266.297 39.6641L264.293 44.1914C263.65 45.6758 263.105 47.2096 262.66 48.793C262.561 49.2383 262.388 49.5104 262.14 49.6094C261.893 49.6589 261.72 49.8568 261.621 50.2031C261.374 50.7474 261.176 51.3411 261.027 51.9844C260.879 52.6276 260.681 53.2461 260.433 53.8398C259.939 55.1263 259.444 56.3633 258.949 57.5508C258.454 58.7383 257.935 59.901 257.39 61.0391V61.7812C257.39 62.0286 257.465 62.1523 257.613 62.1523C256.03 64.3294 254.966 66.8034 254.422 69.5742C254.026 69.8711 253.729 70.2422 253.531 70.6875C253.383 71.0833 253.135 71.4297 252.789 71.7266C252.443 73.1615 251.972 74.5716 251.379 75.957C250.834 77.293 250.265 78.6289 249.672 79.9648C249.078 81.3008 248.509 82.6367 247.965 83.9727C247.42 85.3581 247 86.7682 246.703 88.2031C246.159 88.6979 245.713 89.2917 245.367 89.9844C245.07 90.6771 244.798 91.4193 244.551 92.2109C244.353 93.0026 244.155 93.7943 243.957 94.5859C243.808 95.3776 243.635 96.0951 243.437 96.7383L242.695 99.4102V100.895C242.695 101.142 242.67 101.414 242.621 101.711C242.571 102.008 242.423 102.206 242.176 102.305C242.275 102.651 242.398 102.923 242.547 103.121C242.745 103.319 242.794 103.591 242.695 103.938C242.893 104.333 243.239 104.556 243.734 104.605C244.278 104.704 244.749 104.828 245.144 104.977C245.54 104.878 245.763 104.655 245.812 104.309C245.862 103.962 245.985 103.665 246.183 103.418C246.629 102.824 247.297 102.181 248.187 101.488C249.127 100.796 250.117 100.078 251.156 99.3359C252.245 98.5938 253.284 97.8763 254.273 97.1836C255.312 96.5404 256.153 95.9466 256.797 95.4023H258.133C259.914 94.2643 261.695 93.151 263.476 92.0625C265.258 91.0234 267.113 90.0833 269.043 89.2422C269.538 88.599 270.131 88.1042 270.824 87.7578C271.566 87.4115 272.308 87.0651 273.051 86.7188C273.842 86.4219 274.584 86.1003 275.277 85.7539C276.019 85.4076 276.613 84.9128 277.058 84.2695C277.603 84.1706 278.196 84.0469 278.84 83.8984C279.483 83.75 279.953 83.4036 280.25 82.8594H280.547C280.695 82.8594 280.844 82.8841 280.992 82.9336C281.14 83.0326 281.239 83.181 281.289 83.3789C281.635 83.2799 281.833 83.0573 281.883 82.7109C281.982 82.3646 282.155 82.0677 282.402 81.8203C283.837 81.276 285.297 80.707 286.781 80.1133C288.265 79.5195 289.725 78.8516 291.16 78.1094C291.853 78.1094 292.62 78.0104 293.461 77.8125C294.351 77.6146 295.019 77.1693 295.465 76.4766C295.564 76.526 295.687 76.5508 295.836 76.5508C296.38 76.5508 296.9 76.4766 297.394 76.3281C297.939 76.1302 298.483 75.9323 299.027 75.7344C299.571 75.487 300.116 75.2643 300.66 75.0664C301.204 74.8685 301.773 74.7448 302.367 74.6953H302.515C302.614 74.6953 302.639 74.5716 302.59 74.3242C302.59 74.0273 302.59 73.8542 302.59 73.8047C302.59 73.6068 302.689 73.5326 302.887 73.582C303.035 73.5326 303.282 73.5078 303.629 73.5078C304.173 73.5078 304.668 73.6315 305.113 73.8789C305.608 74.0768 306.078 74.3242 306.523 74.6211C306.969 74.918 307.414 75.2396 307.859 75.5859C308.305 75.8828 308.775 76.1055 309.269 76.2539C309.17 76.6497 309.121 76.9714 309.121 77.2188C309.121 77.4661 309.146 77.7135 309.195 77.9609C309.294 78.1589 309.393 78.3815 309.492 78.6289ZM359.814 21.7031C359.814 22.9896 359.616 24.2266 359.22 25.4141C358.874 26.6016 358.577 27.8385 358.33 29.125C356.895 30.2135 355.534 31.3516 354.248 32.5391C352.961 33.6771 351.576 34.7409 350.092 35.7305C349.3 37.1654 348.657 38.7734 348.162 40.5547C347.667 42.3359 347.172 44.0182 346.677 45.6016C346.628 45.75 346.603 45.8984 346.603 46.0469C346.603 46.2943 346.653 46.5169 346.752 46.7148C346.9 46.8633 346.974 47.0612 346.974 47.3086V47.3828L346.9 47.5312C346.702 48.2734 346.48 48.9909 346.232 49.6836C346.034 50.3763 345.861 51.069 345.713 51.7617C345.267 53.9883 344.872 56.1654 344.525 58.293C344.179 60.4206 343.709 62.5977 343.115 64.8242C343.115 64.8737 343.09 65.4674 343.041 66.6055C343.041 67.694 343.016 68.9062 342.967 70.2422C342.917 71.5781 342.868 72.8646 342.818 74.1016C342.818 75.2891 342.818 76.0065 342.818 76.2539C342.818 78.4805 343.016 80.6328 343.412 82.7109C343.857 84.7891 344.748 86.7188 346.084 88.5C345.935 88.9453 345.861 89.4154 345.861 89.9102C345.861 90.4544 345.935 90.9492 346.084 91.3945C345.836 91.7904 345.614 92.1615 345.416 92.5078C345.218 92.9036 344.995 93.25 344.748 93.5469C344.5 93.8932 344.204 94.1654 343.857 94.3633C343.511 94.5612 343.066 94.6602 342.521 94.6602C341.829 94.6602 341.062 94.487 340.22 94.1406C339.379 93.7943 338.687 93.3984 338.142 92.9531C338.192 92.7057 338.217 92.3346 338.217 91.8398C338.217 90.8008 338.068 89.737 337.771 88.6484C337.474 87.6094 337.153 86.5208 336.806 85.3828C336.51 84.2943 336.213 83.1562 335.916 81.9688C335.619 80.8307 335.47 79.6432 335.47 78.4062C335.47 78.0104 335.52 77.5898 335.619 77.1445C335.718 76.6497 335.767 76.2044 335.767 75.8086C335.767 75.5612 335.644 75.388 335.396 75.2891C335.149 75.1406 335.075 74.9427 335.174 74.6953V74.1758C335.174 73.9284 335.223 73.7305 335.322 73.582C335.47 73.4336 335.594 73.2604 335.693 73.0625C335.644 72.4193 335.619 71.8008 335.619 71.207V69.3516C335.619 65.7891 335.842 62.2513 336.287 58.7383C336.782 55.1758 337.474 51.6875 338.365 48.2734C338.217 47.9271 338.142 47.5312 338.142 47.0859C338.142 46.6406 338.217 46.1953 338.365 45.75C338.513 45.2552 338.588 44.7604 338.588 44.2656C338.588 43.9193 338.513 43.5977 338.365 43.3008C338.217 43.2018 337.944 43.1523 337.549 43.1523C336.757 43.1523 336.015 43.3503 335.322 43.7461C334.679 44.0924 334.085 44.5378 333.541 45.082C331.463 45.7747 329.409 46.5417 327.381 47.3828C325.352 48.1745 323.274 48.8424 321.146 49.3867C320.256 50.0299 319.266 50.5495 318.177 50.9453C317.089 51.2917 315.951 51.6133 314.763 51.9102C313.625 52.1576 312.463 52.4049 311.275 52.6523C310.137 52.8997 309.049 53.2214 308.01 53.6172C307.366 53.5677 306.748 53.5677 306.154 53.6172C305.56 53.6667 304.917 53.6914 304.224 53.6914C303.433 53.6914 302.641 53.5924 301.849 53.3945C301.849 53.3451 301.8 53.3203 301.701 53.3203C301.355 53.3203 301.132 53.4688 301.033 53.7656C300.983 54.013 300.81 54.1367 300.513 54.1367C300.217 54.1367 299.92 54.0872 299.623 53.9883C299.375 53.8398 299.079 53.7656 298.732 53.7656C298.435 53.7656 298.114 53.8151 297.767 53.9141C297.47 53.9635 297.174 54.0378 296.877 54.1367C295.838 53.7409 294.823 53.3698 293.834 53.0234C292.894 52.6771 291.855 52.4544 290.717 52.3555C290.321 51.9596 289.974 51.4896 289.677 50.9453C289.43 50.401 288.985 50.0547 288.342 49.9062C288.193 49.4609 288.069 49.0156 287.97 48.5703C287.872 48.0755 287.822 47.6055 287.822 47.1602C287.822 46.0716 287.946 45.1315 288.193 44.3398C288.49 43.5482 288.886 42.806 289.381 42.1133C289.925 41.3711 290.543 40.6536 291.236 39.9609C291.978 39.2682 292.795 38.5013 293.685 37.6602C294.823 37.1159 295.813 36.4232 296.654 35.582C297.495 34.6914 298.46 33.974 299.549 33.4297C300.241 32.5885 301.008 31.8711 301.849 31.2773C302.74 30.6341 303.631 30.0404 304.521 29.4961C305.461 28.9023 306.352 28.3086 307.193 27.7148C308.084 27.1211 308.9 26.4284 309.642 25.6367C310.434 25.4883 311.176 25.2409 311.869 24.8945C312.611 24.4987 313.329 24.1029 314.021 23.707C314.714 23.2617 315.407 22.8659 316.099 22.5195C316.842 22.1237 317.633 21.8516 318.474 21.7031C318.722 21.4557 318.969 21.1589 319.217 20.8125C319.513 20.4167 319.786 20.1693 320.033 20.0703C320.726 19.6745 321.468 19.3529 322.26 19.1055C323.101 18.8581 323.917 18.5612 324.709 18.2148C326.193 17.5716 327.628 16.9779 329.013 16.4336C330.448 15.8398 331.858 15.3451 333.244 14.9492C334.679 14.5039 336.138 14.1576 337.623 13.9102C339.107 13.6133 340.691 13.4401 342.373 13.3906C342.422 13.5391 342.521 13.638 342.67 13.6875C342.868 13.6875 343.016 13.6875 343.115 13.6875C343.857 14.2812 344.599 14.875 345.342 15.4688C346.084 16.013 346.875 16.4831 347.717 16.8789C348.756 16.7799 349.597 16.5573 350.24 16.2109C350.883 15.8151 351.625 15.4193 352.467 15.0234C353.901 15.4688 355.237 16.0625 356.474 16.8047C357.761 17.5469 358.825 18.5365 359.666 19.7734C359.715 20.0703 359.74 20.3919 359.74 20.7383C359.789 21.0352 359.814 21.3568 359.814 21.7031ZM343.115 26.6758C342.274 26.181 341.507 25.7109 340.814 25.2656C340.171 24.8203 339.849 24.0039 339.849 22.8164C339.849 22.3216 339.874 21.9505 339.924 21.7031C339.429 21.7031 339.033 21.5794 338.736 21.332C338.489 21.0352 338.118 20.8867 337.623 20.8867H337.326C336.336 21.431 335.322 21.8516 334.283 22.1484L331.166 23.0391C330.127 23.3359 329.088 23.6576 328.049 24.0039C327.01 24.3503 326.02 24.8203 325.08 25.4141H322.408C321.765 26.3047 320.998 27.0469 320.107 27.6406C319.266 28.1849 318.351 28.6797 317.361 29.125C316.421 29.5208 315.481 29.9414 314.541 30.3867C313.601 30.832 312.76 31.3763 312.017 32.0195C311.77 32.2174 311.523 32.5638 311.275 33.0586C311.028 33.5039 310.78 33.7266 310.533 33.7266C310.434 33.7266 310.31 33.7266 310.162 33.7266C310.063 33.6771 309.964 33.6523 309.865 33.6523H309.642C309.296 33.8997 308.974 34.1966 308.677 34.543C308.381 34.8398 308.084 35.1367 307.787 35.4336C307.49 35.7305 307.168 36.0026 306.822 36.25C306.476 36.4479 306.08 36.5716 305.635 36.6211C304.793 37.4622 303.977 38.2292 303.185 38.9219C302.443 39.5651 301.577 40.3815 300.588 41.3711C300.489 41.9154 300.266 42.3854 299.92 42.7812C299.623 43.1771 299.301 43.5729 298.955 43.9688C298.608 44.3151 298.287 44.6862 297.99 45.082C297.743 45.4779 297.619 45.8984 297.619 46.3438V46.7148C298.163 46.8633 298.707 47.0612 299.252 47.3086C299.796 47.556 300.316 47.8034 300.81 48.0508C301.206 48.0508 301.627 48.0755 302.072 48.125C302.517 48.125 302.938 48.125 303.334 48.125C305.709 48.125 308.01 47.8529 310.236 47.3086C312.463 46.7643 314.64 46.1211 316.767 45.3789C318.944 44.5872 321.097 43.7708 323.224 42.9297C325.401 42.0885 327.603 41.3958 329.83 40.8516H330.127C330.325 40.8516 330.498 40.901 330.646 41C330.795 41.099 330.968 41.1484 331.166 41.1484C331.314 41.1484 331.413 41.1237 331.463 41.0742C332.106 40.0352 333.021 39.2435 334.209 38.6992C335.446 38.1549 336.633 37.5859 337.771 36.9922C338.959 36.3984 339.924 35.6562 340.666 34.7656C341.457 33.875 341.754 32.6133 341.556 30.9805C342.051 30.3867 342.398 29.7188 342.595 28.9766C342.843 28.2344 343.016 27.4674 343.115 26.6758ZM442.349 56.957C441.854 57.0065 441.409 57.1302 441.013 57.3281C440.667 57.526 440.296 57.6745 439.9 57.7734C439.95 57.8229 439.974 57.8971 439.974 57.9961C439.974 58.293 439.9 58.5156 439.752 58.6641C439.603 58.763 439.578 59.0104 439.677 59.4062C438.935 59.8021 438.168 60.099 437.377 60.2969C436.585 60.4948 435.769 60.668 434.927 60.8164C434.136 60.9648 433.344 61.138 432.552 61.3359C431.761 61.5339 431.019 61.8555 430.326 62.3008V61.4844C429.732 61.8307 429.163 62.0039 428.619 62.0039C428.124 62.0039 427.654 61.9297 427.209 61.7812C426.763 61.5833 426.269 61.4844 425.724 61.4844C425.477 61.4844 425.155 61.5833 424.759 61.7812C424.265 61.7318 423.869 61.6081 423.572 61.4102C423.325 61.1628 423.003 60.9154 422.607 60.668C422.36 61.1628 421.989 61.4844 421.494 61.6328C421.048 61.7318 420.628 61.7812 420.232 61.7812C419.688 61.7812 419.168 61.7565 418.673 61.707C418.228 61.6576 417.783 61.5833 417.338 61.4844C416.546 61.7318 415.804 61.8802 415.111 61.9297C414.418 61.9297 413.676 61.9297 412.884 61.9297C412.192 61.9297 411.524 61.9792 410.881 62.0781C410.287 62.1276 409.668 62.3008 409.025 62.5977C408.827 62.1029 408.407 61.8555 407.763 61.8555C407.466 61.8555 407.145 61.8802 406.798 61.9297C406.502 61.9297 406.205 61.9297 405.908 61.9297C405.413 61.9297 405.042 61.7812 404.795 61.4844C404.597 61.5833 404.498 61.7565 404.498 62.0039C404.547 62.2513 404.547 62.4492 404.498 62.5977C403.756 62.3008 402.964 62.1523 402.123 62.1523C401.43 62.1523 400.762 62.2266 400.119 62.375C399.476 62.5234 398.832 62.5977 398.189 62.5977C397.843 62.5977 397.496 62.5482 397.15 62.4492C396.804 62.3503 396.507 62.3008 396.259 62.3008C395.963 62.3008 395.74 62.375 395.591 62.5234C395.443 62.6224 395.295 62.7461 395.146 62.8945C395.047 62.9935 394.899 63.1172 394.701 63.2656C394.552 63.3646 394.33 63.4141 394.033 63.4141C393.489 63.4141 393.118 63.2656 392.92 62.9688C392.722 62.6224 392.425 62.3997 392.029 62.3008C392.029 61.806 391.955 61.3607 391.806 60.9648C391.658 60.569 391.485 60.1732 391.287 59.7773C391.089 59.332 390.916 58.9115 390.767 58.5156C390.619 58.1198 390.545 57.6745 390.545 57.1797C390.545 57.0312 390.545 56.8828 390.545 56.7344C390.594 56.5365 390.619 56.3633 390.619 56.2148C391.312 55.2253 392.301 54.5326 393.588 54.1367C394.923 53.6914 396.136 53.4688 397.224 53.4688C397.769 53.4688 398.164 53.5677 398.412 53.7656C398.709 53.9635 399.055 54.2357 399.451 54.582C402.914 54.1862 406.378 53.9141 409.841 53.7656C413.354 53.6172 416.843 53.444 420.306 53.2461C421.444 53.1471 422.582 53.0729 423.72 53.0234C424.858 52.9245 425.996 52.8255 427.134 52.7266C427.283 52.7266 427.382 52.6771 427.431 52.5781C427.481 52.4297 427.506 52.2812 427.506 52.1328C427.555 51.9844 427.604 51.8607 427.654 51.7617C427.753 51.6628 427.901 51.6133 428.099 51.6133C428.644 51.6133 429.015 51.7865 429.213 52.1328C429.41 52.4297 429.707 52.6276 430.103 52.7266C430.45 52.5286 430.845 52.3802 431.291 52.2812C431.785 52.1823 432.256 52.1081 432.701 52.0586C433.146 51.9596 433.567 51.8607 433.963 51.7617C434.408 51.6133 434.779 51.3906 435.076 51.0938C435.472 51.0443 435.694 51.1432 435.744 51.3906C435.793 51.5885 435.942 51.737 436.189 51.8359C436.437 51.7865 436.709 51.737 437.006 51.6875C437.302 51.5885 437.575 51.5391 437.822 51.5391H438.341C438.539 51.5391 438.713 51.5638 438.861 51.6133C439.306 52.6029 439.875 53.4935 440.568 54.2852C441.31 55.0768 441.904 55.9674 442.349 56.957ZM540.99 96.6641C540.841 97.5052 540.495 98.099 539.951 98.4453C539.456 98.8411 538.986 99.3854 538.541 100.078H538.244C537.749 100.078 537.254 100.128 536.759 100.227C536.314 100.326 535.844 100.449 535.349 100.598C535.102 100.499 534.805 100.424 534.459 100.375C534.112 100.326 533.89 100.152 533.791 99.8555C533.395 100.053 532.85 100.152 532.158 100.152C531.02 100.152 529.931 99.8307 528.892 99.1875C527.903 98.5443 526.864 98.0495 525.775 97.7031C525.478 97.1094 525.107 96.5651 524.662 96.0703C524.266 95.625 523.845 95.1797 523.4 94.7344C523.004 94.2891 522.608 93.819 522.212 93.3242C521.817 92.8294 521.495 92.2357 521.248 91.543C521.149 91.2461 521.025 91.0729 520.877 91.0234C520.728 90.974 520.505 90.974 520.209 91.0234C520.258 90.4792 520.184 90.0091 519.986 89.6133C519.837 89.2174 519.466 88.9701 518.873 88.8711C518.873 88.2279 518.774 87.6836 518.576 87.2383C518.378 86.793 518.13 86.3971 517.834 86.0508C517.586 85.7539 517.289 85.4323 516.943 85.0859C516.646 84.7396 516.399 84.319 516.201 83.8242C515.755 83.7253 515.31 83.651 514.865 83.6016C514.469 83.6016 514.024 83.6016 513.529 83.6016C511.154 83.6016 508.853 84.0469 506.627 84.9375C506.379 85.0365 506.107 85.1602 505.81 85.3086C505.563 85.457 505.315 85.5807 505.068 85.6797C504.969 85.6797 504.87 85.6797 504.771 85.6797C504.722 85.7292 504.647 85.7539 504.548 85.7539C504.202 85.7539 503.88 85.6797 503.584 85.5312C503.287 85.4323 502.965 85.3828 502.619 85.3828C502.47 85.3828 502.297 85.4076 502.099 85.457C501.951 85.556 501.802 85.6302 501.654 85.6797C500.912 85.9271 500.219 86.0755 499.576 86.125C497.547 86.5208 495.395 86.8177 493.119 87.0156C490.892 87.2135 488.839 87.7331 486.959 88.5742C486.563 88.7721 486.315 89.069 486.216 89.4648C486.117 89.9102 486.093 90.3307 486.142 90.7266C485.598 91.1224 485.177 91.6419 484.88 92.2852C484.633 92.9284 484.386 93.5964 484.138 94.2891C483.94 95.0312 483.718 95.7487 483.47 96.4414C483.223 97.1341 482.877 97.7279 482.431 98.2227C482.58 98.5195 482.654 98.8411 482.654 99.1875C482.654 99.9297 482.406 100.672 481.912 101.414C481.417 102.156 481.046 102.874 480.798 103.566C480.551 104.259 480.353 104.927 480.205 105.57C480.056 106.263 479.834 106.882 479.537 107.426C479.24 107.97 478.844 108.415 478.349 108.762C477.805 109.108 477.063 109.281 476.123 109.281C475.232 109.281 474.465 109.108 473.822 108.762C473.179 108.415 472.659 107.97 472.263 107.426C471.867 106.882 471.546 106.238 471.298 105.496C471.051 104.754 470.853 104.012 470.705 103.27C471.249 102.181 471.768 101.241 472.263 100.449C472.758 99.6576 473.129 98.6432 473.377 97.4062C474.267 96.763 474.935 95.9714 475.38 95.0312C475.776 94.1406 475.999 93.151 476.048 92.0625C476.593 91.7161 476.989 91.2461 477.236 90.6523C477.434 90.1081 477.558 89.5143 477.607 88.8711C476.419 88.7721 475.183 88.6732 473.896 88.5742C472.56 88.4753 471.323 88.2279 470.185 87.832C470.185 87.7331 470.21 87.6341 470.259 87.5352C470.259 87.4362 470.259 87.3372 470.259 87.2383C470.259 86.5951 470.111 86.0013 469.814 85.457C469.517 84.9622 469.369 84.418 469.369 83.8242V83.2305C469.765 82.8346 470.136 82.4141 470.482 81.9688C470.779 81.5729 471.1 81.2018 471.447 80.8555C471.793 80.5091 472.189 80.2122 472.634 79.9648C473.08 79.7669 473.649 79.668 474.341 79.668C475.281 79.668 476.197 79.7174 477.087 79.8164C477.978 79.9648 478.893 80.0391 479.834 80.0391C480.477 80.0391 481.145 79.9648 481.837 79.8164C482.926 77.5898 483.891 75.3385 484.732 73.0625C485.573 70.737 486.216 68.3867 486.662 66.0117C487.008 65.5169 487.33 64.9479 487.627 64.3047C487.923 63.612 488.146 62.8945 488.294 62.1523C488.492 61.4102 488.616 60.6927 488.666 60C488.765 59.2578 488.814 58.5898 488.814 57.9961C489.358 57.3529 489.729 56.5612 489.927 55.6211C490.175 54.681 490.373 53.7161 490.521 52.7266C490.669 51.6875 490.818 50.6732 490.966 49.6836C491.164 48.694 491.511 47.8281 492.005 47.0859V46.418C492.055 45.6758 491.981 45.0078 491.783 44.4141C492.03 44.3151 492.179 44.0924 492.228 43.7461C492.278 43.3997 492.377 43.1029 492.525 42.8555C492.574 40.5794 492.822 38.3529 493.267 36.1758C493.712 33.9492 494.084 31.7227 494.38 29.4961V29.2734C494.38 29.026 494.281 28.9023 494.084 28.9023C493.935 28.8529 493.861 28.7044 493.861 28.457C493.861 28.0117 493.91 27.418 494.009 26.6758C494.158 25.9336 494.257 25.3151 494.306 24.8203C494.603 22.1484 494.752 19.5013 494.752 16.8789C494.752 14.6523 494.677 12.4505 494.529 10.2734C494.38 8.09635 494.232 5.89453 494.084 3.66797L494.677 2.77734C494.875 2.48047 495.048 2.18359 495.197 1.88672C495.692 1.6888 496.087 1.49089 496.384 1.29297C496.731 1.04557 497.176 0.921875 497.72 0.921875C497.869 0.921875 497.992 0.946615 498.091 0.996094C498.19 0.996094 498.289 0.996094 498.388 0.996094C498.685 1.19401 498.908 1.46615 499.056 1.8125C499.254 2.15885 499.427 2.48047 499.576 2.77734C499.774 3.07422 500.021 3.32161 500.318 3.51953C500.615 3.71745 501.035 3.76693 501.58 3.66797C501.827 5.05339 502.52 5.77083 503.658 5.82031C503.905 6.51302 504.202 7.20573 504.548 7.89844C504.944 8.59115 505.464 9.13542 506.107 9.53125C506.058 9.72917 506.033 10.0013 506.033 10.3477C506.033 11.0404 506.181 11.7083 506.478 12.3516C506.824 12.9948 507.245 13.5885 507.74 14.1328V14.2812C507.74 14.8255 507.542 15.1966 507.146 15.3945C507.591 15.8893 507.913 16.4831 508.111 17.1758C508.309 17.8685 508.482 18.5859 508.63 19.3281C508.779 20.0208 508.952 20.6888 509.15 21.332C509.397 21.9753 509.793 22.4701 510.337 22.8164V23.0391C510.337 23.2865 510.239 23.4349 510.041 23.4844C509.892 23.5339 509.818 23.6823 509.818 23.9297C510.709 25.5625 511.327 27.3438 511.673 29.2734C512.02 31.2031 512.465 33.0586 513.009 34.8398C513.207 35.0378 513.43 35.1615 513.677 35.2109C513.974 35.2604 514.197 35.3841 514.345 35.582C514.048 35.7799 513.9 36.1263 513.9 36.6211C513.9 37.1159 513.776 37.487 513.529 37.7344C513.925 38.0807 514.098 38.6003 514.048 39.293C514.048 39.9362 514.246 40.4062 514.642 40.7031V41C514.642 41.1979 514.593 41.3711 514.494 41.5195C514.395 41.6185 514.345 41.7669 514.345 41.9648V42.2617C514.741 43.9935 515.038 45.7253 515.236 47.457C515.483 49.1888 515.731 50.9206 515.978 52.6523C516.225 54.3841 516.498 56.1159 516.794 57.8477C517.091 59.5299 517.512 61.1875 518.056 62.8203C518.106 62.8698 518.13 62.944 518.13 63.043C518.13 63.2904 518.031 63.4388 517.834 63.4883C517.636 63.4883 517.537 63.612 517.537 63.8594C517.537 64.1068 517.611 64.4036 517.759 64.75C517.957 65.0469 518.155 65.2943 518.353 65.4922C518.304 65.6901 518.279 65.987 518.279 66.3828C518.279 67.125 518.403 67.8424 518.65 68.5352C518.947 69.2279 519.244 69.9206 519.541 70.6133C519.887 71.2565 520.184 71.9492 520.431 72.6914C520.679 73.4336 520.778 74.2253 520.728 75.0664C521.025 75.5117 521.396 75.8828 521.841 76.1797C522.336 76.4766 522.831 76.7487 523.326 76.9961C523.821 77.2435 524.266 77.5404 524.662 77.8867C525.107 78.2331 525.404 78.7031 525.552 79.2969C525.156 79.6432 524.884 80.0638 524.736 80.5586C524.587 81.1029 524.315 81.5729 523.919 81.9688C524.266 82.8099 524.662 83.5768 525.107 84.2695C525.602 85.0117 526.097 85.7292 526.591 86.4219L528.15 88.5C528.694 89.1927 529.164 89.9349 529.56 90.7266C530.104 90.7266 530.5 90.875 530.748 91.1719C530.995 91.4688 531.391 91.5924 531.935 91.543C532.133 91.9388 532.207 92.3841 532.158 92.8789C533.147 92.5326 534.137 92.3594 535.127 92.3594C535.671 92.3594 536.166 92.3841 536.611 92.4336C537.106 92.4831 537.6 92.5078 538.095 92.5078C538.689 92.5078 539.209 92.4336 539.654 92.2852C539.852 92.582 540 92.9036 540.099 93.25C540.198 93.6458 540.272 94.0417 540.322 94.4375L540.544 95.625C540.643 96.0208 540.792 96.3672 540.99 96.6641ZM513.009 76.1055C512.317 72.6914 511.599 69.3021 510.857 65.9375C510.164 62.5234 509.546 59.0846 509.002 55.6211C508.705 53.7904 508.482 51.9596 508.334 50.1289C508.185 48.2982 507.987 46.4922 507.74 44.7109C507.542 42.8802 507.245 41.0742 506.849 39.293C506.503 37.5117 505.983 35.7552 505.291 34.0234V33.875C505.291 33.7266 505.34 33.6029 505.439 33.5039C505.538 33.4049 505.587 33.2318 505.587 32.9844V32.6875C504.944 32.2422 504.499 31.6237 504.252 30.832C504.004 29.9909 503.781 29.125 503.584 28.2344C503.435 27.2943 503.212 26.4036 502.916 25.5625C502.668 24.6719 502.223 23.9297 501.58 23.3359C501.332 26.2057 501.06 29.0755 500.763 31.9453C500.516 34.7656 500.343 37.6107 500.244 40.4805C499.749 40.7773 499.427 41.2721 499.279 41.9648C499.13 42.6576 499.056 43.276 499.056 43.8203C499.056 44.2161 499.081 44.6367 499.13 45.082C499.18 45.4779 499.279 45.8984 499.427 46.3438C498.537 48.5703 497.893 50.8711 497.498 53.2461C497.102 55.5716 496.656 57.8971 496.162 60.2227C496.112 60.3711 496.013 60.7174 495.865 61.2617C495.766 61.7565 495.642 62.276 495.494 62.8203C495.345 63.3646 495.222 63.8594 495.123 64.3047C495.024 64.7005 494.974 64.9232 494.974 64.9727C494.925 65.319 494.9 65.6654 494.9 66.0117C494.949 66.3581 494.974 66.7044 494.974 67.0508L493.861 68.1641C493.663 70.0443 493.292 71.875 492.748 73.6562C492.253 75.388 491.733 77.1693 491.189 79C491.535 79.0495 491.857 79.0742 492.154 79.0742C492.5 79.1237 492.847 79.1484 493.193 79.1484C494.776 79.1484 496.36 79.0495 497.943 78.8516C499.576 78.6042 501.184 78.3815 502.767 78.1836C503.311 78.0846 503.88 78.0104 504.474 77.9609C505.068 77.862 505.637 77.8125 506.181 77.8125C506.429 77.763 506.725 77.763 507.072 77.8125C507.418 77.8125 507.715 77.7878 507.962 77.7383C508.358 77.6393 508.606 77.4909 508.705 77.293C508.853 77.0456 509.125 76.8971 509.521 76.8477C509.818 76.9961 510.164 77.0703 510.56 77.0703C511.005 77.0703 511.426 76.9714 511.822 76.7734C512.218 76.5755 512.614 76.3529 513.009 76.1055ZM576.765 66.9766C576.567 67.7188 576.246 68.3372 575.8 68.832C575.355 69.3268 574.835 69.7721 574.242 70.168C573.697 70.5638 573.104 70.9349 572.46 71.2812C571.817 71.5781 571.199 71.9245 570.605 72.3203H569.64C567.562 72.3203 565.954 71.8255 564.816 70.8359C563.727 69.7969 562.886 68.5352 562.292 67.0508C561.699 65.5169 561.253 63.8841 560.957 62.1523C560.709 60.4206 560.388 58.8372 559.992 57.4023C559.398 57.8971 558.903 58.4909 558.507 59.1836C558.111 59.8268 557.691 60.4701 557.246 61.1133C556.85 61.7565 556.38 62.3503 555.835 62.8945C555.341 63.4388 554.673 63.8099 553.832 64.0078C553.683 64.3542 553.51 64.7005 553.312 65.0469C553.164 65.3932 553.065 65.7643 553.015 66.1602C551.927 66.7539 550.937 67.4466 550.046 68.2383C549.156 69.0299 548.265 69.8464 547.375 70.6875C546.484 71.5286 545.569 72.3451 544.628 73.1367C543.738 73.8789 542.723 74.4974 541.585 74.9922C541.536 74.9427 541.437 74.918 541.289 74.918C540.695 74.918 540.151 75.0664 539.656 75.3633C539.161 75.6107 538.617 75.7344 538.023 75.7344C537.627 75.7344 537.256 75.6602 536.91 75.5117C536.613 75.3633 536.291 75.1901 535.945 74.9922C535.648 74.7943 535.326 74.6458 534.98 74.5469C534.634 74.4479 534.263 74.4232 533.867 74.4727C533.372 73.582 532.704 72.7656 531.863 72.0234C531.071 71.2318 530.576 70.3411 530.378 69.3516C530.279 68.9062 530.205 68.4609 530.156 68.0156C530.156 67.5208 530.106 67.026 530.007 66.5312C529.859 65.7891 529.661 65.0469 529.414 64.3047C529.166 63.513 528.968 62.7214 528.82 61.9297C529.067 60.5938 529.315 59.1341 529.562 57.5508C529.76 55.918 530.007 54.3099 530.304 52.7266C530.651 51.0938 531.096 49.5599 531.64 48.125C532.234 46.6406 532.976 45.3789 533.867 44.3398L533.792 43.8203C533.792 43.0286 533.941 42.2865 534.238 41.5938C534.535 40.901 534.856 40.2331 535.203 39.5898C535.549 38.9466 535.846 38.3034 536.093 37.6602C536.341 37.0169 536.39 36.2995 536.242 35.5078C536.835 35.2109 537.454 34.9635 538.097 34.7656C538.74 34.5677 539.408 34.4688 540.101 34.4688C540.744 34.4688 541.338 34.5677 541.882 34.7656C541.783 35.1615 541.957 35.4089 542.402 35.5078V35.7305C542.402 36.7695 542.278 37.7839 542.031 38.7734C541.783 39.763 541.486 40.7526 541.14 41.7422C540.794 42.6823 540.447 43.6471 540.101 44.6367C539.804 45.5768 539.582 46.5417 539.433 47.5312C539.235 47.5807 539.087 47.6797 538.988 47.8281C538.938 47.9766 538.889 48.125 538.839 48.2734C538.79 48.4219 538.716 48.5456 538.617 48.6445C538.518 48.7435 538.369 48.793 538.171 48.793C537.875 50.5247 537.553 52.2565 537.207 53.9883C536.91 55.6706 536.761 57.3776 536.761 59.1094C536.761 60.1484 536.86 61.2122 537.058 62.3008C537.256 63.3893 537.627 64.4284 538.171 65.418L538.468 65.3438C539.013 65.3438 539.433 65.4674 539.73 65.7148C540.076 65.9622 540.522 66.2096 541.066 66.457C541.462 66.3581 541.833 66.2344 542.179 66.0859C542.526 65.888 542.674 65.5664 542.625 65.1211C543.268 65.0716 543.812 64.9232 544.257 64.6758C544.703 64.3789 545.098 64.0573 545.445 63.7109L546.558 62.6719C546.954 62.3255 547.424 62.0781 547.968 61.9297C547.968 61.6328 548.042 61.4102 548.191 61.2617L548.636 60.8164C548.785 60.668 548.884 60.5195 548.933 60.3711C549.032 60.1732 549.057 59.901 549.007 59.5547C549.601 59.5052 550.046 59.3568 550.343 59.1094C550.69 58.862 550.986 58.5898 551.234 58.293C551.531 57.9466 551.803 57.6003 552.05 57.2539C552.298 56.9076 552.619 56.6107 553.015 56.3633C553.361 55.6211 553.832 54.6315 554.425 53.3945C555.069 52.1576 555.687 50.8711 556.281 49.5352C556.924 48.1992 557.468 46.9375 557.914 45.75C558.408 44.513 558.656 43.5729 558.656 42.9297C558.656 42.6823 558.582 42.4596 558.433 42.2617C558.334 42.0638 558.309 41.8411 558.359 41.5938V41.3711C558.755 40.8763 559.101 40.332 559.398 39.7383C559.744 39.1445 560.091 38.5755 560.437 38.0312C560.833 37.487 561.253 36.9922 561.699 36.5469C562.144 36.1016 562.713 35.7552 563.406 35.5078C564.197 35.7552 564.989 35.9284 565.781 36.0273C566.622 36.1263 567.414 36.3242 568.156 36.6211C568.205 37.8581 568.329 39.293 568.527 40.9258C568.725 42.5586 569.071 43.944 569.566 45.082C569.566 45.7253 569.541 46.3438 569.492 46.9375C569.492 47.5312 569.492 48.125 569.492 48.7188C569.492 49.7083 569.516 50.7227 569.566 51.7617C569.665 52.8008 569.838 53.7656 570.085 54.6562C569.739 55.3984 569.566 56.1901 569.566 57.0312C569.566 58.1693 569.739 59.2578 570.085 60.2969C570.432 61.2865 570.679 62.3503 570.828 63.4883C571.471 64.3789 572.312 64.8242 573.351 64.8242C573.598 64.8242 573.796 64.7995 573.945 64.75C574.143 64.7005 574.341 64.6263 574.539 64.5273C574.934 64.9727 575.281 65.418 575.578 65.8633C575.924 66.2591 576.32 66.6302 576.765 66.9766ZM656.923 37.957C656.775 38.4023 656.478 38.724 656.033 38.9219C655.637 39.0703 655.216 39.194 654.771 39.293C654.326 39.3919 653.905 39.5651 653.509 39.8125C653.163 40.0104 652.94 40.3568 652.841 40.8516L652.693 40.9258C652.495 40.9258 652.346 40.8763 652.247 40.7773C652.198 40.6289 652.149 40.5052 652.099 40.4062C652.05 40.2578 651.975 40.1341 651.876 40.0352C651.827 39.8867 651.728 39.8125 651.58 39.8125C651.035 39.8125 650.491 39.862 649.947 39.9609C649.452 40.0599 648.957 40.1094 648.462 40.1094C647.72 40.1094 647.052 40.0104 646.458 39.8125C646.112 39.9115 645.914 40.1341 645.865 40.4805C645.865 40.8268 645.716 41.0495 645.419 41.1484C645.172 41.2474 644.875 41.2969 644.529 41.2969C644.182 41.2474 643.836 41.2721 643.49 41.3711L641.115 41.9648C640.323 42.1628 639.531 42.2617 638.74 42.2617C638.294 42.2617 637.973 42.237 637.775 42.1875C637.033 42.7812 636.192 43.2266 635.251 43.5234C634.311 43.7708 633.322 44.0182 632.283 44.2656C631.293 44.4635 630.303 44.7357 629.314 45.082C628.374 45.4284 627.533 45.9727 626.79 46.7148C626.395 46.6159 626.048 46.5664 625.751 46.5664C625.108 46.5664 624.539 46.7148 624.044 47.0117C623.55 47.2591 623.03 47.5065 622.486 47.7539C622.238 47.8529 621.991 47.9023 621.744 47.9023C621.496 47.9023 621.224 47.9518 620.927 48.0508C620.63 48.1497 620.432 48.3229 620.333 48.5703C620.284 48.7682 620.136 48.9661 619.888 49.1641C619.888 50.9453 620.061 52.7266 620.408 54.5078C620.754 56.2396 620.927 57.9961 620.927 59.7773V60.0742C621.026 60.9154 621.298 61.707 621.744 62.4492C622.189 63.1419 622.412 63.8594 622.412 64.6016C622.412 64.849 622.362 65.1211 622.263 65.418C623.55 65.7148 624.391 66.3828 624.787 67.4219C625.232 68.4115 625.578 69.5 625.826 70.6875C626.122 71.8255 626.494 72.8893 626.939 73.8789C627.434 74.8685 628.374 75.487 629.759 75.7344C629.858 76.2292 629.932 76.7487 629.982 77.293C630.031 77.7878 630.056 78.2826 630.056 78.7773C630.056 79.4701 629.982 80.138 629.833 80.7812C629.685 81.474 629.388 82.0924 628.943 82.6367C628.201 82.6862 627.656 82.7109 627.31 82.7109C626.964 82.7109 626.444 82.8594 625.751 83.1562C624.762 82.5625 623.871 81.8698 623.08 81.0781C622.337 80.3359 621.62 79.5443 620.927 78.7031C620.284 77.8125 619.641 76.9219 618.997 76.0312C618.354 75.0911 617.662 74.2005 616.919 73.3594C614.346 74.0026 611.699 74.4479 608.978 74.6953C606.306 74.8932 603.634 74.9922 600.962 74.9922C600.863 75.0911 600.715 75.1406 600.517 75.1406C600.319 75.1406 600.121 75.1654 599.923 75.2148C599.775 75.2148 599.626 75.2643 599.478 75.3633C599.379 75.4128 599.354 75.5365 599.404 75.7344C599.057 75.5365 598.662 75.4128 598.216 75.3633C597.82 75.2643 597.449 75.2148 597.103 75.2148C596.856 75.2148 596.608 75.2396 596.361 75.2891C596.113 75.2891 595.866 75.3633 595.619 75.5117C593.738 75.1654 591.908 74.6953 590.126 74.1016C588.395 73.4583 586.613 72.9388 584.783 72.543C584.783 72.1471 584.684 71.875 584.486 71.7266C584.288 71.5286 584.115 71.2565 583.966 70.9102C581.888 69.6237 580.132 68.0651 578.697 66.2344C577.311 64.4036 576.742 62.1771 576.99 59.5547L576.47 58.5156C576.47 57.724 576.643 57.1549 576.99 56.8086C576.792 56.4622 576.445 56.1159 575.951 55.7695C576.396 55.0768 576.792 54.3594 577.138 53.6172C577.484 52.875 577.732 52.0833 577.88 51.2422C577.93 50.9948 577.955 50.7721 577.955 50.5742C577.955 50.3763 578.004 50.1536 578.103 49.9062C578.202 49.6094 578.35 49.2878 578.548 48.9414C578.697 48.5456 578.845 48.1992 578.994 47.9023C579.785 46.2201 580.651 44.612 581.591 43.0781C582.581 41.4948 583.818 40.1341 585.302 38.9961C585.401 38.1549 585.649 37.4622 586.044 36.918C586.44 36.3242 586.861 35.8047 587.306 35.3594C587.801 34.8646 588.271 34.3698 588.716 33.875C589.211 33.3802 589.582 32.7865 589.83 32.0938C590.819 31.2526 591.809 30.4362 592.798 29.6445C593.837 28.8529 594.703 27.9128 595.396 26.8242C596.287 26.5273 597.128 26.1562 597.919 25.7109C598.711 25.2161 599.379 24.5977 599.923 23.8555C601.111 23.7565 602.274 23.5339 603.412 23.1875C604.599 22.8411 605.836 22.668 607.122 22.668C607.667 22.668 608.31 22.7917 609.052 23.0391C609.844 23.237 610.438 23.6081 610.833 24.1523C610.883 24.2513 610.908 24.375 610.908 24.5234L610.982 24.8945C611.031 24.9935 611.081 25.0924 611.13 25.1914C611.229 25.2409 611.378 25.2409 611.576 25.1914C611.576 26.2799 611.452 27.3932 611.205 28.5312C610.957 29.6198 610.314 30.4609 609.275 31.0547C608.632 30.8568 607.939 30.7578 607.197 30.7578C606.207 30.7578 605.292 30.9557 604.451 31.3516C603.659 31.6979 602.867 32.1185 602.076 32.6133C601.333 33.0586 600.567 33.5286 599.775 34.0234C598.983 34.4688 598.142 34.7904 597.251 34.9883C597.152 35.3841 597.053 35.7552 596.955 36.1016C596.905 36.3984 596.93 36.7448 597.029 37.1406C596.781 37.1406 596.583 37.1159 596.435 37.0664C596.336 36.9674 596.163 36.918 595.915 36.918C595.569 36.918 595.322 37.1159 595.173 37.5117C595.074 37.9076 594.975 38.2292 594.876 38.4766C593.936 38.8724 593.145 39.4414 592.501 40.1836C591.908 40.8763 591.339 41.6432 590.794 42.4844C590.3 43.276 589.755 44.043 589.162 44.7852C588.568 45.5273 587.826 46.0964 586.935 46.4922C586.539 48.0755 586.143 49.6341 585.747 51.168C585.401 52.7018 584.981 54.2357 584.486 55.7695C584.634 56.3633 584.708 56.9818 584.708 57.625C584.708 58.4167 584.634 59.1341 584.486 59.7773C584.733 60.1732 584.981 60.6432 585.228 61.1875L586.119 62.8945C586.415 63.4883 586.712 64.0326 587.009 64.5273C587.356 65.0221 587.677 65.3932 587.974 65.6406C588.518 66.0365 589.359 66.4076 590.497 66.7539C591.636 67.0508 592.65 67.5703 593.54 68.3125C593.639 68.3125 593.763 68.3125 593.912 68.3125C594.06 68.263 594.184 68.2383 594.283 68.2383C594.876 68.2383 595.52 68.3867 596.212 68.6836C596.905 68.9805 597.35 69.1289 597.548 69.1289C600.319 69.1289 603.337 68.9557 606.603 68.6094C609.869 68.2135 612.887 67.7435 615.658 67.1992C615.757 66.7044 615.806 66.2839 615.806 65.9375C615.806 65.2943 615.707 64.6758 615.509 64.082C615.311 63.4388 614.99 62.8945 614.544 62.4492C614.544 61.707 614.544 60.9648 614.544 60.2227C614.594 59.4805 614.619 58.7383 614.619 57.9961C614.619 56.7591 614.569 55.4479 614.47 54.0625C614.371 52.6771 614.124 51.3906 613.728 50.2031H613.58C612.936 50.2031 612.343 50.3763 611.798 50.7227C611.303 51.0195 610.784 51.168 610.24 51.168C609.943 51.168 609.695 51.0938 609.497 50.9453C608.904 51.638 608.186 52.1576 607.345 52.5039C606.504 52.8503 605.613 53.1719 604.673 53.4688C603.733 53.7161 602.793 53.9883 601.853 54.2852C600.962 54.582 600.146 55.0026 599.404 55.5469C599.008 55.3984 598.637 55.3242 598.29 55.3242C597.944 55.3242 597.598 55.349 597.251 55.3984C596.955 55.4479 596.608 55.4974 596.212 55.5469C595.173 54.6562 594.654 53.543 594.654 52.207C594.654 51.5143 594.753 50.8464 594.951 50.2031C595.198 49.5104 595.52 48.8672 595.915 48.2734C596.163 48.125 596.46 48.0508 596.806 48.0508C597.152 48.0013 597.499 47.9518 597.845 47.9023C598.192 47.8034 598.464 47.6797 598.662 47.5312C598.909 47.3828 599.057 47.1107 599.107 46.7148C599.255 46.8633 599.379 46.9375 599.478 46.9375C599.577 46.9375 599.676 46.9128 599.775 46.8633C599.874 46.8138 599.973 46.7891 600.072 46.7891C600.171 46.7891 600.245 46.8385 600.294 46.9375C600.393 47.0365 600.443 47.1354 600.443 47.2344C602.57 46.0964 604.747 45.1315 606.974 44.3398C609.201 43.5482 611.452 42.8307 613.728 42.1875C616.053 41.5443 618.379 40.9505 620.705 40.4062C623.03 39.8125 625.331 39.1693 627.607 38.4766C627.953 38.1797 628.324 37.957 628.72 37.8086C629.116 37.6602 629.462 37.4375 629.759 37.1406C630.106 37.3385 630.526 37.4375 631.021 37.4375C631.714 37.4375 632.456 37.3138 633.247 37.0664C634.089 36.7695 634.781 36.4232 635.326 36.0273C635.524 36.0768 635.697 36.1016 635.845 36.1016H636.365C637.354 36.1016 638.27 35.9531 639.111 35.6562C640.001 35.3594 640.867 34.9635 641.708 34.4688H642.08C643.613 34.4688 645.122 34.2956 646.607 33.9492C648.141 33.6029 649.699 33.4297 651.283 33.4297C653.311 33.4297 655.093 33.9492 656.626 34.9883V35.8789C656.626 36.2747 656.626 36.6458 656.626 36.9922C656.676 37.2891 656.775 37.6107 656.923 37.957ZM697.079 14.3555C697.079 15.3451 696.956 16.3099 696.708 17.25C696.461 18.1406 696.263 19.0807 696.115 20.0703C696.065 20.1693 696.04 20.3424 696.04 20.5898C696.04 20.8867 696.065 21.1836 696.115 21.4805C696.164 21.7279 696.238 21.9753 696.337 22.2227C695.842 23.2122 695.471 24.276 695.224 25.4141C694.977 26.5026 694.754 27.6159 694.556 28.7539L693.962 32.168C693.764 33.306 693.492 34.4193 693.146 35.5078V35.7305C693.146 35.9779 693.195 36.2005 693.294 36.3984C693.443 36.5964 693.517 36.819 693.517 37.0664V37.3633C692.874 39.4414 692.379 41.5938 692.033 43.8203C691.686 45.9974 691.117 48.026 690.326 49.9062C690.425 50.401 690.474 50.7721 690.474 51.0195C690.474 51.5638 690.4 52.0586 690.251 52.5039C690.152 52.8997 690.004 53.2708 689.806 53.6172L689.286 54.582C689.138 54.8789 689.014 55.2005 688.915 55.5469C688.866 55.7448 688.841 55.9427 688.841 56.1406V56.7344C688.792 57.8724 688.742 58.862 688.693 59.7031C688.643 60.5443 688.297 61.4596 687.654 62.4492C687.604 63.7357 687.456 64.9727 687.208 66.1602C687.01 67.3477 686.714 68.5599 686.318 69.7969C686.07 70.7865 685.773 71.776 685.427 72.7656C685.081 73.7552 684.833 74.7448 684.685 75.7344C684.586 76.2292 684.561 76.8477 684.611 77.5898C684.71 78.2826 684.759 78.901 684.759 79.4453C684.759 80.5833 684.71 81.6966 684.611 82.7852C684.561 83.9232 684.413 85.0117 684.165 86.0508C684.314 86.793 684.586 87.4609 684.982 88.0547C685.378 88.6979 685.625 89.3906 685.724 90.1328C685.872 90.2812 686.021 90.3555 686.169 90.3555C686.268 90.3555 686.367 90.3307 686.466 90.2812C686.615 90.2318 686.763 90.207 686.911 90.207C687.109 90.207 687.258 90.2565 687.357 90.3555C687.505 90.7513 687.579 91.0977 687.579 91.3945C687.579 91.9883 687.307 92.5078 686.763 92.9531C686.813 93.25 686.837 93.4974 686.837 93.6953V94.4375C686.837 94.7839 686.788 95.2292 686.689 95.7734C686.639 96.3177 686.367 96.5898 685.872 96.5898C685.625 96.5898 685.501 96.4414 685.501 96.1445C685.551 95.8971 685.452 95.724 685.204 95.625C684.908 95.724 684.66 95.7734 684.462 95.7734C684.066 95.7734 683.745 95.6992 683.497 95.5508L682.755 95.1055C682.508 94.957 682.236 94.8086 681.939 94.6602C681.691 94.5612 681.37 94.5365 680.974 94.5859C680.578 93.8438 680.133 93.1263 679.638 92.4336C679.193 91.7904 678.673 91.1966 678.079 90.6523C677.733 89.4648 677.51 88.2279 677.411 86.9414C677.362 85.7044 677.115 84.5169 676.669 83.3789C676.719 83.3294 676.793 83.181 676.892 82.9336L677.189 82.1914C677.288 81.944 677.362 81.6966 677.411 81.4492C677.51 81.2018 677.56 81.0286 677.56 80.9297C677.56 80.6328 677.51 80.3607 677.411 80.1133C677.313 79.9154 677.238 79.6927 677.189 79.4453C677.535 78.3073 677.758 77.0703 677.857 75.7344C677.956 74.3984 678.277 73.2357 678.822 72.2461C678.871 71.7513 678.921 71.1823 678.97 70.5391C679.02 69.8464 679.094 69.2031 679.193 68.6094C679.341 67.9661 679.514 67.3724 679.712 66.8281C679.96 66.2344 680.306 65.7396 680.751 65.3438C680.652 65.0964 680.578 64.8242 680.529 64.5273C680.529 64.181 680.529 63.8841 680.529 63.6367C680.529 62.4492 680.652 61.3112 680.9 60.2227C681.197 59.0846 681.518 57.9466 681.865 56.8086C681.964 56.4622 682.063 56.1159 682.161 55.7695C682.31 55.4232 682.434 55.0521 682.533 54.6562C682.582 54.5573 682.582 54.4583 682.533 54.3594C682.533 54.2604 682.533 54.1615 682.533 54.0625C682.533 53.4688 682.458 52.8997 682.31 52.3555C682.607 52.1576 682.805 51.9102 682.904 51.6133C683.003 51.2669 683.077 50.9206 683.126 50.5742C683.225 50.1784 683.324 49.8073 683.423 49.4609C683.522 49.1146 683.695 48.8177 683.943 48.5703V48.1992C683.943 46.4674 684.19 44.7852 684.685 43.1523C685.18 41.4701 685.625 39.8125 686.021 38.1797V37.8828C686.021 37.6849 685.971 37.5365 685.872 37.4375C685.773 37.3385 685.724 37.1901 685.724 36.9922V36.8438C685.823 36.3984 685.947 35.9779 686.095 35.582C686.244 35.1367 686.367 34.6914 686.466 34.2461C686.714 33.1576 686.862 32.069 686.911 30.9805C687.01 29.8919 687.258 28.8281 687.654 27.7891C687.555 27.3932 687.505 26.9974 687.505 26.6016V25.4141C687.505 24.276 687.555 23.1875 687.654 22.1484C687.802 21.0599 688 19.9714 688.247 18.8828C688.346 18.487 688.47 17.9674 688.619 17.3242C688.816 16.681 688.915 16.1862 688.915 15.8398C688.915 15.2461 688.841 14.6523 688.693 14.0586C688.544 13.4154 688.47 12.7969 688.47 12.2031C688.47 11.9062 688.495 11.6094 688.544 11.3125C688.594 11.0156 688.717 10.7435 688.915 10.4961C688.569 9.85286 688.396 9.11068 688.396 8.26953C688.396 7.57682 688.495 6.88411 688.693 6.19141C688.891 5.44922 689.237 4.83073 689.732 4.33594H691.958C692.651 4.33594 693.344 4.4349 694.036 4.63281C694.729 4.83073 695.249 5.27604 695.595 5.96875C695.694 6.11719 695.793 6.38932 695.892 6.78516C696.04 7.13151 696.164 7.52734 696.263 7.97266C696.411 8.36849 696.535 8.76432 696.634 9.16016C696.733 9.50651 696.783 9.77865 696.783 9.97656C696.783 10.5703 696.634 11.1146 696.337 11.6094C696.684 12.0052 696.882 12.4505 696.931 12.9453C697.03 13.3906 697.079 13.8607 697.079 14.3555Z" fill="white"/>
</svg>
