<svg width="49" height="49" viewBox="0 0 49 49" fill="none" xmlns="http://www.w3.org/2000/svg">
<path fill-rule="evenodd" clip-rule="evenodd" d="M19.9337 0.120101C19.6089 0.184233 19.3213 0.258287 19.2945 0.284684C19.2518 0.326612 19.3972 1.28098 19.6999 2.9457C19.9021 4.05768 20.0354 4.8167 20.286 6.28224C20.4304 7.12671 20.5895 8.04351 20.6397 8.31959C20.6899 8.59567 20.8649 9.5922 21.0288 10.5341C21.1927 11.476 21.3686 12.4725 21.4196 12.7486C21.4707 13.0247 21.5338 13.3967 21.5599 13.5754C21.6264 14.0313 21.7303 14.5353 21.765 14.57C21.7811 14.5861 22.0267 14.5548 22.3108 14.5003C22.5949 14.4459 22.9086 14.4015 23.008 14.4017C23.3723 14.4025 23.3883 14.3412 23.2388 13.5163C23.1653 13.1103 23.0346 12.3662 22.9485 11.8628C22.8624 11.3594 22.7679 10.8279 22.7385 10.6817C22.6681 10.3318 22.5277 9.54159 22.4183 8.8806C22.3236 8.30849 21.8941 5.84105 21.7964 5.30785C21.7636 5.12921 21.6971 4.77046 21.6484 4.51063C21.5691 4.08697 21.4087 3.158 21.0058 0.790242L20.8752 0.022544L20.6997 0.0130361C20.6032 0.00778035 20.2585 0.0559684 19.9337 0.120101ZM27.7305 0.0668342C27.6931 0.180926 27.6008 0.683001 27.375 2.00084C27.2609 2.66667 27.126 3.43732 27.0752 3.7134C27.0244 3.98948 26.9592 4.36152 26.9305 4.54015C26.9017 4.71879 26.8087 5.25027 26.7239 5.72123C26.639 6.19218 26.5462 6.72366 26.5175 6.9023C26.4264 7.47004 26.2263 8.6337 26.1671 8.93965C26.1357 9.10205 26.0824 9.39437 26.0487 9.58925C26.015 9.78412 25.9228 10.3023 25.8436 10.7408C25.7646 11.1793 25.6171 12.0296 25.516 12.6305C25.4148 13.2314 25.3032 13.8522 25.268 14.0102C25.1961 14.3329 25.2405 14.3996 25.5279 14.4012C25.6165 14.4017 25.9033 14.4453 26.1652 14.4981C26.427 14.5508 26.6545 14.5808 26.6706 14.5647C26.6867 14.5486 26.7664 14.1533 26.8478 13.6863C26.9292 13.2193 27.062 12.4652 27.1429 12.0104C27.2239 11.5557 27.341 10.8914 27.4031 10.5341C27.4653 10.1768 27.5855 9.4859 27.6702 8.99871C27.755 8.51152 27.8744 7.82059 27.9357 7.46331C27.997 7.10604 28.0903 6.57455 28.1431 6.28224C28.2559 5.65833 28.2765 5.54023 28.552 3.94962C28.6673 3.28379 28.8164 2.43341 28.8833 2.0599C29.0508 1.12543 29.1734 0.389681 29.1746 0.311317C29.1752 0.274999 28.8927 0.18943 28.5408 0.119333C27.7995 -0.0283013 27.7624 -0.0306634 27.7305 0.0668342ZM12.7587 2.66047C11.8959 3.16036 11.4448 3.44677 11.4205 3.51008C11.4048 3.55089 11.4618 3.6948 11.547 3.82985C11.6323 3.96491 11.7497 4.16008 11.8079 4.26349C11.866 4.36695 12.2269 4.99634 12.6097 5.66217C12.9925 6.328 13.3724 6.99094 13.454 7.13539C13.5356 7.27989 13.6782 7.52685 13.771 7.68423C13.8638 7.84167 13.9398 7.98163 13.9398 7.99533C13.9398 8.00897 14.0945 8.2802 14.2836 8.59803C14.4727 8.91586 14.7485 9.38846 14.8966 9.6483C15.0446 9.90814 15.2188 10.2137 15.2837 10.3274C15.3486 10.4411 15.4979 10.7028 15.6156 10.9089C15.7332 11.115 15.8295 11.3076 15.8295 11.337C15.8295 11.3663 15.8561 11.3904 15.8885 11.3904C15.921 11.3904 15.9476 11.4144 15.9476 11.4438C15.9476 11.5002 16.1929 11.937 16.9623 13.2506C17.0573 13.413 17.1501 13.5924 17.1684 13.6492C17.1866 13.706 17.225 13.7525 17.2537 13.7525C17.2823 13.7525 17.3058 13.7776 17.3058 13.8083C17.3058 13.86 17.6286 14.438 18.2146 15.4356C18.3481 15.6629 18.4765 15.8955 18.4998 15.9523C18.5622 16.1044 18.6894 16.0797 19.0035 15.8542C19.1578 15.7433 19.5033 15.5434 19.7713 15.4098C20.056 15.2677 20.2585 15.1301 20.2585 15.0785C20.2585 15.0299 20.1961 14.891 20.1199 14.77C20.0436 14.6488 19.8668 14.3505 19.727 14.1069C19.5873 13.8633 19.4105 13.5649 19.3342 13.4437C19.258 13.3227 19.1956 13.2125 19.1956 13.1991C19.1956 13.1856 19.0058 12.8462 18.7739 12.4449C18.5419 12.0436 18.2856 11.5956 18.2043 11.4494C18.1231 11.3033 17.917 10.9445 17.7466 10.6522C17.576 10.3599 17.3805 10.0211 17.3121 9.89928C17.0334 9.40299 16.9138 9.19441 16.3901 8.29006C16.0891 7.77039 15.7837 7.23891 15.7113 7.10899C15.5068 6.74168 14.6604 5.26533 14.3908 4.80589C14.2574 4.57854 14.1195 4.33937 14.0842 4.27441C13.993 4.10629 13.7543 3.68712 13.4956 3.24097C13.3732 3.02985 13.235 2.78401 13.1887 2.69472C13.0898 2.50422 13.0358 2.49991 12.7587 2.66047ZM35.6284 2.81283C35.6067 2.8697 35.4979 3.07562 35.3867 3.2705C35.2755 3.46538 35.117 3.7444 35.0345 3.89056C34.7453 4.4025 34.6807 4.51417 34.4095 4.97001C34.2592 5.22264 34.1361 5.44314 34.1361 5.46003C34.1361 5.47686 34.0431 5.63607 33.9295 5.81376C33.8158 5.99152 33.7228 6.14624 33.7228 6.15763C33.7228 6.17783 33.2404 7.02153 32.1374 8.93038C31.8401 9.44498 31.5968 9.87938 31.5968 9.89567C31.5968 9.91197 31.5475 9.99589 31.4872 10.0821C31.4269 10.1683 31.311 10.3584 31.2297 10.5046C31.1484 10.6507 30.8922 11.1006 30.6602 11.5044C30.4283 11.908 30.2386 12.2601 30.2386 12.2868C30.2386 12.3135 30.212 12.3352 30.1795 12.3352C30.1471 12.3352 30.1205 12.3593 30.1205 12.3886C30.1205 12.418 30.0241 12.6107 29.9062 12.8168C29.7883 13.0229 29.6107 13.3377 29.5117 13.5163C29.4126 13.695 29.1497 14.1458 28.9274 14.5182C28.7051 14.8907 28.5342 15.2229 28.5477 15.2564C28.5611 15.29 28.6747 15.3702 28.8001 15.4347C28.9254 15.4992 29.1697 15.6408 29.3428 15.7495C29.6439 15.9387 29.6625 15.9428 29.7709 15.8446C29.8333 15.7882 29.8843 15.7183 29.8843 15.6893C29.8843 15.6603 29.9773 15.4912 30.091 15.3135C30.2046 15.1357 30.2977 14.9784 30.2977 14.9637C30.2977 14.949 30.4172 14.7347 30.5634 14.4875C30.7096 14.2403 30.8291 14.0275 30.8291 14.0146C30.8291 14.0016 30.9178 13.851 31.0263 13.6798C31.1347 13.5087 31.3176 13.196 31.4327 12.9848C31.5479 12.7737 31.8179 12.2986 32.0328 11.929C32.2477 11.5594 32.4236 11.2477 32.4236 11.2363C32.4236 11.2249 32.5166 11.0701 32.6303 10.8924C32.744 10.7147 32.837 10.557 32.837 10.5418C32.837 10.5267 32.9565 10.3121 33.1027 10.0649C33.2489 9.81766 33.3684 9.58954 33.3684 9.55801C33.3684 9.52647 33.395 9.50066 33.4275 9.50066C33.46 9.50066 33.4866 9.47486 33.4866 9.44332C33.4866 9.41179 33.6061 9.18366 33.7523 8.93647C33.8985 8.68927 34.018 8.47461 34.018 8.45949C34.018 8.44437 34.111 8.28664 34.2247 8.10895C34.3384 7.93119 34.4314 7.77435 34.4314 7.76029C34.4314 7.74624 34.644 7.37178 34.9038 6.92817C35.1637 6.48456 35.3763 6.1108 35.3763 6.09758C35.3763 6.08435 35.4912 5.88132 35.6317 5.64641C36.3338 4.47254 36.9173 3.41601 36.889 3.37018C36.8318 3.27753 35.8659 2.70949 35.7657 2.70949C35.7119 2.70949 35.6501 2.75596 35.6284 2.81283ZM6.29232 7.83015C5.75027 8.45973 5.14101 9.23587 5.14455 9.29238C5.14662 9.32575 5.63003 9.75164 6.21874 10.2388C6.8075 10.726 7.47682 11.2858 7.70612 11.4827C8.22916 11.932 10.67 13.9967 11.0527 14.3135C11.3065 14.5237 12.1843 15.2657 12.5815 15.6058C12.6627 15.6753 12.9683 15.9311 13.2607 16.1742C13.553 16.4173 13.8054 16.6308 13.8217 16.6485C13.8497 16.679 14.3009 17.061 15.005 17.6501C15.1797 17.7962 15.4965 18.0682 15.7089 18.2544C15.9214 18.4406 16.1119 18.5933 16.1324 18.5939C16.1528 18.5945 16.3185 18.397 16.5006 18.1551C16.6826 17.9132 17.0047 17.5352 17.2164 17.3151C17.428 17.095 17.6008 16.8876 17.6005 16.8543C17.6001 16.821 17.3808 16.6162 17.1133 16.399C16.8456 16.1818 16.3195 15.7434 15.9439 15.4246C15.5684 15.1059 14.8243 14.4765 14.2904 14.0261C13.7565 13.5756 13.1868 13.0946 13.0244 12.9571C12.862 12.8197 12.1711 12.2357 11.489 11.6596C10.807 11.0833 10.1822 10.5545 10.1007 10.4844C10.0192 10.4143 9.80661 10.2375 9.62826 10.0914C9.44998 9.94546 9.27406 9.79782 9.23745 9.76334C9.20083 9.72891 9.03129 9.58263 8.86068 9.4383C8.69002 9.29398 8.52071 9.14794 8.48434 9.1138C8.44802 9.07961 8.25881 8.92271 8.06393 8.76515C7.72762 8.49315 7.11807 7.97377 6.79593 7.68476C6.7145 7.61165 6.62101 7.55278 6.58818 7.55384C6.55541 7.5549 6.42224 7.67921 6.29232 7.83015ZM42.1613 8.21837C42.0767 8.2903 41.7711 8.54724 41.4822 8.78942C41.1932 9.03166 40.9436 9.24484 40.9273 9.26321C40.9111 9.28158 40.7383 9.42892 40.5435 9.59054C40.3486 9.75223 40.1759 9.89786 40.1596 9.91416C40.1434 9.93046 39.8909 10.143 39.5986 10.3865C39.3063 10.6299 39.0538 10.8436 39.0376 10.8613C39.0214 10.879 38.7689 11.0915 38.4766 11.3336C38.1843 11.5758 37.9318 11.7872 37.9156 11.8036C37.8993 11.8199 37.7266 11.9656 37.5317 12.1273C37.3369 12.2889 37.1641 12.4362 37.1479 12.4546C37.1316 12.473 36.8925 12.6767 36.6164 12.9074C34.8297 14.3999 31.3875 17.3171 31.3746 17.3497C31.3661 17.3712 31.4921 17.534 31.6546 17.7114C31.8171 17.8888 31.9654 18.0805 31.9841 18.1373C32.0418 18.3124 32.1801 18.255 32.6241 17.8715C32.8591 17.6686 33.6981 16.9577 34.4885 16.2918C36.0029 15.0162 38.1557 13.1997 38.6538 12.7773C39.0062 12.4783 40.7611 10.9958 41.6936 10.2093C42.0594 9.90075 42.4154 9.59881 42.4845 9.53834C42.5537 9.47787 42.7233 9.3352 42.8613 9.22122C42.9994 9.10725 43.1123 8.9905 43.1123 8.96174C43.1123 8.87871 42.444 8.08314 42.3763 8.0855C42.3426 8.08668 42.2459 8.14645 42.1613 8.21837ZM1.98748 14.7417C1.73733 15.3917 1.58308 15.8109 1.47153 16.1442C1.40628 16.3391 1.32277 16.5601 1.28604 16.6352C1.24205 16.7251 1.23862 16.8028 1.276 16.8621C1.30724 16.9116 1.77105 17.1116 2.30673 17.3064C2.84234 17.5012 3.66591 17.8023 4.13686 17.9753C8.3579 19.527 11.5346 20.6879 11.7548 20.759C11.9009 20.8063 12.0737 20.8682 12.1386 20.8967C12.2416 20.9418 14.4435 21.7519 14.6293 21.813C14.7294 21.846 14.8044 21.7325 14.8827 21.4295C15.0001 20.9755 15.184 20.4752 15.4228 19.9598C15.549 19.6873 15.6523 19.4447 15.6523 19.4207C15.6523 19.3966 15.566 19.3446 15.4604 19.3052C15.3548 19.2657 15.1755 19.1972 15.0618 19.1531C14.6683 19.0002 13.2005 18.4655 12.9359 18.3786C12.7897 18.3307 12.3645 18.1758 11.991 18.0343C11.6175 17.893 10.714 17.5601 9.98318 17.2945C9.25239 17.029 8.49502 16.7502 8.30015 16.6748C8.10527 16.5995 7.60036 16.4138 7.17813 16.2622C6.75589 16.1106 6.01849 15.8427 5.53939 15.6668C5.06028 15.4909 4.26306 15.1992 3.76777 15.0186C3.27249 14.838 2.74272 14.6387 2.59054 14.5757C2.17368 14.4032 2.11114 14.4204 1.98748 14.7417ZM33.4874 20.8833C33.4879 20.9401 33.53 21.1062 33.5809 21.2524C33.7336 21.6905 33.8893 22.5362 33.9589 23.3058C34.0588 24.4114 33.9068 25.7862 33.5622 26.892C33.3971 27.4218 32.9973 28.379 32.81 28.6931C32.7421 28.8068 32.653 28.9662 32.6118 29.0474C32.5706 29.1286 32.3449 29.4533 32.1101 29.7689C30.459 31.9884 28.1399 33.3484 25.4355 33.6832C23.9917 33.862 22.7253 33.7445 21.2721 33.2971C20.6979 33.1203 19.5779 32.6035 19.1365 32.3118C19.0228 32.2366 18.8803 32.1424 18.8198 32.1024C18.121 31.6404 17.3044 30.9018 16.793 30.2691C16.6042 30.0357 16.4335 29.8314 16.4135 29.8151C16.3935 29.7989 16.2547 29.5938 16.105 29.3594C15.5255 28.4523 15.0584 27.3694 14.8238 26.39C14.7499 26.0815 14.6587 25.7952 14.6211 25.7538C14.5542 25.6801 14.4522 25.7078 13.7921 25.9788C13.7272 26.0054 13.0761 26.2445 12.3453 26.51C11.6145 26.7755 10.4586 27.1997 9.77649 27.4526C9.09442 27.7054 8.29719 27.9967 8.00488 28.0998C7.71256 28.2027 7.38038 28.3239 7.26671 28.3689C7.15303 28.414 6.874 28.5159 6.64664 28.5954C6.41929 28.675 6.16683 28.7671 6.08563 28.8C5.90127 28.8748 5.58456 28.9921 4.13686 29.5214C1.30104 30.5584 1.17171 30.6089 1.13841 30.694C1.12087 30.7389 1.13723 30.8249 1.17484 30.8851C1.21246 30.9454 1.24323 31.0251 1.24323 31.0624C1.24323 31.2268 2.0672 33.4337 2.18903 33.5956C2.27767 33.7133 2.28582 33.7119 2.98626 33.4553C3.37548 33.3127 4.14572 33.031 4.69787 32.8292C5.25002 32.6275 6.1004 32.3159 6.58759 32.1368C7.07478 31.9578 7.83215 31.6795 8.27062 31.5183C8.70909 31.3572 9.45317 31.0828 9.92412 30.9085C10.3951 30.7342 11.1524 30.4592 11.6072 30.2975C12.0619 30.1357 12.5402 29.9621 12.6701 29.9118C12.8 29.8614 13.3847 29.6443 13.9693 29.4293C14.5539 29.2144 15.1196 28.9972 15.2263 28.9467C15.4834 28.8249 15.551 28.9053 15.3275 29.067C15.2302 29.1374 14.9778 29.3433 14.7666 29.5244C14.4248 29.8176 12.8025 31.1902 10.2829 33.3181C9.44532 34.0254 8.62022 34.725 8.32967 34.9743C8.24848 35.0439 7.85039 35.3798 7.44505 35.7208C7.03965 36.0617 6.32486 36.6681 5.85656 37.0684C5.38833 37.4686 4.94265 37.8371 4.86629 37.8871C4.78988 37.9372 4.7274 38.0169 4.7274 38.0644C4.7274 38.2579 6.82304 40.7991 6.9826 40.7991C7.01071 40.7991 7.48089 40.4204 8.0275 39.9576C8.57404 39.4948 9.32124 38.8636 9.68791 38.5551C10.0546 38.2465 10.3839 37.9667 10.4198 37.9334C10.4557 37.8999 11.2558 37.2239 12.1977 36.431C14.7312 34.2984 15.0294 34.0463 15.0618 34.0106C15.078 33.9925 15.4235 33.7012 15.8295 33.3631C16.2355 33.0251 16.68 32.6415 16.8174 32.5108C17.0945 32.2472 17.2214 32.2591 17.0211 32.53C16.9504 32.6257 16.8925 32.7174 16.8925 32.7338C16.8925 32.7502 16.7376 33.0237 16.5482 33.3415C16.3589 33.6594 15.8898 34.4774 15.5059 35.1595C15.1219 35.8416 14.728 36.5325 14.6306 36.6949C14.4398 37.0128 14.4482 36.9982 13.8534 38.0531C13.6338 38.4429 13.3806 38.8814 13.2909 39.0275C13.2013 39.1737 13.0488 39.4394 12.9522 39.6181C12.8557 39.7967 12.5335 40.3649 12.2362 40.8806C11.9389 41.3963 11.6957 41.8294 11.6957 41.843C11.6957 41.8567 11.6091 42.006 11.5033 42.175C11.3974 42.3439 11.2717 42.5619 11.224 42.6593C11.1762 42.7568 11.0104 43.0422 10.8555 43.2935C10.7005 43.5449 10.5737 43.788 10.5737 43.8337C10.5737 44.0215 13.706 45.8757 13.8984 45.8019C13.9385 45.7865 14.0106 45.698 14.0588 45.6051C14.107 45.5123 14.242 45.2765 14.3586 45.0812C14.4754 44.8859 14.6374 44.6066 14.7188 44.4605C14.8001 44.3143 15.0337 43.9024 15.238 43.5451C15.4422 43.1879 15.6896 42.7494 15.7877 42.5707C15.8858 42.3921 16.1214 41.9859 16.3112 41.6681C16.501 41.3503 16.6562 41.0786 16.6562 41.0645C16.6562 41.0504 16.7758 40.8365 16.922 40.5893C17.0681 40.3421 17.1877 40.1314 17.1877 40.1212C17.1877 40.1109 17.2899 39.9338 17.4148 39.7274C17.5396 39.5211 17.7231 39.2062 17.8224 39.0275C17.9216 38.8489 18.2978 38.1874 18.6583 37.5575C19.0187 36.9276 19.3137 36.4033 19.3137 36.3923C19.3137 36.3814 19.4009 36.2324 19.5075 36.0612C19.6141 35.8901 19.7792 35.5973 19.8743 35.4105C19.9694 35.2237 20.0682 35.0709 20.0938 35.0709C20.1566 35.0709 20.1594 35.0457 19.9968 35.9215C19.851 36.7065 19.6407 37.8927 19.2786 39.9724C18.7224 43.168 18.5974 43.8805 18.5124 44.3424C18.4616 44.6184 18.3969 44.9905 18.3687 45.1691C18.2435 45.9614 18.0188 47.1812 17.9892 47.2291C17.9104 47.3565 18.2318 47.464 19.4022 47.7018C19.8902 47.8009 20.9735 47.9691 21.8936 48.0887C21.9982 48.1023 22.1083 48.0814 22.1412 48.0417C22.1937 47.9785 22.3502 47.1948 22.5028 46.2321C22.5644 45.8436 22.7769 44.6279 23.0654 43.0136C23.1814 42.3641 23.3271 41.527 23.389 41.1535C23.4508 40.7799 23.57 40.089 23.6538 39.6181C23.7376 39.1471 23.885 38.2989 23.9813 37.7331C24.1451 36.7713 24.1841 36.6083 24.2356 36.6703C24.2468 36.6839 24.353 37.2662 24.4715 37.9646C24.6818 39.2027 24.8534 40.1871 25.0994 41.5668C25.1661 41.9403 25.3009 42.711 25.399 43.2794C25.4971 43.8478 25.6316 44.6184 25.698 44.9919C25.7642 45.3655 25.8415 45.8039 25.8697 45.9663C26.1737 47.7186 26.2562 48.1218 26.3108 48.1218C26.3855 48.1218 27.7879 47.9361 28.1127 47.8832C29.0603 47.7288 30.5326 47.3836 30.5611 47.3091C30.591 47.2313 30.5414 46.8303 30.4187 46.1583C30.3115 45.5712 30.2524 45.2331 30.0337 43.9585C29.9167 43.2764 29.7446 42.2932 29.6513 41.7735C29.558 41.2538 29.3842 40.2706 29.2652 39.5885C29.1461 38.9065 28.9842 38.0004 28.9055 37.575C28.8267 37.1497 28.7623 36.7695 28.7623 36.73C28.7623 36.599 28.8831 36.7306 29.019 37.0098C29.0928 37.1614 29.3683 37.6586 29.6312 38.1147C29.894 38.5707 30.1823 39.0756 30.2717 39.2367C30.3611 39.3977 30.5364 39.6983 30.6612 39.9046C30.786 40.1109 30.8882 40.29 30.8882 40.3026C30.8882 40.3151 31.0476 40.5939 31.2425 40.922C31.4374 41.2502 31.5968 41.5274 31.5968 41.5379C31.5968 41.5485 31.7164 41.7593 31.8626 42.0065C32.0087 42.2537 32.1283 42.4819 32.1283 42.5134C32.1283 42.5449 32.1549 42.5707 32.1874 42.5707C32.2199 42.5707 32.2464 42.5942 32.2464 42.6229C32.2464 42.6517 32.5255 43.1609 32.8665 43.7546C33.2075 44.3483 33.4866 44.8563 33.4866 44.8835C33.4866 44.9106 33.5131 44.9329 33.5456 44.9329C33.5781 44.9329 33.6047 44.9579 33.6047 44.9885C33.6047 45.1089 34.1658 45.9959 34.242 45.9959C34.5564 45.9959 38.1911 43.862 38.3958 43.5572C38.4164 43.5266 38.273 43.2324 38.0773 42.9033C37.8816 42.5742 37.6494 42.1721 37.5613 42.0097C37.3918 41.6975 36.8898 40.8306 36.7918 40.681C36.7598 40.6323 36.7157 40.5526 36.6938 40.5039C36.6717 40.4551 36.3929 39.9681 36.0741 39.4216C35.7552 38.8751 35.4944 38.4189 35.4944 38.4078C35.4944 38.3968 35.3748 38.1854 35.2286 37.9382C35.0825 37.691 34.9629 37.4629 34.9629 37.4314C34.9629 37.3998 34.9394 37.374 34.9108 37.374C34.8821 37.374 34.8437 37.3275 34.8254 37.2707C34.8072 37.2139 34.7146 37.0345 34.6197 36.8721C34.5247 36.7097 34.2807 36.2845 34.0773 35.9272C33.8739 35.5699 33.6549 35.203 33.5906 35.1118C33.3737 34.8042 33.5353 34.8792 34.0304 35.3158C34.3012 35.5546 34.8242 36.0025 35.1926 36.3111C35.5611 36.6196 35.8926 36.8996 35.9294 36.9332C36.0045 37.0019 37.0516 37.8862 38.269 38.9094C38.7135 39.2829 39.5009 39.9488 40.0189 40.3891C40.5369 40.8294 40.994 41.2103 41.0348 41.2355C41.1094 41.2816 41.1655 41.2298 41.8722 40.4627C42.3948 39.8954 42.5289 39.7393 43.0292 39.1161C43.53 38.4922 44.3524 37.3421 44.3524 37.2657C44.3524 37.2408 44.1597 37.063 43.9243 36.8706C43.6889 36.6782 43.309 36.3607 43.0802 36.165C42.2565 35.4602 41.9811 35.2284 41.8246 35.1078C41.7371 35.0403 41.6389 34.9554 41.6064 34.9191C41.574 34.8828 41.3215 34.6655 41.0454 34.4362C40.7694 34.2069 40.0651 33.616 39.4805 33.123C38.8959 32.63 38.2363 32.08 38.0149 31.9009C37.7934 31.7218 37.6259 31.5615 37.6427 31.5446C37.6595 31.5279 37.8806 31.6006 38.134 31.7062C38.3874 31.8119 38.819 31.9761 39.0932 32.0712C39.535 32.2246 40.3761 32.533 42.2265 33.2201C42.916 33.4761 43.2496 33.5978 43.821 33.8015C44.0645 33.8884 44.4366 34.0263 44.6477 34.1079C45.9682 34.6189 45.9083 34.6188 46.1227 34.1095C46.194 33.9399 46.333 33.6152 46.4314 33.3879C46.6261 32.9384 46.6435 32.8953 46.8261 32.4135C46.9736 32.0245 47.2529 31.1282 47.4794 30.3171C47.7113 29.4869 47.714 29.4713 47.6386 29.4117C47.6013 29.3824 46.6806 29.0345 45.5926 28.6387C44.5045 28.2428 43.5478 27.8913 43.4666 27.8574C43.2131 27.7517 41.5691 27.1548 41.1045 26.9998C40.6645 26.8531 40.4664 26.745 40.635 26.7437C40.6821 26.7433 42.3948 26.7367 44.441 26.7289L48.1614 26.7148L48.2064 26.4196C48.2311 26.2572 48.2672 25.3669 48.2864 24.4413C48.3138 23.1248 48.3009 22.5546 48.2272 21.8234C48.1754 21.3093 48.1179 20.8641 48.0995 20.8343C48.0793 20.8017 45.1511 20.7799 40.7762 20.7799C33.8727 20.7799 33.4866 20.7854 33.4874 20.8833ZM0.245634 22.5144C0.198095 22.5717 0.182741 23.0053 0.193902 23.9762L0.209788 25.3566H7.41434H14.6189L14.5894 25.1204C14.5731 24.9905 14.5598 24.4988 14.5598 24.0279C14.5598 23.5569 14.5731 23.0122 14.5894 22.8173L14.6189 22.463L7.46607 22.448C1.44554 22.4353 0.302502 22.4458 0.245634 22.5144Z" fill="#CE1127"/>
</svg>
