<svg width="104" height="22" viewBox="0 0 104 22" fill="none" xmlns="http://www.w3.org/2000/svg">
<path d="M8.61882 4.57487V10.6121H14.3732V12.5208H8.61882V18.6004H6.55457V12.5208H0.828416V10.6121H6.55457V4.57487H8.61882ZM33.9959 13.7367C34.1279 13.9629 34.241 14.2033 34.3353 14.4578C34.4389 14.7029 34.5379 14.9526 34.6322 15.2071C34.7264 14.9432 34.8254 14.6934 34.9291 14.4578C35.0328 14.2127 35.1506 13.9677 35.2826 13.7226L42.1398 1.26643C42.2623 1.04963 42.3896 0.917674 42.5215 0.870545C42.6535 0.823416 42.842 0.799852 43.0871 0.799852H45.1089V21.0605H42.7053V6.17254C42.7053 5.9746 42.7101 5.76252 42.7195 5.5363C42.7289 5.31008 42.7431 5.07915 42.7619 4.84351L35.8198 17.5117C35.5842 17.9359 35.2543 18.148 34.8301 18.148H34.4342C34.0101 18.148 33.6802 17.9359 33.4445 17.5117L26.3469 4.80109C26.3752 5.04616 26.3941 5.28652 26.4035 5.52216C26.4223 5.75781 26.4318 5.9746 26.4318 6.17254V21.0605H24.0282V0.799852H26.05C26.2951 0.799852 26.4836 0.823416 26.6156 0.870545C26.7475 0.917674 26.8748 1.04963 26.9973 1.26643L33.9959 13.7367ZM69.001 10.9373C69.001 12.4548 68.7607 13.8498 68.28 15.1223C67.7993 16.3854 67.1206 17.474 66.244 18.3883C65.3674 19.3026 64.3117 20.0143 63.0769 20.5233C61.8516 21.0228 60.4943 21.2726 59.005 21.2726C57.5157 21.2726 56.1584 21.0228 54.9331 20.5233C53.7077 20.0143 52.6567 19.3026 51.7802 18.3883C50.9036 17.474 50.2249 16.3854 49.7442 15.1223C49.2635 13.8498 49.0231 12.4548 49.0231 10.9373C49.0231 9.41972 49.2635 8.02942 49.7442 6.76637C50.2249 5.49389 50.9036 4.4005 51.7802 3.4862C52.6567 2.56247 53.7077 1.84611 54.9331 1.33712C56.1584 0.828129 57.5157 0.573633 59.005 0.573633C60.4943 0.573633 61.8516 0.828129 63.0769 1.33712C64.3117 1.84611 65.3674 2.56247 66.244 3.4862C67.1206 4.4005 67.7993 5.49389 68.28 6.76637C68.7607 8.02942 69.001 9.41972 69.001 10.9373ZM66.1874 10.9373C66.1874 9.69307 66.0178 8.57611 65.6785 7.58641C65.3391 6.5967 64.8584 5.76252 64.2363 5.08387C63.6142 4.39578 62.8601 3.86794 61.9741 3.50034C61.0881 3.13273 60.0984 2.94893 59.005 2.94893C57.921 2.94893 56.936 3.13273 56.05 3.50034C55.164 3.86794 54.4052 4.39578 53.7737 5.08387C53.1516 5.76252 52.6709 6.5967 52.3316 7.58641C51.9922 8.57611 51.8226 9.69307 51.8226 10.9373C51.8226 12.1815 51.9922 13.2984 52.3316 14.2881C52.6709 15.2684 53.1516 16.1026 53.7737 16.7907C54.4052 17.4693 55.164 17.9925 56.05 18.3601C56.936 18.7182 57.921 18.8973 59.005 18.8973C60.0984 18.8973 61.0881 18.7182 61.9741 18.3601C62.8601 17.9925 63.6142 17.4693 64.2363 16.7907C64.8584 16.1026 65.3391 15.2684 65.6785 14.2881C66.0178 13.2984 66.1874 12.1815 66.1874 10.9373ZM75.8965 12.6056V21.0605H73.1677V0.799852H78.8939C80.1758 0.799852 81.2833 0.931813 82.2165 1.19573C83.1496 1.45023 83.9178 1.82255 84.5211 2.31269C85.1338 2.80283 85.5862 3.39665 85.8784 4.09416C86.1706 4.78224 86.3167 5.55515 86.3167 6.4129C86.3167 7.12926 86.2036 7.79849 85.9774 8.42059C85.7511 9.04269 85.4212 9.60352 84.9877 10.1031C84.5635 10.5932 84.0404 11.0127 83.4183 11.3614C82.8056 11.7102 82.1081 11.9741 81.3257 12.1532C81.6651 12.3511 81.9667 12.6386 82.2306 13.0157L88.1406 21.0605H85.7087C85.2092 21.0605 84.8416 20.8673 84.6059 20.4809L79.3463 13.2419C79.1861 13.0157 79.0117 12.8554 78.8232 12.7612C78.6347 12.6575 78.3519 12.6056 77.9749 12.6056H75.8965ZM75.8965 10.6121H78.7667C79.5678 10.6121 80.2701 10.5178 80.8733 10.3293C81.486 10.1314 81.995 9.85802 82.4003 9.50926C82.815 9.15109 83.1261 8.72693 83.3334 8.23679C83.5408 7.74665 83.6445 7.20466 83.6445 6.61084C83.6445 5.40434 83.2439 4.49475 82.4427 3.88208C81.6509 3.2694 80.468 2.96307 78.8939 2.96307H75.8965V10.6121ZM103.709 0.799852V3.03376H93.9814V9.76376H101.857V11.9128H93.9814V18.8266H103.709V21.0605H91.2244V0.799852H103.709Z" fill="white"/>
</svg>
