<svg width="82" height="82" viewBox="0 0 82 82" fill="none" xmlns="http://www.w3.org/2000/svg">
    <path fill-rule="evenodd" clip-rule="evenodd"
        d="M33.9046 1.15908C33.3622 1.26619 32.8817 1.38987 32.837 1.43396C32.7657 1.50398 33.0086 3.0979 33.514 5.87821C33.8517 7.73537 34.0745 9.00303 34.4929 11.4507C34.7341 12.861 34.9999 14.3922 35.0837 14.8533C35.1674 15.3144 35.4599 16.9787 35.7336 18.5519C36.0073 20.125 36.301 21.7893 36.3863 22.2504C36.4716 22.7115 36.577 23.3328 36.6205 23.6312C36.7316 24.3927 36.9051 25.2344 36.9631 25.2924C36.99 25.3193 37.4002 25.2669 37.8747 25.176C38.3492 25.085 38.8731 25.011 39.0391 25.0113C39.6475 25.0127 39.6742 24.9103 39.4245 23.5326C39.3017 22.8545 39.0835 21.6118 38.9397 20.771C38.7959 19.9302 38.638 19.0425 38.5889 18.7984C38.4715 18.214 38.2368 16.8942 38.0542 15.7903C37.8961 14.8348 37.1787 10.7138 37.0155 9.82332C36.9608 9.52497 36.8496 8.92581 36.7684 8.49184C36.6359 7.78429 36.3679 6.23278 35.6951 2.27831L35.4769 0.996148L35.1839 0.980268C35.0228 0.97149 34.4471 1.05197 33.9046 1.15908ZM46.9262 1.07012C46.8638 1.26067 46.7096 2.0992 46.3326 4.30017C46.142 5.4122 45.9167 6.69929 45.8318 7.16037C45.7469 7.62146 45.6381 8.24281 45.5901 8.54116C45.542 8.83951 45.3867 9.72715 45.2451 10.5137C45.1034 11.3003 44.9483 12.1879 44.9004 12.4863C44.7483 13.4345 44.414 15.3779 44.3151 15.8889C44.2627 16.1601 44.1737 16.6483 44.1175 16.9738C44.0612 17.2993 43.9071 18.1647 43.775 18.8971C43.6429 19.6294 43.3966 21.0496 43.2277 22.0531C43.0587 23.0567 42.8724 24.0935 42.8136 24.3574C42.6935 24.8963 42.7676 25.0077 43.2476 25.0105C43.3956 25.0113 43.8746 25.0841 44.312 25.1722C44.7493 25.2603 45.1291 25.3104 45.156 25.2835C45.183 25.2566 45.3161 24.5964 45.452 23.8165C45.5879 23.0365 45.8097 21.777 45.945 21.0175C46.0802 20.2581 46.2758 19.1486 46.3795 18.5519C46.4834 17.9552 46.6841 16.8012 46.8256 15.9875C46.9671 15.1739 47.1667 14.0199 47.269 13.4232C47.3714 12.8265 47.5273 11.9389 47.6154 11.4507C47.8037 10.4087 47.8382 10.2114 48.2982 7.55488C48.4908 6.44286 48.7399 5.02262 48.8516 4.3988C49.1313 2.83812 49.3361 1.60932 49.3382 1.47844C49.339 1.41778 48.8673 1.27487 48.2796 1.1578C47.0415 0.911229 46.9796 0.907284 46.9262 1.07012ZM21.9214 5.40184C20.4803 6.23672 19.727 6.71507 19.6865 6.8208C19.6602 6.88895 19.7554 7.1293 19.8977 7.35487C20.0401 7.58043 20.2362 7.90639 20.3334 8.07909C20.4305 8.25188 21.0331 9.30306 21.6725 10.4151C22.3118 11.5271 22.9464 12.6343 23.0826 12.8755C23.2188 13.1169 23.4571 13.5293 23.612 13.7922C23.7671 14.0551 23.8939 14.2889 23.8939 14.3118C23.8939 14.3345 24.1523 14.7875 24.4681 15.3184C24.7839 15.8492 25.2446 16.6385 25.4919 17.0724C25.739 17.5064 26.03 18.0168 26.1384 18.2067C26.2468 18.3965 26.4962 18.8335 26.6928 19.1777C26.8892 19.522 27.05 19.8438 27.05 19.8928C27.05 19.9418 27.0944 19.982 27.1486 19.982C27.2029 19.982 27.2472 20.0221 27.2472 20.0711C27.2472 20.1654 27.6569 20.895 28.9419 23.0887C29.1007 23.36 29.2556 23.6596 29.2861 23.7545C29.3166 23.8493 29.3807 23.9271 29.4286 23.9271C29.4764 23.9271 29.5157 23.969 29.5157 24.0202C29.5157 24.1066 30.0548 25.0719 31.0334 26.7379C31.2565 27.1177 31.4708 27.5061 31.5097 27.6009C31.614 27.855 31.8264 27.8137 32.351 27.4371C32.6087 27.252 33.1858 26.918 33.6334 26.6948C34.1089 26.4576 34.4471 26.2277 34.4471 26.1415C34.4471 26.0604 34.3428 25.8285 34.2155 25.6263C34.0882 25.424 33.7929 24.9257 33.5594 24.5188C33.326 24.112 33.0307 23.6136 32.9033 23.4113C32.776 23.2092 32.6718 23.0252 32.6718 23.0027C32.6718 22.9802 32.3548 22.4134 31.9675 21.7432C31.5801 21.0729 31.152 20.3247 31.0163 20.0806C30.8806 19.8365 30.5365 19.2373 30.2517 18.7491C29.9669 18.2609 29.6404 17.6951 29.5261 17.4916C29.0606 16.6627 28.861 16.3144 27.9863 14.804C27.4836 13.9361 26.9735 13.0484 26.8526 12.8315C26.5111 12.218 25.0974 9.75231 24.6471 8.98498C24.4244 8.60527 24.194 8.20582 24.1352 8.09733C23.9828 7.81654 23.5841 7.11648 23.152 6.37135C22.9476 6.01876 22.7169 5.60817 22.6395 5.45905C22.4744 5.14087 22.3841 5.13367 21.9214 5.40184ZM60.1168 5.6563C60.0806 5.75128 59.8989 6.09519 59.7132 6.42066C59.5275 6.74614 59.2627 7.21215 59.1249 7.45625C58.642 8.31126 58.534 8.49776 58.0811 9.25907C57.83 9.681 57.6245 10.0493 57.6245 10.0775C57.6245 10.1056 57.4692 10.3715 57.2794 10.6683C57.0895 10.9651 56.9342 11.2235 56.9342 11.2426C56.9342 11.2763 56.1285 12.6854 54.2864 15.8734C53.7898 16.7329 53.3836 17.4584 53.3836 17.4856C53.3836 17.5128 53.3011 17.653 53.2004 17.797C53.0997 17.941 52.9062 18.2584 52.7704 18.5025C52.6347 18.7466 52.2067 19.498 51.8193 20.1723C51.432 20.8465 51.1151 21.4345 51.1151 21.4791C51.1151 21.5236 51.0707 21.56 51.0165 21.56C50.9623 21.56 50.9179 21.6001 50.9179 21.6492C50.9179 21.6982 50.7568 22.02 50.5599 22.3642C50.3631 22.7084 50.0665 23.2342 49.9011 23.5326C49.7356 23.8309 49.2964 24.5839 48.9252 25.2059C48.554 25.8279 48.2685 26.3827 48.291 26.4387C48.3135 26.4948 48.5032 26.6288 48.7126 26.7365C48.9219 26.8442 49.3299 27.0808 49.6189 27.2623C50.1219 27.5783 50.1529 27.5851 50.334 27.4211C50.4381 27.327 50.5234 27.2102 50.5234 27.1618C50.5234 27.1133 50.6787 26.8309 50.8686 26.5341C51.0584 26.2372 51.2138 25.9744 51.2138 25.9498C51.2138 25.9254 51.4135 25.5674 51.6576 25.1546C51.9017 24.7417 52.1014 24.3863 52.1014 24.3647C52.1014 24.3431 52.2495 24.0916 52.4306 23.8057C52.6117 23.5198 52.9172 22.9975 53.1095 22.6449C53.3018 22.2923 53.7528 21.4988 54.1117 20.8814C54.4706 20.2642 54.7643 19.7436 54.7643 19.7245C54.7643 19.7055 54.9197 19.4471 55.1095 19.1502C55.2994 18.8535 55.4547 18.59 55.4547 18.5648C55.4547 18.5395 55.6545 18.181 55.8986 17.7682C56.1427 17.3553 56.3424 16.9743 56.3424 16.9216C56.3424 16.869 56.3868 16.8259 56.441 16.8259C56.4953 16.8259 56.5396 16.7828 56.5396 16.7301C56.5396 16.6774 56.7394 16.2964 56.9835 15.8836C57.2276 15.4707 57.4273 15.1122 57.4273 15.087C57.4273 15.0617 57.5826 14.7983 57.7725 14.5015C57.9623 14.2047 58.1177 13.9427 58.1177 13.9192C58.1177 13.8957 58.4727 13.2704 58.9067 12.5295C59.3407 11.7886 59.6957 11.1644 59.6957 11.1423C59.6957 11.1202 59.8878 10.7811 60.1224 10.3887C61.2949 8.42823 62.2695 6.66368 62.2222 6.58715C62.1266 6.4324 60.5135 5.4837 60.3462 5.4837C60.2562 5.4837 60.1531 5.56132 60.1168 5.6563ZM11.1216 14.0359C10.2163 15.0874 9.19879 16.3836 9.20471 16.478C9.20816 16.5337 10.0155 17.245 10.9987 18.0587C11.9821 18.8724 13.0999 19.8073 13.4829 20.1362C14.3564 20.8866 18.433 24.3349 19.0721 24.864C19.496 25.215 20.962 26.4542 21.6255 27.0223C21.7611 27.1384 22.2715 27.5656 22.7597 27.9716C23.2479 28.3776 23.6695 28.7341 23.6967 28.7637C23.7434 28.8147 24.4971 29.4526 25.6731 30.4365C25.9648 30.6806 26.4938 31.1348 26.8486 31.4457C27.2035 31.7567 27.5217 32.0119 27.5559 32.0128C27.59 32.0137 27.8666 31.6839 28.1708 31.2799C28.4749 30.8759 29.0128 30.2446 29.3663 29.877C29.7196 29.5094 30.0083 29.1631 30.0077 29.1075C30.0071 29.0518 29.6409 28.7097 29.1941 28.347C28.7471 27.9843 27.8683 27.252 27.2411 26.7196C26.6139 26.1873 25.3712 25.1361 24.4796 24.3839C23.5879 23.6316 22.6364 22.8283 22.3652 22.5986C22.094 22.369 20.94 21.3938 19.8009 20.4315C18.6617 19.4691 17.6183 18.586 17.4821 18.4688C17.346 18.3517 16.991 18.0565 16.6931 17.8125C16.3954 17.5687 16.1015 17.3222 16.0404 17.2646C15.9792 17.2071 15.6961 16.9628 15.4111 16.7217C15.1261 16.4807 14.8434 16.2368 14.7826 16.1798C14.7219 16.1227 14.4059 15.8606 14.0805 15.5975C13.5188 15.1432 12.5007 14.2758 11.9627 13.7931C11.8267 13.671 11.6706 13.5726 11.6158 13.5744C11.561 13.5762 11.3386 13.7838 11.1216 14.0359ZM71.0276 14.6843C70.8864 14.8044 70.376 15.2335 69.8934 15.638C69.4108 16.0426 68.9938 16.3986 68.9667 16.4293C68.9396 16.46 68.6511 16.706 68.3256 16.976C68.0002 17.246 67.7117 17.4892 67.6846 17.5165C67.6574 17.5437 67.2358 17.8986 66.7476 18.3053C66.2594 18.7119 65.8378 19.0688 65.8106 19.0983C65.7835 19.1278 65.3619 19.4828 64.8737 19.8872C64.3855 20.2916 63.9638 20.6447 63.9367 20.6721C63.9096 20.6994 63.6211 20.9426 63.2956 21.2126C62.9702 21.4826 62.6817 21.7287 62.6546 21.7593C62.6274 21.79 62.228 22.1303 61.7669 22.5155C58.7829 25.0082 53.034 29.8803 53.0124 29.9348C52.9982 29.9708 53.2086 30.2426 53.48 30.5389C53.7514 30.8351 53.9991 31.1553 54.0304 31.2502C54.1267 31.5426 54.3577 31.4467 55.0992 30.8063C55.4917 30.4674 56.8929 29.2801 58.2131 28.168C60.7423 26.0376 64.3377 23.0037 65.1696 22.2982C65.7582 21.799 68.6892 19.323 70.2465 18.0094C70.8575 17.4941 71.4519 16.9898 71.5674 16.8888C71.683 16.7878 71.9662 16.5495 72.1968 16.3592C72.4274 16.1688 72.6159 15.9738 72.6159 15.9258C72.6159 15.7871 71.4998 14.4584 71.3867 14.4624C71.3304 14.4643 71.1689 14.5641 71.0276 14.6843ZM3.93198 25.5791C3.51419 26.6647 3.25658 27.3648 3.07027 27.9215C2.96129 28.247 2.82183 28.616 2.76048 28.7416C2.68701 28.8917 2.68128 29.0215 2.74372 29.1204C2.79589 29.2031 3.57051 29.5371 4.46516 29.8625C5.35971 30.1878 6.73518 30.6906 7.52173 30.9797C14.5714 33.5713 19.877 35.5101 20.2447 35.6288C20.4888 35.7077 20.7773 35.8112 20.8858 35.8587C21.0577 35.9341 24.7352 37.2871 25.0456 37.3891C25.2128 37.4442 25.3379 37.2547 25.4688 36.7486C25.6649 35.9904 25.9719 35.1548 26.3707 34.294C26.5816 33.8389 26.7541 33.4338 26.7541 33.3936C26.7541 33.3535 26.6099 33.2666 26.4336 33.2007C26.2572 33.1347 25.9577 33.0204 25.7678 32.9467C25.1106 32.6913 22.6592 31.7983 22.2172 31.6533C21.9731 31.5732 21.263 31.3145 20.6392 31.0783C20.0154 30.8421 18.5064 30.2862 17.2859 29.8426C16.0653 29.3992 14.8004 28.9335 14.475 28.8076C14.1495 28.6818 13.3062 28.3717 12.6011 28.1185C11.8959 27.8654 10.6643 27.4179 9.86414 27.1241C9.06397 26.8304 7.7325 26.3432 6.90531 26.0415C6.07812 25.7399 5.19333 25.4071 4.93917 25.3018C4.24295 25.0137 4.13851 25.0424 3.93198 25.5791ZM56.5411 35.8363C56.5419 35.9312 56.6121 36.2087 56.6973 36.4528C56.9523 37.1845 57.2123 38.5969 57.3286 39.8822C57.4954 41.7288 57.2415 44.0249 56.666 45.8717C56.3902 46.7566 55.7225 48.3552 55.4097 48.8798C55.2963 49.0697 55.1474 49.336 55.0787 49.4716C55.0099 49.6072 54.6329 50.1495 54.2407 50.6765C51.4833 54.3834 47.6101 56.6549 43.0932 57.214C40.682 57.5125 38.5669 57.3163 36.1398 56.569C35.181 56.2739 33.3104 55.4108 32.5731 54.9234C32.3833 54.7979 32.1453 54.6406 32.0442 54.5738C30.877 53.8022 29.5132 52.5686 28.6591 51.512C28.3439 51.1221 28.0588 50.7809 28.0254 50.7538C27.992 50.7266 27.7601 50.3841 27.5101 49.9927C26.5424 48.4776 25.7621 46.6691 25.3704 45.0334C25.247 44.518 25.0946 44.0399 25.0319 43.9708C24.92 43.8477 24.7498 43.8939 23.6473 44.3465C23.5389 44.391 22.4515 44.7902 21.231 45.2337C20.0105 45.6772 18.0798 46.3855 16.9407 46.808C15.8015 47.2303 14.47 47.7167 13.9818 47.8888C13.4936 48.0608 12.9389 48.2632 12.749 48.3384C12.5591 48.4136 12.0931 48.5839 11.7134 48.7167C11.3337 48.8496 10.9121 49.0033 10.7764 49.0584C10.4685 49.1833 9.93958 49.3791 7.52173 50.2632C2.78553 51.9951 2.56954 52.0795 2.51392 52.2215C2.48462 52.2966 2.51194 52.4402 2.57477 52.5408C2.63759 52.6414 2.68898 52.7746 2.68898 52.8368C2.68898 53.1114 4.06513 56.7972 4.2686 57.0676C4.41664 57.2643 4.43025 57.2618 5.60007 56.8333C6.25012 56.5952 7.53652 56.1246 8.45869 55.7877C9.38086 55.4508 10.8011 54.9305 11.6148 54.6313C12.4285 54.3323 13.6934 53.8674 14.4257 53.5983C15.158 53.3292 16.4007 52.8709 17.1872 52.5798C17.9738 52.2887 19.2387 51.8295 19.9981 51.5594C20.7576 51.2891 21.5564 50.9992 21.7734 50.9151C21.9904 50.831 22.9668 50.4684 23.9432 50.1094C24.9196 49.7504 25.8644 49.3877 26.0426 49.3033C26.472 49.1 26.5849 49.2342 26.2117 49.5043C26.049 49.6219 25.6275 49.9657 25.2748 50.2682C24.7039 50.7579 21.9945 53.0503 17.7865 56.6042C16.3876 57.7855 15.0095 58.954 14.5243 59.3703C14.3887 59.4866 13.7238 60.0475 13.0468 60.6169C12.3698 61.1863 11.176 62.1991 10.3939 62.8676C9.61185 63.5361 8.8675 64.1515 8.73998 64.2351C8.61235 64.3187 8.50801 64.4519 8.50801 64.5312C8.50801 64.8543 12.008 69.0985 12.2745 69.0985C12.3214 69.0985 13.1067 68.466 14.0196 67.6931C14.9324 66.9201 16.1803 65.866 16.7927 65.3507C17.4051 64.8353 17.9551 64.368 18.0151 64.3123C18.0751 64.2565 19.4113 63.1274 20.9844 61.8032C25.2156 58.2415 25.7137 57.8204 25.7678 57.7607C25.795 57.7306 26.3719 57.2441 27.05 56.6794C27.7281 56.1148 28.4705 55.4742 28.6999 55.2559C29.1628 54.8155 29.3746 54.8355 29.0402 55.2879C28.922 55.4478 28.8253 55.6009 28.8253 55.6283C28.8253 55.6558 28.5666 56.1125 28.2504 56.6433C27.9342 57.1741 27.1508 58.5404 26.5095 59.6796C25.8682 60.8187 25.2104 61.9727 25.0477 62.2439C24.729 62.7749 24.743 62.7504 23.7497 64.5123C23.3828 65.1633 22.96 65.8956 22.8102 66.1397C22.6605 66.3838 22.4059 66.8276 22.2446 67.1259C22.0833 67.4243 21.5452 68.3732 21.0487 69.2345C20.5522 70.0959 20.1461 70.8193 20.1461 70.8419C20.1461 70.8647 20.0014 71.1142 19.8246 71.3963C19.6478 71.6785 19.4379 72.0425 19.3581 72.2053C19.2784 72.368 19.0015 72.8447 18.7427 73.2644C18.4839 73.6843 18.2721 74.0902 18.2721 74.1666C18.2721 74.4802 23.5034 77.5771 23.8249 77.4537C23.8917 77.4281 24.0123 77.2803 24.0927 77.1251C24.1732 76.9701 24.3986 76.5763 24.5935 76.2502C24.7885 75.924 25.0591 75.4575 25.1949 75.2134C25.3307 74.9693 25.721 74.2814 26.062 73.6847C26.4031 73.088 26.8163 72.3557 26.9802 72.0573C27.1441 71.759 27.5375 71.0806 27.8545 70.5498C28.1715 70.019 28.4308 69.5653 28.4308 69.5417C28.4308 69.5181 28.6305 69.1608 28.8746 68.748C29.1187 68.3351 29.3184 67.9833 29.3184 67.9663C29.3184 67.9491 29.4891 67.6532 29.6976 67.3086C29.9061 66.964 30.2125 66.438 30.3784 66.1397C30.5442 65.8413 31.1724 64.7365 31.7745 63.6845C32.3765 62.6326 32.869 61.7569 32.869 61.7385C32.869 61.7203 33.0147 61.4714 33.1928 61.1855C33.3708 60.8997 33.6465 60.4107 33.8054 60.0987C33.9642 59.7868 34.1292 59.5316 34.172 59.5316C34.2768 59.5316 34.2816 59.4895 34.0099 60.9523C33.7664 62.2633 33.4152 64.2443 32.8105 67.7177C31.8815 73.0547 31.6728 74.2448 31.5307 75.0162C31.4459 75.4772 31.3379 76.0986 31.2908 76.3969C31.0817 77.7202 30.7064 79.7575 30.657 79.8375C30.5254 80.0502 31.0622 80.2297 33.017 80.6269C33.8319 80.7924 35.6412 81.0734 37.1779 81.2731C37.3525 81.2958 37.5364 81.2609 37.5914 81.1945C37.679 81.0891 37.9405 79.7802 38.1953 78.1722C38.2982 77.5234 38.653 75.4931 39.1349 72.797C39.3287 71.7121 39.5719 70.3141 39.6753 69.6903C39.7787 69.0665 39.9777 67.9125 40.1177 67.1259C40.2576 66.3394 40.5038 64.9227 40.6646 63.9778C40.9381 62.3714 41.0033 62.0992 41.0892 62.2028C41.108 62.2254 41.2853 63.1981 41.4833 64.3644C41.8346 66.4323 42.1211 68.0763 42.5321 70.3807C42.6433 71.0045 42.8685 72.2916 43.0323 73.2409C43.1962 74.1901 43.4209 75.4772 43.5317 76.1011C43.6423 76.7249 43.7714 77.4572 43.8185 77.7284C44.3262 80.6549 44.464 81.3283 44.5551 81.3283C44.6799 81.3283 47.0222 81.0181 47.5645 80.9298C49.1472 80.672 51.6061 80.0955 51.6538 79.971C51.7037 79.841 51.6208 79.1714 51.4159 78.049C51.2369 77.0685 51.1381 76.5039 50.7729 74.3751C50.5775 73.2359 50.2901 71.5938 50.1343 70.7259C49.9784 69.8579 49.6882 68.2158 49.4893 67.0766C49.2905 65.9375 49.0202 64.4242 48.8886 63.7138C48.757 63.0035 48.6494 62.3684 48.6494 62.3026C48.6494 62.0837 48.8512 62.3036 49.0782 62.7698C49.2015 63.0229 49.6616 63.8534 50.1006 64.6151C50.5396 65.3768 51.021 66.2201 51.1704 66.489C51.3197 66.758 51.6125 67.2599 51.821 67.6045C52.0294 67.9491 52.2 68.2481 52.2 68.2691C52.2 68.2901 52.4663 68.7557 52.7918 69.3037C53.1173 69.8519 53.3836 70.3148 53.3836 70.3323C53.3836 70.35 53.5833 70.7022 53.8274 71.115C54.0715 71.5279 54.2712 71.9089 54.2712 71.9616C54.2712 72.0142 54.3156 72.0573 54.3698 72.0573C54.4241 72.0573 54.4685 72.0966 54.4685 72.1445C54.4685 72.1925 54.9345 73.043 55.5041 74.0345C56.0736 75.026 56.5396 75.8745 56.5396 75.9199C56.5396 75.9653 56.584 76.0024 56.6383 76.0024C56.6925 76.0024 56.7369 76.0443 56.7369 76.0953C56.7369 76.2964 57.6742 77.7777 57.8014 77.7777C58.3265 77.7777 64.3968 74.2139 64.7387 73.7048C64.7731 73.6538 64.5337 73.1624 64.2069 72.6128C63.88 72.0631 63.4921 71.3916 63.3449 71.1204C63.0619 70.5988 62.2234 69.1511 62.0598 68.9012C62.0065 68.8199 61.9328 68.6867 61.8961 68.6054C61.8593 68.524 61.3936 67.7106 60.8611 66.7979C60.3286 65.8851 59.893 65.1232 59.893 65.1047C59.893 65.0862 59.6933 64.7332 59.4492 64.3204C59.2051 63.9075 59.0053 63.5265 59.0053 63.4739C59.0053 63.4212 58.9661 63.3781 58.9182 63.3781C58.8703 63.3781 58.8062 63.3004 58.7757 63.2055C58.7453 63.1106 58.5906 62.811 58.4321 62.5398C58.2735 62.2685 57.866 61.5584 57.5263 60.9617C57.1866 60.365 56.8208 59.7523 56.7134 59.5999C56.3512 59.0862 56.6211 59.2115 57.448 59.9406C57.9002 60.3395 58.7738 61.0875 59.389 61.6028C60.0043 62.1181 60.558 62.5857 60.6195 62.6419C60.7449 62.7565 62.4937 64.2336 64.527 65.9424C65.2693 66.5662 66.5845 67.6783 67.4495 68.4136C68.3146 69.149 69.0781 69.7851 69.1462 69.8273C69.2709 69.9043 69.3645 69.8178 70.5448 68.5366C71.4176 67.5891 71.6416 67.3284 72.4771 66.2876C73.3135 65.2456 74.6871 63.3248 74.6871 63.1971C74.6871 63.1556 74.3653 62.8586 73.9721 62.5373C73.5788 62.216 72.9444 61.6856 72.5623 61.3588C71.1866 60.1818 70.7267 59.7946 70.4653 59.5932C70.3192 59.4805 70.1552 59.3387 70.1009 59.2781C70.0467 59.2174 69.6251 58.8545 69.164 58.4716C68.7029 58.0886 67.5268 57.1016 66.5503 56.2783C65.5739 55.455 64.4724 54.5364 64.1025 54.2373C63.7327 53.9382 63.4529 53.6704 63.481 53.6423C63.5091 53.6143 63.8782 53.7357 64.3014 53.9121C64.7246 54.0886 65.4455 54.3628 65.9035 54.5217C66.6414 54.7779 68.0461 55.2929 71.1365 56.4405C72.288 56.8681 72.8452 57.0714 73.7995 57.4115C74.2063 57.5566 74.8277 57.7869 75.1803 57.9233C77.3857 58.7766 77.2857 58.7765 77.6437 57.9259C77.7628 57.6427 77.9949 57.1005 78.1593 56.7207C78.4844 55.9701 78.5136 55.8981 78.8185 55.0934C79.0648 54.4437 79.5312 52.9468 79.9096 51.5921C80.2969 50.2055 80.3014 50.1795 80.1754 50.08C80.1132 50.031 78.5755 49.45 76.7583 48.7889C74.9411 48.1278 73.3433 47.5407 73.2077 47.4841C72.7843 47.3075 70.0386 46.3107 69.2626 46.0518C68.5278 45.8067 68.1968 45.6262 68.4785 45.624C68.5572 45.6235 71.4176 45.6124 74.8351 45.5994L81.0486 45.5758L81.1237 45.0827C81.1651 44.8115 81.2252 43.3246 81.2574 41.7787C81.303 39.58 81.2816 38.6277 81.1585 37.4065C81.072 36.5478 80.976 35.8044 80.9451 35.7545C80.9114 35.7 76.0211 35.6637 68.7143 35.6637C57.1846 35.6637 56.5397 35.6729 56.5411 35.8363ZM1.02286 38.5605C0.943467 38.6562 0.917823 39.3804 0.936463 41.002L0.962995 43.3074H12.9956H25.0281L24.9788 42.9129C24.9517 42.6959 24.9295 41.8748 24.9295 41.0883C24.9295 40.3017 24.9517 39.3919 24.9788 39.0664L25.0281 38.4746L13.082 38.4496C3.02687 38.4285 1.11784 38.446 1.02286 38.5605Z"
        fill="#CE1127" />
</svg>
    