<svg width="137" height="81" viewBox="0 0 137 81" fill="none" xmlns="http://www.w3.org/2000/svg">
    <path fill-rule="evenodd" clip-rule="evenodd"
        d="M83.4977 6.9444V13.6825H103.409H123.321L123.372 33.2001L123.423 52.7176L129.96 52.7228L136.497 52.7281L136.548 26.4672L136.599 0.206299H110.049H83.4977V6.9444ZM80.8829 25.27C72.2509 26.3419 65.0251 31.1078 60.7782 38.5304C57.2459 44.7039 56.2169 52.8693 58.0488 60.188C60.5047 69.9985 67.5763 77.1572 77.1619 79.5356C80.3859 80.3356 86.1165 80.4337 90.0053 79.7557C102.657 77.5492 109.728 67.8482 109.909 52.4493L109.947 49.1832H96.7728H83.5983V54.5134V59.8435L89.7832 59.8966L95.9682 59.9499V60.5272C95.9682 60.8446 95.6035 61.8327 95.158 62.7232C94.1562 64.7247 92.2649 66.5746 90.2032 67.5694C89.4467 67.9342 88.6842 68.3055 88.5086 68.3942C87.8004 68.7521 84.9475 69.0355 83.3497 68.9069C78.2748 68.4984 74.7565 66.2465 72.7596 62.1286C71.3661 59.2548 70.9845 57.3331 70.9888 53.206C70.9944 47.4148 72.205 43.4681 74.8663 40.5639C76.8499 38.399 78.7774 37.4181 81.9214 36.9736C86.8778 36.2726 92.8102 38.8665 95.3684 42.853C95.7214 43.4029 96.0764 43.8531 96.1575 43.8531C96.2387 43.8531 98.1073 42.849 100.31 41.6219C102.513 40.3947 104.836 39.1262 105.472 38.8031C106.108 38.4799 106.628 38.1233 106.628 38.0106C106.628 37.6504 104.879 35.1354 103.521 33.544C99.9594 29.3698 95.3401 26.7751 89.4554 25.6433C87.8646 25.3374 82.2939 25.0948 80.8829 25.27ZM0.319604 27.209C0.267107 27.3474 0.247194 38.9101 0.275756 52.9043L0.327449 78.3481H6.96498H13.6025L13.7031 63.1683L13.8036 47.9887L17.5102 52.8097C19.5487 55.4615 21.9431 58.5814 22.8309 59.7429C23.7189 60.9045 25.3501 63.0315 26.4562 64.4697C27.5622 65.9078 30.0577 69.1662 32.0015 71.7106C33.9455 74.255 35.896 76.8068 36.3358 77.3812L37.1356 78.4258L43.8234 78.4372L50.5112 78.4487V52.7031V26.9576H43.7731H37.035V41.8677V56.7778L35.8638 55.2936C31.9231 50.2995 28.1813 45.5388 18.7705 33.546L13.6025 26.96L7.00903 26.9588C1.91824 26.9578 0.393623 27.0149 0.319604 27.209Z"
        fill="white" />
</svg>
    