<svg width="82" height="81" viewBox="0 0 82 81" fill="none" xmlns="http://www.w3.org/2000/svg">
    <path fill-rule="evenodd" clip-rule="evenodd"
        d="M41.4475 0.98793C41.4475 1.03838 39.5789 6.58527 37.295 13.3146C35.0111 20.0439 33.1464 25.7818 33.1516 26.0654C33.1646 26.7886 37.0421 31.9639 37.5712 31.9639C38.0329 31.9639 39.0821 29.3029 40.8739 23.5877C41.4432 21.7723 41.9821 20.2844 42.0719 20.281C42.1615 20.278 43.1504 22.8707 44.2694 26.0426C45.5853 29.7726 46.4687 31.8433 46.7705 31.9042C47.2414 31.9993 51.2906 26.688 51.2906 25.975C51.2906 25.5616 43.1673 1.74708 42.8523 1.2377C42.6718 0.945481 41.4475 0.72801 41.4475 0.98793ZM0.906226 32.0254C0.703212 32.2284 0.537109 32.5637 0.537109 32.7704C0.537109 33.0626 15.9185 44.6923 21.4266 48.5643L22.4759 49.3019L24.5026 48.5772C27.6816 47.44 29.144 46.731 29.1387 46.3296C29.136 46.126 26.9951 44.2985 24.3811 42.2684C21.7672 40.2382 19.6241 38.4733 19.6183 38.3465C19.6127 38.2198 20.486 38.1158 21.5589 38.1158C26.5045 38.1158 31.9723 37.7015 32.1203 37.3158C32.2036 37.0986 31.2565 35.7375 30.0157 34.2906L27.7595 31.66L14.5174 31.6581C4.626 31.6569 1.18183 31.7498 0.906226 32.0254ZM54.8083 31.8916C54.2027 32.3096 50.8963 36.9922 50.8628 37.4794C50.8335 37.9017 51.6714 37.9725 57.5773 38.0451L64.3254 38.1281L63.2931 38.9903C61.6668 40.3478 62.1667 40.5766 66.7569 40.5766H70.8058L76.2672 36.9623C80.4976 34.1629 81.7304 33.1995 81.7357 32.6889C81.7397 32.3262 81.5237 31.9457 81.2561 31.843C80.5567 31.5745 55.1999 31.6212 54.8083 31.8916ZM37.4488 35.803C37.4488 36.0534 37.8293 36.3496 38.2947 36.4606C39.9369 36.8528 39.9095 36.7049 39.9095 45.1906C39.9095 53.7504 39.9271 53.6599 38.2178 53.8531C37.6487 53.9171 37.295 54.1339 37.295 54.4185C37.295 54.8144 38.4005 54.8916 45.0695 54.962C51.1267 55.026 52.8745 54.9583 52.983 54.6544C53.2263 53.9725 52.0898 49.9583 51.6533 49.9583C51.4297 49.9583 50.876 50.7196 50.4229 51.6501L49.5989 53.3419L47.5982 53.4311C44.2553 53.5803 44.3866 53.9036 44.2728 45.233C44.2116 40.5637 44.2925 37.6246 44.4927 37.2509C44.6668 36.9254 45.2294 36.5751 45.7428 36.4723C46.2931 36.3622 46.6767 36.0928 46.6767 35.8165C46.6767 35.417 45.9926 35.3475 42.0627 35.3475C38.1928 35.3475 37.4488 35.421 37.4488 35.803ZM58.2116 43.0561C56.8357 43.46 54.9775 45.1358 54.3337 46.5529C52.756 50.0266 54.49 53.851 58.1796 55.0343C59.8378 55.5661 62.6468 55.2601 64.2199 54.376C66.9944 52.8165 67.9889 48.7978 66.3438 45.7916C65.0015 43.3388 61.3884 42.1235 58.2116 43.0561ZM72.6317 43.2847C69.7932 44.4533 68.5161 46.3308 68.5161 49.3361C68.5161 51.6473 69.1931 53.0134 70.9584 54.2647C72.1153 55.0847 72.5059 55.1869 74.4638 55.1829C76.8375 55.1776 78.1854 54.5726 79.3949 52.9691C80.2232 51.871 79.5988 51.356 78.4933 52.2256C77.9596 52.6458 77.2202 52.8805 76.4315 52.8805C73.1405 52.8805 71.2626 49.2991 72.7901 45.9362C73.8344 43.6372 75.752 43.5154 77.7206 45.6227C78.6539 46.6215 78.9129 46.6227 79.29 45.6307C79.748 44.4262 79.3598 43.4323 78.2851 43.0577C76.9006 42.5751 74.0811 42.6883 72.6317 43.2847ZM61.6711 44.6498C62.2626 45.1232 62.9812 47.8956 62.9621 49.6298C62.9387 51.7049 62.3749 53.2441 61.4736 53.6919C59.7969 54.5255 58.3891 52.8276 58.1353 49.6661C57.9289 47.0961 58.2362 45.5994 59.1599 44.6756C59.9203 43.9153 60.7425 43.907 61.6711 44.6498ZM27.6198 54.4477C26.0203 54.9405 24.6124 55.4471 24.4912 55.5732C23.9302 56.1567 14.7066 79.9506 14.873 80.3846C14.9757 80.6525 15.2526 80.8718 15.4879 80.8718C15.7232 80.8718 21.2452 77.3486 27.7588 73.0423L39.6019 65.2127L39.6481 61.815C39.6736 59.9463 39.7081 58.2462 39.725 58.0371C39.8053 57.0435 38.3285 57.7255 33.6287 60.8522C30.8237 62.7184 28.5284 64.1564 28.5284 64.0472C28.5284 63.9383 29.359 61.6479 30.374 58.9577C31.3891 56.2671 32.2196 53.9377 32.2196 53.7808C32.2196 53.289 30.6333 53.5191 27.6198 54.4477ZM46.3691 61.2893V65.0841L58.211 72.978C64.724 77.3197 70.2651 80.8718 70.5244 80.8718C71.7766 80.8718 71.7615 80.8263 65.2036 64.723L62.8234 58.8786L60.0559 58.5206C56.0741 58.0054 55.9046 58.0131 55.9046 58.7052C55.9046 59.0327 56.3174 60.3732 56.8222 61.6839C57.3269 62.9946 57.696 64.1106 57.6425 64.1641C57.589 64.2176 55.278 62.739 52.5069 60.878C49.736 59.0171 47.2211 57.4944 46.9188 57.4944C46.4205 57.4944 46.3691 57.85 46.3691 61.2893Z"
        fill="white" />
</svg>
    