<svg width="71" height="81" viewBox="0 0 71 81" fill="none" xmlns="http://www.w3.org/2000/svg">
    <path fill-rule="evenodd" clip-rule="evenodd"
        d="M35.9483 0.98248C30.406 1.26597 25.3875 2.22926 24.5101 3.17783L24.1479 3.56952L26.0467 3.4909C27.091 3.44762 29.2419 3.32546 30.8265 3.21931C34.1356 2.99792 41.0798 2.96015 43.2463 3.15183C44.9835 3.30562 47.2476 3.79027 48.382 4.25124C49.3098 4.6282 50.7079 5.33105 51.2037 5.6696C51.5163 5.88305 51.8287 5.8956 55.3453 5.83644L59.1489 5.77242L59.9008 4.94012C60.3143 4.48236 60.6546 4.0502 60.6569 3.97978C60.6598 3.89629 59.2379 3.86402 56.5701 3.8872L52.4789 3.92267L50.9041 3.15375C46.7606 1.13089 43.1874 0.612172 35.9483 0.98248ZM15.3401 7.78914L13.6473 9.3577L18.798 9.39112L23.9486 9.42467L24.4745 8.97433C25.0289 8.49954 27.2112 6.82073 27.754 6.45132C28.0569 6.24529 27.7869 6.23364 22.5532 6.22724L17.0329 6.22058L15.3401 7.78914ZM56.8464 8.66549L56.1688 9.18548L58.7351 11.8071C60.1466 13.249 61.3014 14.4834 61.3014 14.5502C61.3014 14.6232 60.0906 14.6721 58.2603 14.6729L55.2192 14.6742L54.9954 15.2067C54.8723 15.4995 54.7972 15.7647 54.8284 15.796C54.8595 15.8272 55.2484 15.7905 55.6924 15.7143C57.0768 15.477 59.1388 15.3958 59.7255 15.5556C60.0208 15.636 60.5256 15.9166 60.8472 16.1791C61.5168 16.7255 68.2161 23.7055 68.2154 23.8558C68.215 23.9104 68.0709 24.7587 67.8952 25.7409C67.7194 26.7233 67.5757 27.5657 67.5757 27.6131C67.5757 27.6603 66.2344 28.3793 64.5951 29.2107L61.6146 30.7223L60.3376 29.4085C59.011 28.0437 58.9413 27.9313 58.808 26.9404L58.7273 26.3407L56.5531 25.6159L54.3789 24.8913L53.0705 25.2193C49.2045 26.1882 47.4068 26.2824 45.4451 25.6191C44.0682 25.1537 43.104 24.5619 41.8466 23.4107L40.8326 22.4824H39.6709C39.0321 22.4824 38.5092 22.5194 38.5092 22.5646C38.5092 22.7642 39.75 24.0704 40.6557 24.8241C42.534 26.3874 44.1051 27.1609 46.2597 27.583L47.4084 27.808L48.3064 28.9829C51.1259 32.6719 53.5084 37.672 55.1083 43.2578C55.1693 43.4708 53.8124 43.4819 27.89 43.4819H0.607654V44.8904V46.2989H29.482H58.3563L58.3535 45.4986C58.3423 42.2159 55.5305 35.5849 51.422 29.1517C50.6672 27.9696 50.4493 27.5353 50.5722 27.4584C50.6632 27.4014 51.3978 27.1983 52.2048 27.007L53.6719 26.6593L55.301 27.2214L56.9302 27.7834L57.0957 28.6163C57.2856 29.5715 57.2115 29.4799 59.5122 31.6068L61.2443 33.208L65.0747 31.4305C67.1814 30.4529 68.9408 29.5952 68.9843 29.5248C69.0278 29.4542 69.3639 27.9528 69.7312 26.1882L70.3988 22.9799L67.1306 19.5431C65.333 17.6529 63.8623 16.0724 63.8623 16.0311C63.8623 15.9896 64.0966 15.8006 64.3829 15.6111L64.9037 15.2665L61.3428 11.7039C59.3843 9.7444 57.7238 8.14216 57.653 8.14331C57.5821 8.14447 57.2192 8.37943 56.8464 8.66549ZM8.80771 13.9611C8.10064 14.8378 7.52213 15.5869 7.52213 15.6257C7.52213 15.6643 9.79303 15.696 12.5685 15.696H17.6151L18.6827 14.466C19.2701 13.7895 19.9145 13.0404 20.1151 12.8014L20.4796 12.3668H15.2864H10.0933L8.80771 13.9611ZM5.04444 20.1703C4.64647 21.0113 4.32098 21.7315 4.32098 21.7709C4.32098 21.81 6.55539 21.8422 9.28635 21.8422H14.2518L15.0268 20.2416L15.8018 18.641H10.7849H5.7679L5.04444 20.1703ZM2.8715 25.1394C2.83258 25.2625 2.60056 25.9828 2.35599 26.7399L1.91129 28.1164H6.89355C11.0101 28.1164 11.8757 28.0862 11.8757 27.9422C11.8757 27.8464 12.0774 27.1589 12.3238 26.4144C12.5703 25.67 12.772 25.0281 12.772 24.9881C12.772 24.9481 10.5603 24.9153 7.85723 24.9153C3.28868 24.9153 2.93732 24.931 2.8715 25.1394ZM1.24558 31.1575C1.2443 31.2104 1.15889 31.8009 1.05581 32.47C0.952738 33.139 0.867332 33.816 0.866051 33.9745L0.863746 34.2626H5.70465H10.5455L10.7728 32.8377C10.8977 32.0541 11.0303 31.3338 11.0673 31.2372C11.1238 31.0902 10.3283 31.0615 6.19135 31.0615C3.47242 31.0615 1.24686 31.1046 1.24558 31.1575ZM0.582942 38.9366L0.543631 40.5374L5.40937 40.5366L10.2751 40.5358V38.9358V37.3357H5.44868H0.622251L0.582942 38.9366ZM6.24167 50.1403V52.3171H29.354H52.4662V50.1403V47.9635H29.354H6.24167V50.1403ZM5.6606 54.6318C5.31116 54.9893 4.64379 55.5059 4.17757 55.7801C2.95755 56.4973 2.10131 57.2091 1.49885 58.0069C0.980012 58.6943 0.359501 60.1736 0.354251 60.7361L0.351562 61.0242H29.354C57.3061 61.0242 58.3563 61.0158 58.3563 60.7914C58.3563 60.371 57.9567 59.1787 57.6217 58.5994C57.0705 57.6464 56.3088 56.9257 54.8306 55.9586C54.0535 55.4501 53.2038 54.7973 52.9423 54.5078L52.4669 53.9817H29.3815H6.29609L5.6606 54.6318ZM0.351562 71.9084V80.8718L29.386 80.8396L58.4204 80.8073L58.4533 71.8761L58.4862 62.9449H29.4189H0.351562V71.9084ZM32.4075 66.3741C33.5859 66.9257 34.2262 67.457 34.8202 68.3761C35.5671 69.5316 35.8783 70.6803 35.8636 72.2282C35.845 74.1968 35.2767 75.5514 33.968 76.7476C32.5998 77.998 30.7941 78.5071 28.7725 78.2124C25.647 77.757 23.665 75.4032 23.6578 72.1385C23.6516 69.28 25.1331 67.0442 27.6069 66.1789C28.3511 65.9186 28.65 65.8866 29.9942 65.9225C31.4109 65.9605 31.5991 65.9957 32.4075 66.3741ZM51.2422 66.2732C52.2761 66.6723 53.1462 67.5466 53.417 68.4584C53.7674 69.6385 53.8006 69.6033 52.3342 69.6033C51.2237 69.6033 51.0399 69.5729 50.9777 69.3792C50.6165 68.2551 50.1791 67.9332 48.8868 67.8407C47.391 67.7338 46.5761 68.2227 46.5761 69.2271C46.5761 70.0388 47.0581 70.2796 50.1614 71.0188C51.7307 71.3927 52.3215 71.6502 52.9881 72.2513C53.6979 72.8912 53.9968 73.566 53.9987 74.533C54.0028 76.5426 52.5082 77.8881 49.9074 78.2164C46.554 78.6397 43.7564 77.0902 43.6042 74.7251L43.567 74.1489H44.8417H46.1164L46.2223 74.6584C46.4127 75.5747 47.1828 76.145 48.4688 76.3218C51.0025 76.6702 52.5223 74.6589 50.511 73.6189C50.2848 73.5019 49.2574 73.1897 48.2279 72.925C46.2719 72.4222 45.6017 72.1491 44.9231 71.578C43.542 70.416 43.7198 68.0071 45.2707 66.8686C46.3298 66.0912 47.1735 65.876 48.945 65.9314C50.1591 65.9693 50.6411 66.041 51.2422 66.2732ZM7.39408 68.4509V70.7557H9.955H12.5159V68.4509V66.146H13.8604H15.2049V72.1002V78.0543H13.8604H12.5159V75.4294V72.8044H9.955H7.39408V75.4294V78.0543H6.0496H4.70512V72.1002V66.146H6.0496H7.39408V68.4509ZM28.6932 68.1144C27.0846 68.6417 26.2599 70.1651 26.3689 72.4077C26.4535 74.1422 27.1283 75.3419 28.3296 75.893C28.9145 76.1614 30.223 76.2108 31.0033 75.9942C31.7218 75.7947 32.6515 74.8177 32.9491 73.9494C33.267 73.0215 33.2742 71.199 32.9632 70.2936C32.6885 69.4937 31.9944 68.6574 31.3196 68.3131C30.671 67.9822 29.3916 67.8854 28.6932 68.1144Z"
        fill="white" />
</svg>
    