<svg width="245" height="64" viewBox="0 0 245 64" fill="none" xmlns="http://www.w3.org/2000/svg">
    <path fill-rule="evenodd" clip-rule="evenodd"
        d="M2.79657 1.9644C0.282338 3.45738 -0.159752 10.4802 2.11738 12.7573C3.13617 13.7761 9.29455 14.2392 21.8213 14.2392H40.042L38.0699 19.4875C35.4643 26.4214 34.5554 55.4585 36.8042 59.9301C38.5824 63.4643 43.3849 64.5461 46.6339 62.143C48.4788 60.7797 48.8431 58.0296 49.1382 43.2591C49.7186 14.2058 49.6705 14.2392 91.7863 14.2392C118.783 14.2392 121.445 14.4294 123.316 16.4978C125.935 19.3911 125.89 20.7841 123.101 23.3094C121.172 25.0556 117.525 25.3544 98.0941 25.3581C77.7247 25.3618 74.9338 25.6138 71.3996 27.7686C64.6311 31.8956 63.4012 35.01 63.5012 47.7714C63.5679 56.3402 64.068 59.6769 65.498 61.1081C67.1565 62.7678 75.4352 63.0716 128.798 63.4285C162.564 63.6557 193.183 63.4668 196.84 63.0111C202.208 62.3406 204.449 61.2847 208.48 57.5245C213.041 53.2691 213.512 52.2416 213.939 45.5942C214.485 37.113 211.932 31.8425 205.329 27.8168C201.754 25.6372 199.083 25.3618 181.429 25.3581C163.746 25.3532 161.328 25.1037 159.51 23.0946C156.891 20.2012 156.935 18.8083 159.725 16.2829C161.7 14.496 165.856 14.2392 192.78 14.2392H223.579L225.558 10.9766C227.377 7.97954 227.375 7.42137 225.536 4.13533L223.533 0.557861L190.191 0.915979C160.12 1.23828 156.518 1.49761 153.475 3.56111C141.645 11.5867 142.491 29.5061 155.013 36.1276C159.89 38.7073 161.918 38.937 179.845 38.937C198.102 38.937 199.451 39.0963 200.687 41.4067C202.4 44.6076 200.391 48.5666 196.638 49.3841C195.13 49.7126 167.507 49.8583 135.256 49.7077C70.9723 49.4076 74.2324 49.8262 77.1183 42.2354L78.3717 38.937L100.322 38.9098C119.046 38.8863 123.015 38.5455 127.329 36.5857C133.921 33.5924 137.708 27.5019 137.708 19.8975C137.708 12.8215 135.321 7.93756 130.009 4.14892L125.977 1.27286L65.4672 0.976489C25.2888 0.780141 4.23151 1.11233 2.79657 1.9644ZM229.09 1.21482C229.09 1.52231 229.725 3.16718 230.5 4.86886C231.64 7.37074 231.516 8.56488 229.854 11.1013L227.798 14.2392H234.476C240.238 14.2392 241.433 13.8156 243.18 11.1495C245.021 8.33889 245.031 7.72515 243.29 4.35761C241.552 0.997482 240.808 0.655418 235.232 0.655418C231.854 0.655418 229.09 0.907335 229.09 1.21482Z"
        fill="#0A8FD1" />
    <path fill-rule="evenodd" clip-rule="evenodd"
        d="M229.147 1.11727C229.147 1.42475 229.782 3.06962 230.557 4.7713C231.697 7.27319 231.574 8.46732 229.912 11.0038L227.855 14.1416H234.534C240.296 14.1416 241.49 13.7181 243.237 11.0519C245.078 8.24134 245.088 7.6276 243.347 4.26006C241.61 0.899926 240.865 0.557861 235.29 0.557861C231.911 0.557861 229.147 0.809779 229.147 1.11727Z"
        fill="white" />
</svg>
    