<svg width="81" height="100" viewBox="0 0 81 100" fill="none" xmlns="http://www.w3.org/2000/svg">
    <g clip-path="url(#clip0_279_1700)">
        <path fill-rule="evenodd" clip-rule="evenodd"
            d="M4.38525 2.20361V56.9864C4.56584 66.7041 27.6729 87.2299 41.0786 97.5984L41.0792 97.4771L41.1466 97.5587C54.5523 87.1902 77.4611 66.7041 77.6417 56.9864V2.20361H41.4349H40.5921H4.38525Z"
            fill="#AD2227" />
        <path d="M4.36084 27.2947V29.9864H77.6172V27.2947H4.36084Z" fill="white" />
        <path fill-rule="evenodd" clip-rule="evenodd"
            d="M7.09912 36.2612L8.2119 38.566L21.9826 45.3953C23.7453 46.3858 25.3173 46.8095 27.1326 46.8508H35.1935C36.4155 46.824 36.6453 47.4046 35.4174 47.7464L7.11833 56.7098L8.65973 58.3823L27.2446 58.4943C29.6936 58.6166 31.9352 58.0649 33.962 56.8149L39.9025 52.6985L39.8957 46.0671C39.9202 44.2236 37.9016 41.9861 34.9764 41.5232L7.09912 36.2612Z"
            fill="white" />
        <path fill-rule="evenodd" clip-rule="evenodd"
            d="M74.8957 36.2612L73.7829 38.566L60.0122 45.3953C58.2495 46.3858 56.6775 46.8095 54.8622 46.8508H46.8013C45.5793 46.824 45.3495 47.4046 46.5774 47.7464L74.8765 56.7098L73.3351 58.3823L54.7502 58.4943C52.3012 58.6166 50.0596 58.0649 48.0328 56.8149L42.0923 52.6985L42.0991 46.0671C42.0746 44.2236 44.0932 41.9861 47.0184 41.5232L74.8957 36.2612Z"
            fill="white" />
        <path fill-rule="evenodd" clip-rule="evenodd"
            d="M41.1465 55.438L41.1459 55.4599L36.7792 59.04C36.0832 59.6725 36.4108 60.0258 36.8585 60.3463L38.917 61.8508C39.4664 62.2827 39.3554 62.7408 38.9566 62.9984L37.6498 63.9483L38.2837 64.7402C38.8129 65.4257 39.1509 65.6666 39.1543 67.432L39.2733 87.342C39.2244 91.8182 40.4628 95.3128 40.8962 96.8419H41.1465H41.1731H41.4235C41.8568 95.3128 43.0952 91.8182 43.0464 87.342L43.1647 67.432C43.1681 65.6666 43.5068 65.4257 44.036 64.7402L44.6692 63.9483L43.363 62.9984C42.9642 62.7408 42.8533 62.2827 43.4027 61.8508L45.4606 60.3463C45.9083 60.0258 46.2359 59.6725 45.5399 59.04L41.185 55.4694L41.1731 55.438L41.1595 55.4487L41.1465 55.438Z"
            fill="white" />
        <path fill-rule="evenodd" clip-rule="evenodd"
            d="M34.7592 29.8891L41.1872 33.9196L49.3001 28.9935L32.9023 28.8103L34.7592 29.8891Z"
            fill="white" />
        <path fill-rule="evenodd" clip-rule="evenodd"
            d="M40.6583 33.3907L37.4125 37.824C36.7792 38.8267 36.8847 39.5128 37.7292 39.8823H44.1416C45.4996 39.8356 45.1362 38.9282 44.8541 38.0615L41.45 33.074L41.0541 32.9949L40.8166 33.074L40.6583 33.3907Z"
            fill="white" />
        <path fill-rule="evenodd" clip-rule="evenodd"
            d="M10.79 6.78811L13.4439 10.0208H14.1808V10.0202L16.8749 10.0516L14.0222 12.944V23.2328H18.509H18.8032H19.3927H20.0354H22.3596C22.6753 23.2328 23.3264 23.1578 24.3051 23.0085C25.043 22.8929 25.5921 22.7198 25.9552 22.4693C26.5313 22.0745 27.0128 21.5397 27.3443 20.8559C27.6718 20.1697 27.8491 19.4089 27.8491 18.5566C27.8491 17.5116 27.6047 16.64 27.143 15.9417C26.6695 15.2555 25.9111 14.7693 24.9088 14.4852C25.5638 14.2107 26.0855 13.8472 26.421 13.3849C26.93 12.6867 27.1981 11.8607 27.1981 10.8832C27.1981 9.72981 26.8231 8.75679 26.1167 7.96944C25.3985 7.17968 24.3447 6.78987 22.9912 6.78987H20.0354H19.3927H18.8032H18.509H14.1772V6.78809L10.79 6.78811ZM18.2078 10.122H18.509H18.8032H19.3927H20.0354H21.1599C21.8229 10.122 22.2888 10.2548 22.5532 10.5269C22.8058 10.7965 22.9438 11.1645 22.9438 11.6461C22.9438 12.1637 22.8057 12.5542 22.5532 12.8239C22.2888 13.1056 21.8109 13.2405 21.1321 13.2405H20.0354H19.3927H18.8032H18.509H18.2078V10.122ZM18.2078 16.3679H18.509H18.8032H19.3927H20.0354H21.4482C22.2058 16.3679 22.7465 16.5127 23.0503 16.8065C23.3424 17.1099 23.5001 17.5021 23.5001 17.9837C23.5001 18.511 23.3424 18.925 23.0385 19.2283C22.7386 19.5438 22.2058 19.7006 21.46 19.7006H20.0354H19.3927H18.8032H18.509H18.2078V16.3679Z"
            fill="white" />
        <path fill-rule="evenodd" clip-rule="evenodd"
            d="M32.6436 6.56567L30.8296 8.24418V23.0086H36.4274H42.1506H42.846V19.2864H42.1506H36.4274H34.9892V16.0431H37.1323H41.4457H42.846V12.6914H41.4457H37.1323H34.9892V10.0766H36.631H41.947H42.846V6.56567H41.947H36.631H32.6436Z"
            fill="white" />
        <path fill-rule="evenodd" clip-rule="evenodd"
            d="M48.4563 6.40747L46.5659 8.157V22.8504H54.0973H57.1891H58.7729V18.8027H57.1891H50.7142V6.40747H48.4563Z"
            fill="white" />
        <path fill-rule="evenodd" clip-rule="evenodd"
            d="M63.9392 6.40747L62.0488 8.157V22.8504H69.5802H72.6721H74.2559V18.8027H72.6721H66.1971V6.40747H63.9392Z"
            fill="white" />
        <path fill-rule="evenodd" clip-rule="evenodd"
            d="M72.7696 5.10388C72.7696 4.48081 72.7696 3.85815 72.7696 3.23508C72.505 3.23508 72.2403 3.23508 71.9756 3.23508C71.9756 3.10822 71.9756 2.98136 71.9756 2.85449C72.6845 2.85449 73.3934 2.85449 74.1023 2.85449C74.1023 2.98136 74.1023 3.10822 74.1023 3.23508C73.8384 3.23508 73.5744 3.23508 73.3097 3.23508C73.3097 3.85815 73.3097 4.48081 73.3097 5.10388C73.1295 5.10388 72.9499 5.10388 72.7696 5.10388Z"
            fill="white" />
        <path fill-rule="evenodd" clip-rule="evenodd"
            d="M74.4438 5.10388C74.4438 4.35395 74.4438 3.60442 74.4438 2.85449C74.7135 2.85449 74.9832 2.85449 75.2529 2.85449C75.4117 3.36636 75.5798 3.87702 75.7386 4.38887C75.8953 3.87702 76.0613 3.36636 76.2187 2.85449C76.4883 2.85449 76.7587 2.85449 77.0291 2.85449C77.0291 3.60442 77.0291 4.35395 77.0291 5.10388C76.8618 5.10388 76.6944 5.10388 76.527 5.10388C76.527 4.51373 76.527 3.92358 76.527 3.33344C76.3531 3.92358 76.1693 4.51333 75.9955 5.10388C75.8223 5.10388 75.6492 5.10388 75.4754 5.10388C75.3023 4.51333 75.1191 3.92358 74.946 3.33344C74.946 3.92358 74.946 4.51373 74.946 5.10388C74.7786 5.10388 74.6112 5.10388 74.4438 5.10388Z"
            fill="white" />
    </g>
    <defs>
        <clipPath id="clip0_279_1700">
            <rect width="80" height="99.3939" fill="white" transform="translate(0.865723 0.15332)" />
        </clipPath>
    </defs>
</svg>
    