<svg width="81" height="81" viewBox="0 0 81 81" fill="none" xmlns="http://www.w3.org/2000/svg">
    <path fill-rule="evenodd" clip-rule="evenodd"
        d="M33.6391 0.42513C19.3193 2.09636 7.11748 11.9702 2.60399 25.539C1.10033 30.059 0.850098 31.7618 0.850098 37.4748C0.850098 41.9412 0.926495 42.9522 1.43598 45.2399C5.10558 61.713 18.7773 73.4966 35.6081 74.6924L38.0536 74.8662L37.9877 66.0021L37.9219 57.1379L36.0059 56.9821C25.6639 56.1415 17.6186 46.7125 18.3359 36.273C18.5371 33.3456 19.0391 31.5286 20.3987 28.8053C23.031 23.5331 27.533 19.8778 33.1707 18.436C35.8411 17.7529 39.9974 17.7539 42.7036 18.4377C50.7607 20.4742 56.7288 27.5143 57.4865 35.8762L57.654 37.7253H66.4248H75.1955L75.0344 34.9074C74.5392 26.2456 70.9598 18.181 64.7478 11.7315C60.8114 7.6446 56.7313 4.8775 51.5733 2.79622C46.2763 0.659083 39.4112 -0.248675 33.6391 0.42513ZM41.0529 60.4686V80.2063L42.7437 80.1249C62.9017 79.1535 78.8904 63.4649 80.2743 43.2986L80.4507 40.7311H60.7518H41.0529V60.4686Z"
        fill="#77C699" />
    <path fill-rule="evenodd" clip-rule="evenodd"
        d="M33.3603 0.626115C32.947 0.677715 31.4952 0.950994 30.1338 1.23329C22.4507 2.82612 15.1994 7.03878 10.0792 12.8843C4.55451 19.1918 1.41569 26.7249 0.774698 35.2161L0.599609 37.5351L9.34028 37.4692L18.0807 37.4033L18.2488 35.3774C18.9967 26.3612 26.6828 18.7915 36.053 17.8424L37.7438 17.6711V9.06395V0.456787L35.9277 0.49436C34.9288 0.514899 33.7736 0.574264 33.3603 0.626115Z"
        fill="#8D8B8C" />
</svg>
    