<svg width="86" height="86" viewBox="0 0 86 86" fill="none" xmlns="http://www.w3.org/2000/svg">
<path fill-rule="evenodd" clip-rule="evenodd" d="M48.6487 0.811341L48.228 1.23189L48.228 8.35166L48.228 15.4713L42.7441 15.4713L37.2603 15.4713L37.2603 12.4819C37.2603 9.62324 37.2435 9.47363 36.8747 9.06268C36.6625 8.82619 34.6769 7.12465 32.4619 5.28121C30.2469 3.43794 28.2612 1.88344 28.0491 1.82706C27.8369 1.77068 27.4901 1.77068 27.2779 1.82706C27.0658 1.88344 25.0801 3.43794 22.8651 5.28121C20.6501 7.12465 18.6645 8.82619 18.4523 9.06268C18.0688 9.49025 18.0667 9.52178 18.0667 15.2238L18.0667 20.9551L12.3181 20.9551L6.56927 20.9551L6.14873 21.3759L5.72801 21.7964L5.72801 32.3436L5.72801 42.8906L7.09898 42.8906L8.46995 42.8906L8.46995 33.2938L8.46995 23.6971L13.2683 23.6971L18.0667 23.6971L18.0667 33.2938L18.0667 42.8906L19.4377 42.8906L20.8087 42.8906L20.8087 26.785L20.8087 10.6796L24.1932 7.85092C26.0548 6.29504 27.6164 5.02227 27.6635 5.02227C27.7106 5.02227 29.2722 6.29504 31.1338 7.85092L34.5183 10.6796L34.5183 26.785L34.5183 42.8906L35.8893 42.8906L37.2603 42.8906L37.2603 30.5519L37.2603 18.2132L42.7441 18.2132L48.228 18.2132L48.228 30.5519L48.228 42.8906L49.599 42.8906L50.9699 42.8906L50.9699 23.0116L50.9699 3.13256L57.8248 3.13256L64.6796 3.13256L64.6796 23.0116L64.6796 42.8906L66.0506 42.8906L67.4216 42.8906L67.4216 33.9793L67.4216 25.068L72.2199 25.068L77.0183 25.068L77.0183 33.9793L77.0183 42.8906L78.3893 42.8906L79.7603 42.8906L79.7603 33.0291L79.7603 23.1674L79.3396 22.7468L78.919 22.3261L73.1702 22.3261L67.4216 22.3261L67.4216 11.7791L67.4216 1.23189L67.0008 0.811341L66.5803 0.390625L57.8248 0.390625L49.0693 0.390625L48.6487 0.811341ZM53.7119 8.61643L53.7119 9.9874L55.0829 9.9874L56.4538 9.9874L56.4538 8.61643L56.4538 7.24546L55.0829 7.24546L53.7119 7.24546L53.7119 8.61643ZM59.1958 8.61643L59.1958 9.9874L60.5667 9.9874L61.9377 9.9874L61.9377 8.61643L61.9377 7.24546L60.5667 7.24546L59.1958 7.24546L59.1958 8.61643ZM23.5506 14.1003L23.5506 15.4713L27.6635 15.4713L31.7764 15.4713L31.7764 14.1003L31.7764 12.7293L27.6635 12.7293L23.5506 12.7293L23.5506 14.1003ZM53.7119 15.4713L53.7119 16.8422L55.0829 16.8422L56.4538 16.8422L56.4538 15.4713L56.4538 14.1003L55.0829 14.1003L53.7119 14.1003L53.7119 15.4713ZM59.1958 15.4713L59.1958 16.8422L60.5667 16.8422L61.9377 16.8422L61.9377 15.4713L61.9377 14.1003L60.5667 14.1003L59.1958 14.1003L59.1958 15.4713ZM23.5506 20.9551L23.5506 22.3261L27.6635 22.3261L31.7764 22.3261L31.7764 20.9551L31.7764 19.5842L27.6635 19.5842L23.5506 19.5842L23.5506 20.9551ZM53.7119 22.3261L53.7119 23.6971L55.0829 23.6971L56.4538 23.6971L56.4538 22.3261L56.4538 20.9551L55.0829 20.9551L53.7119 20.9551L53.7119 22.3261ZM59.1958 22.3261L59.1958 23.6971L60.5667 23.6971L61.9377 23.6971L61.9377 22.3261L61.9377 20.9551L60.5667 20.9551L59.1958 20.9551L59.1958 22.3261ZM0.244141 47.0035L0.244141 48.3745L42.7441 48.3745L85.2441 48.3745L85.2441 47.0035L85.2441 45.6326L42.7441 45.6326L0.244141 45.6326L0.244141 47.0035ZM2.17206 51.0585C1.48881 51.2947 0.929624 51.5653 0.929624 51.66C0.929624 51.7548 1.55907 53.7727 2.32835 56.1441C3.4995 59.7546 3.81465 60.5441 4.26485 60.996C4.56063 61.2928 5.12341 61.6319 5.51551 61.7493C6.16826 61.9448 6.37768 61.9164 7.99182 61.4129C8.96178 61.1103 9.8757 60.8285 10.0229 60.7867C10.2003 60.7362 10.4268 60.9564 10.6952 61.4402C10.9176 61.8415 11.4852 62.7482 11.9563 63.4551C12.4272 64.162 13.0879 65.0874 13.4243 65.5116C13.7607 65.9357 14.4187 66.7311 14.8868 67.2789C15.508 68.0062 15.6936 68.3387 15.5741 68.5106C15.4842 68.6401 14.9203 69.4617 14.3212 70.3364C13.279 71.8581 13.2351 71.9637 13.3036 72.7892C13.3431 73.2636 13.5155 73.8654 13.6867 74.1266C13.8579 74.3877 15.6536 75.8017 17.6772 77.2688C19.7009 78.7359 21.5857 80.0163 21.8658 80.1139C22.1459 80.2115 22.6811 80.2504 23.055 80.2001C23.4291 80.1501 23.9302 79.9811 24.1687 79.8248C24.4073 79.6685 25.1094 78.852 25.7292 78.01C26.3489 77.1681 26.9113 76.4793 26.979 76.4793C27.0466 76.4793 27.5946 76.6997 28.1968 76.9689C28.7988 77.2383 29.9085 77.6712 30.6625 77.9312C31.4165 78.1912 32.8817 78.6144 33.9185 78.8718L35.8036 79.34L35.8893 81.4969C35.9623 83.3345 36.0281 83.7252 36.3335 84.1367C36.5307 84.4022 36.947 84.7929 37.2586 85.005C37.8136 85.3827 37.925 85.3906 42.7441 85.3906C47.5768 85.3906 47.6733 85.3838 48.2414 85.0009C48.5594 84.7867 48.9951 84.3511 49.2093 84.033C49.5616 83.5103 49.599 83.2548 49.599 81.3677L49.599 79.2806L50.7509 79.0682C51.3843 78.9515 52.7471 78.5831 53.7789 78.2494C54.8107 77.9159 56.2759 77.3811 57.0346 77.0611C57.7934 76.7412 58.4619 76.4793 58.5204 76.4793C58.5788 76.4793 59.07 77.0952 59.612 77.8479C60.1541 78.6007 60.8241 79.4074 61.1012 79.6406C61.3783 79.8737 61.8727 80.1146 62.1997 80.1761C62.5269 80.2375 63.0451 80.2397 63.3515 80.1809C63.6872 80.1167 65.4059 78.988 67.6786 77.3394C70.7201 75.133 71.5233 74.4657 71.8344 73.8868C72.0465 73.4923 72.2199 72.9553 72.2199 72.6934C72.2199 72.4315 72.1409 72.0098 72.0445 71.756C71.9482 71.5024 71.4022 70.6479 70.8315 69.8574C70.2608 69.0669 69.8192 68.3594 69.8501 68.2856C69.8811 68.2117 70.6005 67.2861 71.4488 66.2291C72.2971 65.1719 73.4336 63.5946 73.9744 62.7242C74.5153 61.8538 75.0183 61.0366 75.0921 60.9081C75.201 60.7192 75.605 60.7958 77.2051 61.3087C79.0316 61.8943 79.2415 61.9272 79.939 61.7395C80.3817 61.6203 80.909 61.3084 81.2128 60.9864C81.6298 60.5439 82.0117 59.5758 83.1687 56.0288C83.9594 53.6046 84.5696 51.5843 84.5246 51.5394C84.4797 51.4945 83.8869 51.2686 83.2072 51.0374C82.312 50.7329 81.9523 50.6741 81.901 50.8239C81.8621 50.9377 81.2431 52.8298 80.5253 55.0285C79.6756 57.6314 79.1498 58.9992 79.0182 58.9488C78.9072 58.9061 78.0502 58.6257 77.114 58.3258C75.8249 57.913 75.2498 57.808 74.7446 57.8933C74.3775 57.9553 73.8288 58.2242 73.5251 58.4909C73.2214 58.7575 72.5591 59.6558 72.0532 60.4872C71.5473 61.3183 70.7357 62.5383 70.2497 63.1981C69.7637 63.8579 68.957 64.8604 68.4572 65.4259C67.9573 65.9914 67.4044 66.6855 67.2286 66.9682C67.0399 67.2714 66.9086 67.7987 66.9086 68.2535C66.9086 68.7347 67.0449 69.2502 67.2706 69.6245C67.4697 69.9544 68.0238 70.7545 68.5017 71.4026C69.3399 72.5388 69.3593 72.5899 69.039 72.8303C68.8563 72.9674 67.3689 74.0488 65.7336 75.2333C64.0848 76.4276 62.7107 77.3113 62.6489 77.2174C62.5877 77.1244 62.0748 76.4223 61.5094 75.6573C60.9251 74.8669 60.2122 74.1154 59.8579 73.9163C59.5152 73.7237 58.9658 73.566 58.6369 73.566C58.3082 73.566 57.0077 73.977 55.7471 74.4793C54.4863 74.9814 52.7222 75.5916 51.8268 75.8353C50.9314 76.079 49.7894 76.3709 49.2891 76.484C48.7887 76.5971 48.1497 76.8829 47.8692 77.1191C47.5885 77.3552 47.2459 77.7667 47.1079 78.0335C46.9302 78.3774 46.857 79.0955 46.857 80.498L46.857 82.4773L42.7441 82.4773L38.6312 82.4773L38.6312 80.5868C38.6312 79.3777 38.5469 78.4945 38.3975 78.1367C38.269 77.829 37.9223 77.3741 37.6273 77.1259C37.2728 76.8276 36.6401 76.5755 35.7618 76.3825C35.0307 76.2218 33.6865 75.8705 32.7746 75.6016C31.8626 75.3327 30.3018 74.7648 29.3059 74.3394C28.2981 73.9089 27.2262 73.566 26.8884 73.566C26.5546 73.566 26.0182 73.676 25.6962 73.8106C25.2876 73.9813 24.7425 74.5518 23.8918 75.6984C23.0613 76.818 22.6038 77.2997 22.4559 77.2104C22.3364 77.1383 20.8722 76.0842 19.2019 74.8683C17.4827 73.6166 16.1991 72.5678 16.244 72.4513C16.2874 72.338 16.7922 71.5893 17.3656 70.7876C17.9392 69.9857 18.4562 69.0903 18.5149 68.7976C18.5733 68.5051 18.573 68.0083 18.514 67.6937C18.4461 67.3321 17.9552 66.589 17.1799 65.674C16.505 64.8777 15.5544 63.6865 15.0672 63.0267C14.58 62.3669 13.7768 61.1529 13.2824 60.3292C12.7882 59.5052 12.1866 58.6761 11.9459 58.4868C11.7053 58.2974 11.2091 58.0528 10.8436 57.9433C10.2445 57.7639 9.99018 57.8056 8.25762 58.3675C7.20095 58.7104 6.286 58.9349 6.22447 58.8667C6.16295 58.7983 5.52271 56.911 4.80158 54.6724C4.08028 52.4339 3.47328 50.6085 3.45238 50.6159C3.43164 50.6232 2.85549 50.8225 2.17206 51.0585ZM16.3102 51.1411C15.7683 51.3317 15.3248 51.5879 15.3248 51.7101C15.3248 51.8324 15.5225 52.4581 15.7644 53.1004C16.0062 53.7427 16.5518 54.962 16.977 55.8098C17.402 56.6577 18.0998 57.8959 18.5275 58.5611C18.9553 59.2264 19.8887 60.4918 20.6018 61.3733C21.3151 62.2549 22.5769 63.5754 23.4061 64.3081C24.2352 65.0407 25.5902 66.0997 26.4171 66.6615C27.244 67.2232 28.4989 67.9954 29.2058 68.3774C29.9127 68.7596 31.1891 69.3484 32.0422 69.686C32.8953 70.0236 34.3219 70.4916 35.2126 70.7259C36.1032 70.9603 37.7187 71.2801 38.8026 71.4367C40.2759 71.6496 41.4871 71.6998 43.601 71.6355C45.5198 71.5773 47.0329 71.4287 48.3086 71.1733C49.3424 70.9665 50.9936 70.5278 51.978 70.1984C52.9621 69.8692 54.5454 69.2106 55.4962 68.7349C56.447 68.2594 57.8419 67.4688 58.596 66.9782C59.35 66.4876 60.4682 65.6693 61.0808 65.1601C61.6935 64.6508 62.7258 63.6925 63.375 63.0307C64.0243 62.3687 64.9975 61.2472 65.5378 60.5382C66.0782 59.8293 66.8372 58.7316 67.2245 58.0991C67.6116 57.4664 68.1891 56.4269 68.5075 55.7892C68.8259 55.1514 69.2845 54.1283 69.5265 53.5156C69.7683 52.903 70.0168 52.1988 70.0783 51.9507C70.1846 51.5236 70.1335 51.4806 69.1156 51.1367C68.5242 50.937 67.9153 50.7737 67.7622 50.7737C67.5765 50.7737 67.3885 51.0772 67.1957 51.6888C67.037 52.1921 66.5195 53.3969 66.0454 54.3661C65.5714 55.3352 64.7069 56.8322 64.1239 57.6924C63.4973 58.617 62.2206 60.1004 61.0013 61.3204C59.6643 62.6581 58.3728 63.7569 57.3304 64.4439C56.4458 65.027 55.0191 65.8456 54.16 66.2634C53.3009 66.6812 51.8938 67.2567 51.0334 67.5425C50.1727 67.8282 48.6689 68.2145 47.6916 68.4011C46.7141 68.5877 45.0662 68.7918 44.0294 68.8547C42.9741 68.9188 41.3727 68.8879 40.3914 68.785C39.4273 68.6837 38.0513 68.4794 37.3338 68.3313C36.6164 68.1831 35.3231 67.8316 34.4599 67.5504C33.5965 67.269 32.042 66.6188 31.0052 66.1052C29.9684 65.5916 28.4261 64.6717 27.5778 64.0608C26.7295 63.4498 25.3556 62.2789 24.5247 61.4585C23.6937 60.6381 22.5296 59.3217 21.9376 58.533C21.3457 57.7444 20.5067 56.4663 20.0733 55.6929C19.6399 54.9195 18.9762 53.5156 18.5981 52.5731C18.108 51.3509 17.8227 50.8501 17.6033 50.8268C17.434 50.809 16.852 50.9504 16.3102 51.1411Z" fill="white"/>
</svg>
