<svg width="85" height="63" viewBox="0 0 85 63" fill="none" xmlns="http://www.w3.org/2000/svg">
<path fill-rule="evenodd" clip-rule="evenodd" d="M23.1771 5.91019C13.6274 8.59353 4.67098 11.0862 3.27369 11.4499C1.14656 12.0032 0.763987 12.321 0.919372 13.4058C1.08417 14.5511 2.29547 15.032 11.4055 17.5682C17.0706 19.1456 21.7763 20.5017 21.8628 20.5817C21.9493 20.6618 21.1983 22.4846 20.193 24.6317C19.1883 26.7795 18.0706 30.2615 17.7092 32.3698C17.2937 34.7965 17.2584 36.4033 17.6133 36.7494C17.9217 37.0496 23.5002 39.1691 30.0099 41.4592C36.5196 43.7494 42.3177 45.6234 42.8945 45.6234C43.4713 45.6234 49.2694 43.7494 55.7791 41.4592C62.2888 39.1691 67.8674 37.0496 68.1758 36.7494C68.5307 36.4033 68.4954 34.7965 68.0799 32.3698C67.7185 30.2615 66.6008 26.7795 65.5961 24.6317C64.5908 22.4846 63.8397 20.6629 63.9263 20.5847C64.0128 20.5064 66.0869 19.8843 68.5354 19.2015C70.9839 18.5187 73.1687 17.9602 73.3912 17.9602C73.6131 17.9602 73.795 21.5641 73.795 25.9684C73.795 33.6511 73.7355 34.0472 72.3235 35.7247C71.5142 36.6864 70.8521 38.1155 70.8521 38.9001C70.8521 39.6847 71.3818 40.8559 72.0292 41.5034C72.6767 42.1508 73.2046 43.2762 73.2023 44.0048C73.2005 44.7329 72.6655 48.8983 72.0134 53.2609C71.3618 57.6234 70.9574 61.5298 71.1158 61.9424C71.3088 62.4445 72.6802 62.6923 75.2664 62.6923C77.8527 62.6923 79.2241 62.4445 79.4171 61.9424C79.5754 61.5298 79.1711 57.6234 78.5195 53.2609C77.8674 48.8983 77.3324 44.7329 77.3306 44.0048C77.3282 43.2762 77.8562 42.1508 78.5036 41.5034C79.1511 40.8559 79.6808 39.6847 79.6808 38.9001C79.6808 38.1155 79.0186 36.6864 78.2093 35.7247C76.7885 34.0361 76.7379 33.6847 76.7379 25.464L76.7379 16.9519L80.7108 15.8183C83.8738 14.9161 84.7208 14.4287 84.865 13.4299C84.9815 12.6253 84.6649 12.0609 83.9821 11.856C83.3971 11.6806 74.2194 9.14149 63.5878 6.2139C52.9563 3.28689 43.4213 0.922564 42.399 0.96141C41.3766 0.999667 32.7268 3.22685 23.1771 5.91019ZM59.9069 8.34868C69.0022 10.8319 76.6949 13.0832 77.0027 13.3516C77.31 13.6206 75.9857 13.8366 74.0598 13.8319C72.1334 13.8272 65.2606 13.4322 58.7862 12.9537C52.3118 12.4752 45.8804 12.0814 44.4949 12.0791C42.7462 12.0756 41.8663 12.3569 41.6208 12.9967C41.426 13.504 41.5008 14.1432 41.7862 14.4175C42.0723 14.6918 47.2724 15.248 53.3418 15.6535C59.4119 16.0597 64.3777 16.5541 64.3777 16.753C64.3777 16.9514 59.8039 18.364 54.2135 19.8913C48.6232 21.4193 43.5279 22.6688 42.891 22.6688C42.2536 22.6688 34.2636 20.6212 25.1353 18.1185C16.007 15.6159 8.65449 13.4523 8.79693 13.3098C8.93877 13.1674 16.4043 10.9967 25.3866 8.4864C34.3684 5.97552 42.0894 3.90137 42.5437 3.87782C42.9981 3.85369 50.8115 5.86605 59.9069 8.34868ZM34.9705 24.092L42.9375 26.2904L51.4142 23.9113C56.9345 22.3616 60.1252 21.7259 60.5614 22.0885C60.9304 22.394 61.9533 24.1185 62.8356 25.9196C63.7179 27.7212 64.5896 30.4628 64.7732 32.0119L65.1064 34.8295L53.994 38.7647L42.881 42.7006L31.8522 38.7871C21.0541 34.9566 20.8228 34.8395 20.8228 33.2062C20.8228 32.2892 21.2466 30.2903 21.7645 28.7642C22.2831 27.238 23.3596 24.956 24.1571 23.6924C24.9546 22.4287 25.9211 21.507 26.3048 21.6447C26.6892 21.7818 30.5879 22.8831 34.9705 24.092ZM76.3547 38.2474C76.5372 38.7223 76.4206 39.2756 76.0952 39.4769C75.7703 39.6776 75.124 39.6959 74.6596 39.5175C74.1858 39.3362 73.9674 38.7965 74.1623 38.2886C74.353 37.7906 74.8503 37.3833 75.2664 37.3833C75.6826 37.3833 76.1729 37.7724 76.3547 38.2474ZM76.1152 58.7193C76.134 59.2932 75.7243 59.7494 75.1893 59.7494C74.4077 59.7494 74.297 59.3397 74.5943 57.5422C74.795 56.3285 74.9927 54.8053 75.0334 54.1579C75.074 53.5104 75.3265 54.0401 75.5943 55.335C75.8621 56.6299 76.0969 58.1525 76.1152 58.7193Z" fill="white"/>
</svg>
