<svg width="86" height="86" viewBox="0 0 86 86" fill="none" xmlns="http://www.w3.org/2000/svg">
<mask id="path-1-outside-1_1_1842" maskUnits="userSpaceOnUse" x="0" y="0" width="86" height="86" fill="black">
<rect fill="white" width="86" height="86"/>
<path fill-rule="evenodd" clip-rule="evenodd" d="M58.5833 1.25684C58.0814 1.39166 57.2269 1.7387 56.6846 2.02781C56.1421 2.31693 55.2849 2.9868 54.7799 3.51642C54.2746 4.04605 53.6612 4.87427 53.4168 5.35664C53.1722 5.83918 52.8585 6.67045 52.7196 7.20381C52.5806 7.73733 52.4669 8.59909 52.4669 9.11889C52.4669 9.63869 52.5806 10.5005 52.7196 11.034C52.8585 11.5673 53.1661 12.3864 53.403 12.854C53.64 13.3215 54.1085 14.0083 54.4443 14.3799C54.7802 14.7517 55.0253 15.0806 54.9889 15.1107C54.9526 15.1409 54.1225 15.4192 53.1444 15.7291C51.9104 16.12 49.1896 17.3771 44.2561 19.8352C40.3457 21.7838 36.954 23.5126 36.7191 23.6769C36.4803 23.844 35.839 24.0154 35.2644 24.0656C34.4355 24.1379 32.8927 24.7148 27.2812 27.0513C23.4555 28.644 20.2061 29.9931 20.0601 30.0491C19.8682 30.1226 19.9312 29.8987 20.2869 29.2419C20.5577 28.7421 20.8969 27.8808 21.0409 27.3284C21.1849 26.7757 21.3026 25.8983 21.3026 25.3785C21.3026 24.8587 21.1859 23.9855 21.0433 23.4379C20.9007 22.8901 20.5485 22.0006 20.2609 21.4612C19.9733 20.9215 19.3048 20.0667 18.7752 19.5617C18.2456 19.0564 17.4174 18.443 16.935 18.1986C16.4525 17.954 15.6212 17.6403 15.0878 17.5014C14.5543 17.3624 13.6925 17.2487 13.1727 17.2487C12.6529 17.2487 11.7797 17.3654 11.2321 17.508C10.6843 17.6506 9.7948 18.0028 9.25535 18.2904C8.71574 18.5779 7.86092 19.2465 7.35585 19.7761C6.85062 20.3057 6.23715 21.1339 5.99275 21.6163C5.74818 22.0988 5.4345 22.9301 5.29562 23.4635C5.15656 23.997 5.04292 24.8587 5.04292 25.3785C5.04292 25.8983 5.15656 26.7601 5.29562 27.2936C5.4345 27.827 5.74716 28.6561 5.99021 29.1359C6.23343 29.6157 6.8247 30.426 7.30436 30.9365C7.8389 31.5054 8.09448 31.8931 7.96474 31.9383C7.84855 31.979 7.20071 32.3741 6.52509 32.8165C5.84963 33.2589 4.82595 34.1261 4.25043 34.7436C3.67473 35.3611 2.92154 36.3711 2.57653 36.9879C2.23152 37.605 1.74983 38.694 1.50593 39.4081L1.06269 40.7067L1.01628 60.8483C0.975122 78.7113 0.999851 81.0799 1.23375 81.7843C1.37873 82.2211 1.77032 82.8971 2.10364 83.2865C2.43697 83.676 3.10124 84.2011 3.57989 84.4536L4.45012 84.9126L44.7182 84.9563L84.9862 85V72.8039V60.6078H78.6548H72.3233L72.55 59.9727C72.7229 59.4883 72.7785 57.8806 72.784 53.1978L72.7915 47.0581H78.2114H83.6313V38.9283V30.7984H79.5846H75.538L75.4684 27.6227C75.4024 24.5994 75.3739 24.3757 74.877 22.9631C74.5899 22.1469 74.0984 21.045 73.7849 20.5144C73.4714 19.9837 72.6433 18.9677 71.9446 18.2563C71.219 17.5177 70.1659 16.6674 69.4888 16.2738C68.8367 15.8946 67.884 15.4454 67.3716 15.2755C66.8593 15.1057 66.4109 14.9492 66.3752 14.9278C66.3395 14.9063 66.5493 14.6167 66.8413 14.2842C67.1333 13.9516 67.5633 13.3024 67.7967 12.8417C68.0303 12.3808 68.335 11.5673 68.4739 11.034C68.6129 10.5005 68.7266 9.63869 68.7266 9.11889C68.7266 8.59909 68.6129 7.73733 68.4739 7.20381C68.335 6.67045 68.0213 5.83918 67.7767 5.35664C67.5323 4.87427 66.9189 4.04605 66.4136 3.51642C65.9086 2.9868 65.0538 2.31829 64.5141 2.03069C63.9747 1.7431 63.0852 1.39098 62.5374 1.24837C61.9898 1.10576 61.0815 0.994141 60.5188 1.00024C59.9562 1.00634 59.0853 1.12185 58.5833 1.25684ZM62.8369 4.24878C63.3443 4.48099 64.0485 4.96031 64.402 5.31362C64.7553 5.6671 65.2436 6.38202 65.4872 6.90249C65.8408 7.65874 65.9297 8.10351 65.9297 9.11889C65.9297 10.1365 65.8419 10.5745 65.4884 11.3207C65.2455 11.8331 64.7506 12.5485 64.3885 12.9106C64.0263 13.2727 63.3109 13.7649 62.7986 14.0044C62.0654 14.3472 61.5965 14.4414 60.5967 14.447C59.5705 14.4526 59.1447 14.3687 58.3804 14.0103C57.8599 13.7663 57.145 13.2775 56.7915 12.9242C56.4382 12.5707 55.9629 11.8751 55.7355 11.3781C55.508 10.8814 55.28 10.0687 55.2287 9.57247C55.1687 8.99084 55.2309 8.34232 55.4037 7.74783C55.5512 7.24073 55.904 6.47517 56.1878 6.04666C56.4715 5.61815 57.0118 5.05414 57.3885 4.79314C57.765 4.53214 58.4694 4.17714 58.9538 4.00404C59.5722 3.78301 60.1444 3.70967 60.8744 3.75777C61.4946 3.79876 62.2864 3.99676 62.8369 4.24878ZM66.186 17.7453C66.7915 17.9543 67.717 18.3859 68.2423 18.7043C68.7679 19.0227 69.6563 19.7734 70.2165 20.3723C70.7768 20.9712 71.4716 21.9425 71.7604 22.5307C72.0493 23.119 72.398 24.1337 72.5356 24.7857C72.721 25.6655 72.7864 27.1861 72.7886 30.679L72.7915 35.3869L72.3757 35.8025C72.1137 36.0647 71.7665 36.2183 71.4365 36.2183C71.1066 36.2183 70.7594 36.0647 70.4974 35.8025L70.0816 35.3869V31.0025C70.0816 27.2222 70.0365 26.4419 69.7538 25.3372C69.5736 24.6326 69.2223 23.6486 68.973 23.1506C68.7239 22.6527 68.221 21.845 67.8555 21.356C67.4902 20.8668 67.1008 20.4668 66.9904 20.4668C66.8799 20.4668 66.3943 20.857 65.9115 21.3338L65.0334 22.201L65.6193 22.9684C65.9416 23.3905 66.3537 24.0268 66.5351 24.3825C66.7165 24.7382 66.9778 25.5079 67.1157 26.0931C67.2544 26.6814 67.3677 27.9709 67.3691 28.9777L67.3716 30.7984H64.6617H61.9517V36.8045V42.8108L61.3166 42.984C60.9673 43.0794 59.7445 43.4151 58.5993 43.7299C57.2168 44.1104 56.3703 44.4383 56.0794 44.7065C55.8384 44.9286 55.5368 45.3556 55.4091 45.6554C55.2262 46.0847 55.1767 47.5577 55.1762 52.5996C55.1757 58.6887 55.1592 59.0255 54.8386 59.5514C54.6533 59.8555 54.243 60.2274 53.9266 60.3783C53.5458 60.5599 53.1547 60.6156 52.7694 60.5434C52.4471 60.483 51.9664 60.2035 51.692 59.9173L51.1966 59.4002L51.1497 50.6627C51.1103 43.2906 51.1428 41.7883 51.3575 41.0496C51.5151 40.5073 51.8446 39.9347 52.223 39.5449C52.6351 39.1207 53.8781 38.3932 56.038 37.3121L59.2418 35.7085V28.5111V21.3136H57.7212H56.2005L48.0104 25.4026C40.5774 29.1137 39.7646 29.4812 39.2183 29.3788C38.8872 29.3166 38.4193 29.0686 38.1781 28.8276C37.937 28.5864 37.6884 28.1156 37.6257 27.7811C37.5428 27.3385 37.5992 27.0094 37.8334 26.5721C38.1256 26.0264 38.7439 25.6738 44.5911 22.7182C48.131 20.9292 51.7894 19.1635 52.721 18.7947C53.6525 18.426 55.1769 17.967 56.1084 17.7748C57.0399 17.5827 58.0689 17.3934 58.3949 17.3542C58.721 17.3151 60.3596 17.3016 62.0364 17.3243C64.6884 17.3598 65.2284 17.4147 66.186 17.7453ZM15.4129 20.5084C15.9203 20.7407 16.6245 21.22 16.978 21.5733C17.3313 21.9268 17.8196 22.6417 18.0632 23.1622C18.4168 23.9184 18.5057 24.3632 18.5057 25.3785C18.5057 26.3939 18.4168 26.8387 18.0632 27.5949C17.8196 28.1154 17.3313 28.8303 16.978 29.1838C16.6245 29.5371 15.9096 30.0254 15.3891 30.269C14.6329 30.6226 14.1881 30.7115 13.1727 30.7115C12.1574 30.7115 11.7126 30.6226 10.9564 30.269C10.4359 30.0254 9.72096 29.5371 9.36748 29.1838C9.01417 28.8303 8.53891 28.1347 8.31145 27.6378C8.08398 27.141 7.85601 26.3284 7.80469 25.8321C7.74473 25.2505 7.80689 24.602 7.97965 24.0075C8.12717 23.5004 8.47997 22.7348 8.76384 22.3063C9.04753 21.8778 9.58783 21.3138 9.96451 21.0528C10.341 20.7918 11.0454 20.4368 11.5298 20.2637C12.1482 20.0427 12.7204 19.9693 13.4503 20.0174C14.0706 20.0584 14.8624 20.2564 15.4129 20.5084ZM56.5318 29.0995V34.006L53.838 35.3686C51.5096 36.5462 51.0176 36.8677 50.2109 37.7391C49.6442 38.3512 49.1223 39.132 48.8822 39.7268C48.4869 40.7063 48.4867 40.7102 48.4389 49.9615C48.3995 57.5945 48.433 59.338 48.6308 59.912L48.8705 60.6078H38.8749H28.8792L27.1234 62.2338L25.3675 63.8597V59.6968C25.3675 55.9286 25.3338 55.4313 25.0128 54.4535C24.8179 53.8594 24.3779 53.0022 24.0349 52.5486C23.6921 52.095 23.0405 51.4435 22.5869 51.1007C22.1333 50.7577 21.2762 50.3176 20.682 50.1227C20.0032 49.8998 19.1626 49.768 18.4197 49.768H17.2377V46.1538C17.2377 42.5723 17.241 42.5377 17.6187 42.3579C17.8283 42.2581 22.4585 40.073 27.9081 37.5023C33.3576 34.9318 38.0068 32.6884 38.2397 32.5174C38.5024 32.3243 39.0808 32.1725 39.7641 32.1175C40.7882 32.0348 41.4081 31.7561 48.6561 28.12C52.9412 25.9703 56.4663 24.2073 56.4895 24.2023C56.5127 24.1972 56.5318 26.4009 56.5318 29.0995ZM34.8533 27.538C34.8538 27.8874 34.931 28.4499 35.0251 28.7883C35.119 29.1266 35.385 29.6819 35.616 30.0225L36.0362 30.6416L33.798 31.6939C32.567 32.2726 27.7467 34.5412 23.0861 36.7351L14.6124 40.7238L14.5679 46.5857L14.5233 52.4475L17.1084 52.5073C19.2174 52.5562 19.8028 52.625 20.2863 52.8807C20.6124 53.0532 21.0958 53.395 21.3605 53.6405C21.6251 53.8861 22.0061 54.3919 22.2074 54.7645C22.5659 55.4291 22.5729 55.5829 22.5729 62.8486V70.2554L22.0192 70.8091C21.5426 71.2858 21.3483 71.3629 20.6251 71.3629C19.902 71.3629 19.7074 71.2857 19.231 70.8096L18.6773 70.2562L18.5926 64.9358C18.5125 59.8975 18.4895 59.5907 18.1587 59.1482C17.9666 58.8912 17.5993 58.5239 17.3423 58.3318C16.9011 58.002 16.5907 57.9778 11.7636 57.8979C7.20139 57.8223 6.58826 57.7793 6.05914 57.4975C5.7331 57.3239 5.24972 56.9809 4.98499 56.7353C4.72043 56.4897 4.33935 55.984 4.13813 55.6113C3.7811 54.9494 3.77263 54.7774 3.77263 48.159C3.77263 41.6363 3.78652 41.3398 4.14779 40.1914C4.35425 39.5356 4.81985 38.5448 5.18248 37.9896C5.5451 37.4346 6.13841 36.6839 6.50087 36.3213C6.86349 35.9588 7.61194 35.3669 8.16409 35.0061C8.71624 34.6454 9.66896 34.1847 10.2812 33.9823C11.2568 33.6596 11.8618 33.6059 15.18 33.547L18.9656 33.4798L26.7819 30.2058C31.0809 28.405 34.6555 26.9252 34.7253 26.9173C34.795 26.9093 34.8528 27.1888 34.8533 27.538ZM67.3791 34.567C67.3831 35.1493 67.4842 35.8992 67.6038 36.2336C67.7234 36.5681 68.0311 37.1168 68.2877 37.4532C68.5442 37.7896 69.1441 38.2591 69.6205 38.4965C70.2392 38.805 70.7582 38.9283 71.4365 38.9283C72.1149 38.9283 72.6338 38.805 73.2525 38.4965C73.729 38.2591 74.3289 37.7896 74.5853 37.4532C74.8419 37.1168 75.1497 36.5681 75.2692 36.2336C75.3888 35.8992 75.4899 35.1493 75.494 34.567L75.5014 33.5084H78.2114H80.9213V38.9283V44.3481H72.7915H64.6617V38.9283V33.5084H66.0166H67.3716L67.3791 34.567ZM61.9517 46.3806V47.0581H62.6292H63.3067L63.3141 53.1978C63.3197 57.8806 63.3753 59.4883 63.5482 59.9727L63.7748 60.6078H60.5967H57.4187L57.6453 59.9727C57.8186 59.4871 57.8738 57.8562 57.8794 53.0489L57.8868 46.7603L59.7076 46.246C60.709 45.9631 61.6236 45.7251 61.74 45.7174C61.8765 45.7082 61.9517 45.944 61.9517 46.3806ZM70.0453 53.2371L69.9969 59.4161L69.4432 59.9696C68.9666 60.4459 68.7723 60.5231 68.0491 60.5231C67.3259 60.5231 67.1316 60.4459 66.655 59.9696L66.1013 59.4161L66.0529 53.2371L66.0046 47.0581H68.0491H70.0936L70.0453 53.2371ZM6.86755 60.5514L7.76048 60.6559L7.71441 70.8756L7.66817 81.0953L7.14431 81.6192C6.79845 81.965 6.39535 82.1725 5.95871 82.2298C5.44619 82.297 5.16385 82.226 4.70671 81.9157C4.38203 81.6954 4.0211 81.3267 3.90457 81.0967C3.74197 80.7754 3.69235 78.2009 3.69049 69.9966L3.68794 59.3147L4.8312 59.8807C5.45991 60.192 6.37638 60.4938 6.86755 60.5514ZM15.9157 65.6466C15.9613 70.0945 16.0031 70.7572 16.2724 71.2982L16.5774 71.9108L15.4711 72.9528C14.8626 73.5259 13.8489 74.4673 13.2183 75.0447C12.5877 75.6221 11.7097 76.4371 11.2673 76.8558L10.4628 77.6169V69.1123V60.6078H13.1634H15.8641L15.9157 65.6466ZM82.2763 72.8026V82.2873H46.1111H9.94605L10.1921 81.8112C10.3276 81.5494 12.2791 79.6338 14.5291 77.5543L18.6197 73.7732L19.261 73.9655C19.6136 74.0711 20.2418 74.1575 20.6569 74.1575C21.0721 74.1575 21.7866 74.0298 22.2448 73.8737C22.791 73.6875 23.3747 73.2931 23.9388 72.7289C24.503 72.1647 24.8975 71.581 25.0836 71.0348C25.2533 70.5369 25.3675 69.6727 25.3675 68.887V67.5724L27.673 65.4451L29.9785 63.3177H56.1274H82.2763V72.8026ZM66.0166 78.2224V79.5774H67.3716H68.7266V78.2224V76.8675H67.3716H66.0166V78.2224ZM71.4365 78.2224V79.5774H72.7915H74.1465V78.2224V76.8675H72.7915H71.4365V78.2224ZM76.8564 78.2224V79.5774H78.2114H79.5664V78.2224V76.8675H78.2114H76.8564V78.2224Z"/>
</mask>
<path fill-rule="evenodd" clip-rule="evenodd" d="M58.5833 1.25684C58.0814 1.39166 57.2269 1.7387 56.6846 2.02781C56.1421 2.31693 55.2849 2.9868 54.7799 3.51642C54.2746 4.04605 53.6612 4.87427 53.4168 5.35664C53.1722 5.83918 52.8585 6.67045 52.7196 7.20381C52.5806 7.73733 52.4669 8.59909 52.4669 9.11889C52.4669 9.63869 52.5806 10.5005 52.7196 11.034C52.8585 11.5673 53.1661 12.3864 53.403 12.854C53.64 13.3215 54.1085 14.0083 54.4443 14.3799C54.7802 14.7517 55.0253 15.0806 54.9889 15.1107C54.9526 15.1409 54.1225 15.4192 53.1444 15.7291C51.9104 16.12 49.1896 17.3771 44.2561 19.8352C40.3457 21.7838 36.954 23.5126 36.7191 23.6769C36.4803 23.844 35.839 24.0154 35.2644 24.0656C34.4355 24.1379 32.8927 24.7148 27.2812 27.0513C23.4555 28.644 20.2061 29.9931 20.0601 30.0491C19.8682 30.1226 19.9312 29.8987 20.2869 29.2419C20.5577 28.7421 20.8969 27.8808 21.0409 27.3284C21.1849 26.7757 21.3026 25.8983 21.3026 25.3785C21.3026 24.8587 21.1859 23.9855 21.0433 23.4379C20.9007 22.8901 20.5485 22.0006 20.2609 21.4612C19.9733 20.9215 19.3048 20.0667 18.7752 19.5617C18.2456 19.0564 17.4174 18.443 16.935 18.1986C16.4525 17.954 15.6212 17.6403 15.0878 17.5014C14.5543 17.3624 13.6925 17.2487 13.1727 17.2487C12.6529 17.2487 11.7797 17.3654 11.2321 17.508C10.6843 17.6506 9.7948 18.0028 9.25535 18.2904C8.71574 18.5779 7.86092 19.2465 7.35585 19.7761C6.85062 20.3057 6.23715 21.1339 5.99275 21.6163C5.74818 22.0988 5.4345 22.9301 5.29562 23.4635C5.15656 23.997 5.04292 24.8587 5.04292 25.3785C5.04292 25.8983 5.15656 26.7601 5.29562 27.2936C5.4345 27.827 5.74716 28.6561 5.99021 29.1359C6.23343 29.6157 6.8247 30.426 7.30436 30.9365C7.8389 31.5054 8.09448 31.8931 7.96474 31.9383C7.84855 31.979 7.20071 32.3741 6.52509 32.8165C5.84963 33.2589 4.82595 34.1261 4.25043 34.7436C3.67473 35.3611 2.92154 36.3711 2.57653 36.9879C2.23152 37.605 1.74983 38.694 1.50593 39.4081L1.06269 40.7067L1.01628 60.8483C0.975122 78.7113 0.999851 81.0799 1.23375 81.7843C1.37873 82.2211 1.77032 82.8971 2.10364 83.2865C2.43697 83.676 3.10124 84.2011 3.57989 84.4536L4.45012 84.9126L44.7182 84.9563L84.9862 85V72.8039V60.6078H78.6548H72.3233L72.55 59.9727C72.7229 59.4883 72.7785 57.8806 72.784 53.1978L72.7915 47.0581H78.2114H83.6313V38.9283V30.7984H79.5846H75.538L75.4684 27.6227C75.4024 24.5994 75.3739 24.3757 74.877 22.9631C74.5899 22.1469 74.0984 21.045 73.7849 20.5144C73.4714 19.9837 72.6433 18.9677 71.9446 18.2563C71.219 17.5177 70.1659 16.6674 69.4888 16.2738C68.8367 15.8946 67.884 15.4454 67.3716 15.2755C66.8593 15.1057 66.4109 14.9492 66.3752 14.9278C66.3395 14.9063 66.5493 14.6167 66.8413 14.2842C67.1333 13.9516 67.5633 13.3024 67.7967 12.8417C68.0303 12.3808 68.335 11.5673 68.4739 11.034C68.6129 10.5005 68.7266 9.63869 68.7266 9.11889C68.7266 8.59909 68.6129 7.73733 68.4739 7.20381C68.335 6.67045 68.0213 5.83918 67.7767 5.35664C67.5323 4.87427 66.9189 4.04605 66.4136 3.51642C65.9086 2.9868 65.0538 2.31829 64.5141 2.03069C63.9747 1.7431 63.0852 1.39098 62.5374 1.24837C61.9898 1.10576 61.0815 0.994141 60.5188 1.00024C59.9562 1.00634 59.0853 1.12185 58.5833 1.25684ZM62.8369 4.24878C63.3443 4.48099 64.0485 4.96031 64.402 5.31362C64.7553 5.6671 65.2436 6.38202 65.4872 6.90249C65.8408 7.65874 65.9297 8.10351 65.9297 9.11889C65.9297 10.1365 65.8419 10.5745 65.4884 11.3207C65.2455 11.8331 64.7506 12.5485 64.3885 12.9106C64.0263 13.2727 63.3109 13.7649 62.7986 14.0044C62.0654 14.3472 61.5965 14.4414 60.5967 14.447C59.5705 14.4526 59.1447 14.3687 58.3804 14.0103C57.8599 13.7663 57.145 13.2775 56.7915 12.9242C56.4382 12.5707 55.9629 11.8751 55.7355 11.3781C55.508 10.8814 55.28 10.0687 55.2287 9.57247C55.1687 8.99084 55.2309 8.34232 55.4037 7.74783C55.5512 7.24073 55.904 6.47517 56.1878 6.04666C56.4715 5.61815 57.0118 5.05414 57.3885 4.79314C57.765 4.53214 58.4694 4.17714 58.9538 4.00404C59.5722 3.78301 60.1444 3.70967 60.8744 3.75777C61.4946 3.79876 62.2864 3.99676 62.8369 4.24878ZM66.186 17.7453C66.7915 17.9543 67.717 18.3859 68.2423 18.7043C68.7679 19.0227 69.6563 19.7734 70.2165 20.3723C70.7768 20.9712 71.4716 21.9425 71.7604 22.5307C72.0493 23.119 72.398 24.1337 72.5356 24.7857C72.721 25.6655 72.7864 27.1861 72.7886 30.679L72.7915 35.3869L72.3757 35.8025C72.1137 36.0647 71.7665 36.2183 71.4365 36.2183C71.1066 36.2183 70.7594 36.0647 70.4974 35.8025L70.0816 35.3869V31.0025C70.0816 27.2222 70.0365 26.4419 69.7538 25.3372C69.5736 24.6326 69.2223 23.6486 68.973 23.1506C68.7239 22.6527 68.221 21.845 67.8555 21.356C67.4902 20.8668 67.1008 20.4668 66.9904 20.4668C66.8799 20.4668 66.3943 20.857 65.9115 21.3338L65.0334 22.201L65.6193 22.9684C65.9416 23.3905 66.3537 24.0268 66.5351 24.3825C66.7165 24.7382 66.9778 25.5079 67.1157 26.0931C67.2544 26.6814 67.3677 27.9709 67.3691 28.9777L67.3716 30.7984H64.6617H61.9517V36.8045V42.8108L61.3166 42.984C60.9673 43.0794 59.7445 43.4151 58.5993 43.7299C57.2168 44.1104 56.3703 44.4383 56.0794 44.7065C55.8384 44.9286 55.5368 45.3556 55.4091 45.6554C55.2262 46.0847 55.1767 47.5577 55.1762 52.5996C55.1757 58.6887 55.1592 59.0255 54.8386 59.5514C54.6533 59.8555 54.243 60.2274 53.9266 60.3783C53.5458 60.5599 53.1547 60.6156 52.7694 60.5434C52.4471 60.483 51.9664 60.2035 51.692 59.9173L51.1966 59.4002L51.1497 50.6627C51.1103 43.2906 51.1428 41.7883 51.3575 41.0496C51.5151 40.5073 51.8446 39.9347 52.223 39.5449C52.6351 39.1207 53.8781 38.3932 56.038 37.3121L59.2418 35.7085V28.5111V21.3136H57.7212H56.2005L48.0104 25.4026C40.5774 29.1137 39.7646 29.4812 39.2183 29.3788C38.8872 29.3166 38.4193 29.0686 38.1781 28.8276C37.937 28.5864 37.6884 28.1156 37.6257 27.7811C37.5428 27.3385 37.5992 27.0094 37.8334 26.5721C38.1256 26.0264 38.7439 25.6738 44.5911 22.7182C48.131 20.9292 51.7894 19.1635 52.721 18.7947C53.6525 18.426 55.1769 17.967 56.1084 17.7748C57.0399 17.5827 58.0689 17.3934 58.3949 17.3542C58.721 17.3151 60.3596 17.3016 62.0364 17.3243C64.6884 17.3598 65.2284 17.4147 66.186 17.7453ZM15.4129 20.5084C15.9203 20.7407 16.6245 21.22 16.978 21.5733C17.3313 21.9268 17.8196 22.6417 18.0632 23.1622C18.4168 23.9184 18.5057 24.3632 18.5057 25.3785C18.5057 26.3939 18.4168 26.8387 18.0632 27.5949C17.8196 28.1154 17.3313 28.8303 16.978 29.1838C16.6245 29.5371 15.9096 30.0254 15.3891 30.269C14.6329 30.6226 14.1881 30.7115 13.1727 30.7115C12.1574 30.7115 11.7126 30.6226 10.9564 30.269C10.4359 30.0254 9.72096 29.5371 9.36748 29.1838C9.01417 28.8303 8.53891 28.1347 8.31145 27.6378C8.08398 27.141 7.85601 26.3284 7.80469 25.8321C7.74473 25.2505 7.80689 24.602 7.97965 24.0075C8.12717 23.5004 8.47997 22.7348 8.76384 22.3063C9.04753 21.8778 9.58783 21.3138 9.96451 21.0528C10.341 20.7918 11.0454 20.4368 11.5298 20.2637C12.1482 20.0427 12.7204 19.9693 13.4503 20.0174C14.0706 20.0584 14.8624 20.2564 15.4129 20.5084ZM56.5318 29.0995V34.006L53.838 35.3686C51.5096 36.5462 51.0176 36.8677 50.2109 37.7391C49.6442 38.3512 49.1223 39.132 48.8822 39.7268C48.4869 40.7063 48.4867 40.7102 48.4389 49.9615C48.3995 57.5945 48.433 59.338 48.6308 59.912L48.8705 60.6078H38.8749H28.8792L27.1234 62.2338L25.3675 63.8597V59.6968C25.3675 55.9286 25.3338 55.4313 25.0128 54.4535C24.8179 53.8594 24.3779 53.0022 24.0349 52.5486C23.6921 52.095 23.0405 51.4435 22.5869 51.1007C22.1333 50.7577 21.2762 50.3176 20.682 50.1227C20.0032 49.8998 19.1626 49.768 18.4197 49.768H17.2377V46.1538C17.2377 42.5723 17.241 42.5377 17.6187 42.3579C17.8283 42.2581 22.4585 40.073 27.9081 37.5023C33.3576 34.9318 38.0068 32.6884 38.2397 32.5174C38.5024 32.3243 39.0808 32.1725 39.7641 32.1175C40.7882 32.0348 41.4081 31.7561 48.6561 28.12C52.9412 25.9703 56.4663 24.2073 56.4895 24.2023C56.5127 24.1972 56.5318 26.4009 56.5318 29.0995ZM34.8533 27.538C34.8538 27.8874 34.931 28.4499 35.0251 28.7883C35.119 29.1266 35.385 29.6819 35.616 30.0225L36.0362 30.6416L33.798 31.6939C32.567 32.2726 27.7467 34.5412 23.0861 36.7351L14.6124 40.7238L14.5679 46.5857L14.5233 52.4475L17.1084 52.5073C19.2174 52.5562 19.8028 52.625 20.2863 52.8807C20.6124 53.0532 21.0958 53.395 21.3605 53.6405C21.6251 53.8861 22.0061 54.3919 22.2074 54.7645C22.5659 55.4291 22.5729 55.5829 22.5729 62.8486V70.2554L22.0192 70.8091C21.5426 71.2858 21.3483 71.3629 20.6251 71.3629C19.902 71.3629 19.7074 71.2857 19.231 70.8096L18.6773 70.2562L18.5926 64.9358C18.5125 59.8975 18.4895 59.5907 18.1587 59.1482C17.9666 58.8912 17.5993 58.5239 17.3423 58.3318C16.9011 58.002 16.5907 57.9778 11.7636 57.8979C7.20139 57.8223 6.58826 57.7793 6.05914 57.4975C5.7331 57.3239 5.24972 56.9809 4.98499 56.7353C4.72043 56.4897 4.33935 55.984 4.13813 55.6113C3.7811 54.9494 3.77263 54.7774 3.77263 48.159C3.77263 41.6363 3.78652 41.3398 4.14779 40.1914C4.35425 39.5356 4.81985 38.5448 5.18248 37.9896C5.5451 37.4346 6.13841 36.6839 6.50087 36.3213C6.86349 35.9588 7.61194 35.3669 8.16409 35.0061C8.71624 34.6454 9.66896 34.1847 10.2812 33.9823C11.2568 33.6596 11.8618 33.6059 15.18 33.547L18.9656 33.4798L26.7819 30.2058C31.0809 28.405 34.6555 26.9252 34.7253 26.9173C34.795 26.9093 34.8528 27.1888 34.8533 27.538ZM67.3791 34.567C67.3831 35.1493 67.4842 35.8992 67.6038 36.2336C67.7234 36.5681 68.0311 37.1168 68.2877 37.4532C68.5442 37.7896 69.1441 38.2591 69.6205 38.4965C70.2392 38.805 70.7582 38.9283 71.4365 38.9283C72.1149 38.9283 72.6338 38.805 73.2525 38.4965C73.729 38.2591 74.3289 37.7896 74.5853 37.4532C74.8419 37.1168 75.1497 36.5681 75.2692 36.2336C75.3888 35.8992 75.4899 35.1493 75.494 34.567L75.5014 33.5084H78.2114H80.9213V38.9283V44.3481H72.7915H64.6617V38.9283V33.5084H66.0166H67.3716L67.3791 34.567ZM61.9517 46.3806V47.0581H62.6292H63.3067L63.3141 53.1978C63.3197 57.8806 63.3753 59.4883 63.5482 59.9727L63.7748 60.6078H60.5967H57.4187L57.6453 59.9727C57.8186 59.4871 57.8738 57.8562 57.8794 53.0489L57.8868 46.7603L59.7076 46.246C60.709 45.9631 61.6236 45.7251 61.74 45.7174C61.8765 45.7082 61.9517 45.944 61.9517 46.3806ZM70.0453 53.2371L69.9969 59.4161L69.4432 59.9696C68.9666 60.4459 68.7723 60.5231 68.0491 60.5231C67.3259 60.5231 67.1316 60.4459 66.655 59.9696L66.1013 59.4161L66.0529 53.2371L66.0046 47.0581H68.0491H70.0936L70.0453 53.2371ZM6.86755 60.5514L7.76048 60.6559L7.71441 70.8756L7.66817 81.0953L7.14431 81.6192C6.79845 81.965 6.39535 82.1725 5.95871 82.2298C5.44619 82.297 5.16385 82.226 4.70671 81.9157C4.38203 81.6954 4.0211 81.3267 3.90457 81.0967C3.74197 80.7754 3.69235 78.2009 3.69049 69.9966L3.68794 59.3147L4.8312 59.8807C5.45991 60.192 6.37638 60.4938 6.86755 60.5514ZM15.9157 65.6466C15.9613 70.0945 16.0031 70.7572 16.2724 71.2982L16.5774 71.9108L15.4711 72.9528C14.8626 73.5259 13.8489 74.4673 13.2183 75.0447C12.5877 75.6221 11.7097 76.4371 11.2673 76.8558L10.4628 77.6169V69.1123V60.6078H13.1634H15.8641L15.9157 65.6466ZM82.2763 72.8026V82.2873H46.1111H9.94605L10.1921 81.8112C10.3276 81.5494 12.2791 79.6338 14.5291 77.5543L18.6197 73.7732L19.261 73.9655C19.6136 74.0711 20.2418 74.1575 20.6569 74.1575C21.0721 74.1575 21.7866 74.0298 22.2448 73.8737C22.791 73.6875 23.3747 73.2931 23.9388 72.7289C24.503 72.1647 24.8975 71.581 25.0836 71.0348C25.2533 70.5369 25.3675 69.6727 25.3675 68.887V67.5724L27.673 65.4451L29.9785 63.3177H56.1274H82.2763V72.8026ZM66.0166 78.2224V79.5774H67.3716H68.7266V78.2224V76.8675H67.3716H66.0166V78.2224ZM71.4365 78.2224V79.5774H72.7915H74.1465V78.2224V76.8675H72.7915H71.4365V78.2224ZM76.8564 78.2224V79.5774H78.2114H79.5664V78.2224V76.8675H78.2114H76.8564V78.2224Z" fill="white"/>
<path fill-rule="evenodd" clip-rule="evenodd" d="M58.5833 1.25684C58.0814 1.39166 57.2269 1.7387 56.6846 2.02781C56.1421 2.31693 55.2849 2.9868 54.7799 3.51642C54.2746 4.04605 53.6612 4.87427 53.4168 5.35664C53.1722 5.83918 52.8585 6.67045 52.7196 7.20381C52.5806 7.73733 52.4669 8.59909 52.4669 9.11889C52.4669 9.63869 52.5806 10.5005 52.7196 11.034C52.8585 11.5673 53.1661 12.3864 53.403 12.854C53.64 13.3215 54.1085 14.0083 54.4443 14.3799C54.7802 14.7517 55.0253 15.0806 54.9889 15.1107C54.9526 15.1409 54.1225 15.4192 53.1444 15.7291C51.9104 16.12 49.1896 17.3771 44.2561 19.8352C40.3457 21.7838 36.954 23.5126 36.7191 23.6769C36.4803 23.844 35.839 24.0154 35.2644 24.0656C34.4355 24.1379 32.8927 24.7148 27.2812 27.0513C23.4555 28.644 20.2061 29.9931 20.0601 30.0491C19.8682 30.1226 19.9312 29.8987 20.2869 29.2419C20.5577 28.7421 20.8969 27.8808 21.0409 27.3284C21.1849 26.7757 21.3026 25.8983 21.3026 25.3785C21.3026 24.8587 21.1859 23.9855 21.0433 23.4379C20.9007 22.8901 20.5485 22.0006 20.2609 21.4612C19.9733 20.9215 19.3048 20.0667 18.7752 19.5617C18.2456 19.0564 17.4174 18.443 16.935 18.1986C16.4525 17.954 15.6212 17.6403 15.0878 17.5014C14.5543 17.3624 13.6925 17.2487 13.1727 17.2487C12.6529 17.2487 11.7797 17.3654 11.2321 17.508C10.6843 17.6506 9.7948 18.0028 9.25535 18.2904C8.71574 18.5779 7.86092 19.2465 7.35585 19.7761C6.85062 20.3057 6.23715 21.1339 5.99275 21.6163C5.74818 22.0988 5.4345 22.9301 5.29562 23.4635C5.15656 23.997 5.04292 24.8587 5.04292 25.3785C5.04292 25.8983 5.15656 26.7601 5.29562 27.2936C5.4345 27.827 5.74716 28.6561 5.99021 29.1359C6.23343 29.6157 6.8247 30.426 7.30436 30.9365C7.8389 31.5054 8.09448 31.8931 7.96474 31.9383C7.84855 31.979 7.20071 32.3741 6.52509 32.8165C5.84963 33.2589 4.82595 34.1261 4.25043 34.7436C3.67473 35.3611 2.92154 36.3711 2.57653 36.9879C2.23152 37.605 1.74983 38.694 1.50593 39.4081L1.06269 40.7067L1.01628 60.8483C0.975122 78.7113 0.999851 81.0799 1.23375 81.7843C1.37873 82.2211 1.77032 82.8971 2.10364 83.2865C2.43697 83.676 3.10124 84.2011 3.57989 84.4536L4.45012 84.9126L44.7182 84.9563L84.9862 85V72.8039V60.6078H78.6548H72.3233L72.55 59.9727C72.7229 59.4883 72.7785 57.8806 72.784 53.1978L72.7915 47.0581H78.2114H83.6313V38.9283V30.7984H79.5846H75.538L75.4684 27.6227C75.4024 24.5994 75.3739 24.3757 74.877 22.9631C74.5899 22.1469 74.0984 21.045 73.7849 20.5144C73.4714 19.9837 72.6433 18.9677 71.9446 18.2563C71.219 17.5177 70.1659 16.6674 69.4888 16.2738C68.8367 15.8946 67.884 15.4454 67.3716 15.2755C66.8593 15.1057 66.4109 14.9492 66.3752 14.9278C66.3395 14.9063 66.5493 14.6167 66.8413 14.2842C67.1333 13.9516 67.5633 13.3024 67.7967 12.8417C68.0303 12.3808 68.335 11.5673 68.4739 11.034C68.6129 10.5005 68.7266 9.63869 68.7266 9.11889C68.7266 8.59909 68.6129 7.73733 68.4739 7.20381C68.335 6.67045 68.0213 5.83918 67.7767 5.35664C67.5323 4.87427 66.9189 4.04605 66.4136 3.51642C65.9086 2.9868 65.0538 2.31829 64.5141 2.03069C63.9747 1.7431 63.0852 1.39098 62.5374 1.24837C61.9898 1.10576 61.0815 0.994141 60.5188 1.00024C59.9562 1.00634 59.0853 1.12185 58.5833 1.25684ZM62.8369 4.24878C63.3443 4.48099 64.0485 4.96031 64.402 5.31362C64.7553 5.6671 65.2436 6.38202 65.4872 6.90249C65.8408 7.65874 65.9297 8.10351 65.9297 9.11889C65.9297 10.1365 65.8419 10.5745 65.4884 11.3207C65.2455 11.8331 64.7506 12.5485 64.3885 12.9106C64.0263 13.2727 63.3109 13.7649 62.7986 14.0044C62.0654 14.3472 61.5965 14.4414 60.5967 14.447C59.5705 14.4526 59.1447 14.3687 58.3804 14.0103C57.8599 13.7663 57.145 13.2775 56.7915 12.9242C56.4382 12.5707 55.9629 11.8751 55.7355 11.3781C55.508 10.8814 55.28 10.0687 55.2287 9.57247C55.1687 8.99084 55.2309 8.34232 55.4037 7.74783C55.5512 7.24073 55.904 6.47517 56.1878 6.04666C56.4715 5.61815 57.0118 5.05414 57.3885 4.79314C57.765 4.53214 58.4694 4.17714 58.9538 4.00404C59.5722 3.78301 60.1444 3.70967 60.8744 3.75777C61.4946 3.79876 62.2864 3.99676 62.8369 4.24878ZM66.186 17.7453C66.7915 17.9543 67.717 18.3859 68.2423 18.7043C68.7679 19.0227 69.6563 19.7734 70.2165 20.3723C70.7768 20.9712 71.4716 21.9425 71.7604 22.5307C72.0493 23.119 72.398 24.1337 72.5356 24.7857C72.721 25.6655 72.7864 27.1861 72.7886 30.679L72.7915 35.3869L72.3757 35.8025C72.1137 36.0647 71.7665 36.2183 71.4365 36.2183C71.1066 36.2183 70.7594 36.0647 70.4974 35.8025L70.0816 35.3869V31.0025C70.0816 27.2222 70.0365 26.4419 69.7538 25.3372C69.5736 24.6326 69.2223 23.6486 68.973 23.1506C68.7239 22.6527 68.221 21.845 67.8555 21.356C67.4902 20.8668 67.1008 20.4668 66.9904 20.4668C66.8799 20.4668 66.3943 20.857 65.9115 21.3338L65.0334 22.201L65.6193 22.9684C65.9416 23.3905 66.3537 24.0268 66.5351 24.3825C66.7165 24.7382 66.9778 25.5079 67.1157 26.0931C67.2544 26.6814 67.3677 27.9709 67.3691 28.9777L67.3716 30.7984H64.6617H61.9517V36.8045V42.8108L61.3166 42.984C60.9673 43.0794 59.7445 43.4151 58.5993 43.7299C57.2168 44.1104 56.3703 44.4383 56.0794 44.7065C55.8384 44.9286 55.5368 45.3556 55.4091 45.6554C55.2262 46.0847 55.1767 47.5577 55.1762 52.5996C55.1757 58.6887 55.1592 59.0255 54.8386 59.5514C54.6533 59.8555 54.243 60.2274 53.9266 60.3783C53.5458 60.5599 53.1547 60.6156 52.7694 60.5434C52.4471 60.483 51.9664 60.2035 51.692 59.9173L51.1966 59.4002L51.1497 50.6627C51.1103 43.2906 51.1428 41.7883 51.3575 41.0496C51.5151 40.5073 51.8446 39.9347 52.223 39.5449C52.6351 39.1207 53.8781 38.3932 56.038 37.3121L59.2418 35.7085V28.5111V21.3136H57.7212H56.2005L48.0104 25.4026C40.5774 29.1137 39.7646 29.4812 39.2183 29.3788C38.8872 29.3166 38.4193 29.0686 38.1781 28.8276C37.937 28.5864 37.6884 28.1156 37.6257 27.7811C37.5428 27.3385 37.5992 27.0094 37.8334 26.5721C38.1256 26.0264 38.7439 25.6738 44.5911 22.7182C48.131 20.9292 51.7894 19.1635 52.721 18.7947C53.6525 18.426 55.1769 17.967 56.1084 17.7748C57.0399 17.5827 58.0689 17.3934 58.3949 17.3542C58.721 17.3151 60.3596 17.3016 62.0364 17.3243C64.6884 17.3598 65.2284 17.4147 66.186 17.7453ZM15.4129 20.5084C15.9203 20.7407 16.6245 21.22 16.978 21.5733C17.3313 21.9268 17.8196 22.6417 18.0632 23.1622C18.4168 23.9184 18.5057 24.3632 18.5057 25.3785C18.5057 26.3939 18.4168 26.8387 18.0632 27.5949C17.8196 28.1154 17.3313 28.8303 16.978 29.1838C16.6245 29.5371 15.9096 30.0254 15.3891 30.269C14.6329 30.6226 14.1881 30.7115 13.1727 30.7115C12.1574 30.7115 11.7126 30.6226 10.9564 30.269C10.4359 30.0254 9.72096 29.5371 9.36748 29.1838C9.01417 28.8303 8.53891 28.1347 8.31145 27.6378C8.08398 27.141 7.85601 26.3284 7.80469 25.8321C7.74473 25.2505 7.80689 24.602 7.97965 24.0075C8.12717 23.5004 8.47997 22.7348 8.76384 22.3063C9.04753 21.8778 9.58783 21.3138 9.96451 21.0528C10.341 20.7918 11.0454 20.4368 11.5298 20.2637C12.1482 20.0427 12.7204 19.9693 13.4503 20.0174C14.0706 20.0584 14.8624 20.2564 15.4129 20.5084ZM56.5318 29.0995V34.006L53.838 35.3686C51.5096 36.5462 51.0176 36.8677 50.2109 37.7391C49.6442 38.3512 49.1223 39.132 48.8822 39.7268C48.4869 40.7063 48.4867 40.7102 48.4389 49.9615C48.3995 57.5945 48.433 59.338 48.6308 59.912L48.8705 60.6078H38.8749H28.8792L27.1234 62.2338L25.3675 63.8597V59.6968C25.3675 55.9286 25.3338 55.4313 25.0128 54.4535C24.8179 53.8594 24.3779 53.0022 24.0349 52.5486C23.6921 52.095 23.0405 51.4435 22.5869 51.1007C22.1333 50.7577 21.2762 50.3176 20.682 50.1227C20.0032 49.8998 19.1626 49.768 18.4197 49.768H17.2377V46.1538C17.2377 42.5723 17.241 42.5377 17.6187 42.3579C17.8283 42.2581 22.4585 40.073 27.9081 37.5023C33.3576 34.9318 38.0068 32.6884 38.2397 32.5174C38.5024 32.3243 39.0808 32.1725 39.7641 32.1175C40.7882 32.0348 41.4081 31.7561 48.6561 28.12C52.9412 25.9703 56.4663 24.2073 56.4895 24.2023C56.5127 24.1972 56.5318 26.4009 56.5318 29.0995ZM34.8533 27.538C34.8538 27.8874 34.931 28.4499 35.0251 28.7883C35.119 29.1266 35.385 29.6819 35.616 30.0225L36.0362 30.6416L33.798 31.6939C32.567 32.2726 27.7467 34.5412 23.0861 36.7351L14.6124 40.7238L14.5679 46.5857L14.5233 52.4475L17.1084 52.5073C19.2174 52.5562 19.8028 52.625 20.2863 52.8807C20.6124 53.0532 21.0958 53.395 21.3605 53.6405C21.6251 53.8861 22.0061 54.3919 22.2074 54.7645C22.5659 55.4291 22.5729 55.5829 22.5729 62.8486V70.2554L22.0192 70.8091C21.5426 71.2858 21.3483 71.3629 20.6251 71.3629C19.902 71.3629 19.7074 71.2857 19.231 70.8096L18.6773 70.2562L18.5926 64.9358C18.5125 59.8975 18.4895 59.5907 18.1587 59.1482C17.9666 58.8912 17.5993 58.5239 17.3423 58.3318C16.9011 58.002 16.5907 57.9778 11.7636 57.8979C7.20139 57.8223 6.58826 57.7793 6.05914 57.4975C5.7331 57.3239 5.24972 56.9809 4.98499 56.7353C4.72043 56.4897 4.33935 55.984 4.13813 55.6113C3.7811 54.9494 3.77263 54.7774 3.77263 48.159C3.77263 41.6363 3.78652 41.3398 4.14779 40.1914C4.35425 39.5356 4.81985 38.5448 5.18248 37.9896C5.5451 37.4346 6.13841 36.6839 6.50087 36.3213C6.86349 35.9588 7.61194 35.3669 8.16409 35.0061C8.71624 34.6454 9.66896 34.1847 10.2812 33.9823C11.2568 33.6596 11.8618 33.6059 15.18 33.547L18.9656 33.4798L26.7819 30.2058C31.0809 28.405 34.6555 26.9252 34.7253 26.9173C34.795 26.9093 34.8528 27.1888 34.8533 27.538ZM67.3791 34.567C67.3831 35.1493 67.4842 35.8992 67.6038 36.2336C67.7234 36.5681 68.0311 37.1168 68.2877 37.4532C68.5442 37.7896 69.1441 38.2591 69.6205 38.4965C70.2392 38.805 70.7582 38.9283 71.4365 38.9283C72.1149 38.9283 72.6338 38.805 73.2525 38.4965C73.729 38.2591 74.3289 37.7896 74.5853 37.4532C74.8419 37.1168 75.1497 36.5681 75.2692 36.2336C75.3888 35.8992 75.4899 35.1493 75.494 34.567L75.5014 33.5084H78.2114H80.9213V38.9283V44.3481H72.7915H64.6617V38.9283V33.5084H66.0166H67.3716L67.3791 34.567ZM61.9517 46.3806V47.0581H62.6292H63.3067L63.3141 53.1978C63.3197 57.8806 63.3753 59.4883 63.5482 59.9727L63.7748 60.6078H60.5967H57.4187L57.6453 59.9727C57.8186 59.4871 57.8738 57.8562 57.8794 53.0489L57.8868 46.7603L59.7076 46.246C60.709 45.9631 61.6236 45.7251 61.74 45.7174C61.8765 45.7082 61.9517 45.944 61.9517 46.3806ZM70.0453 53.2371L69.9969 59.4161L69.4432 59.9696C68.9666 60.4459 68.7723 60.5231 68.0491 60.5231C67.3259 60.5231 67.1316 60.4459 66.655 59.9696L66.1013 59.4161L66.0529 53.2371L66.0046 47.0581H68.0491H70.0936L70.0453 53.2371ZM6.86755 60.5514L7.76048 60.6559L7.71441 70.8756L7.66817 81.0953L7.14431 81.6192C6.79845 81.965 6.39535 82.1725 5.95871 82.2298C5.44619 82.297 5.16385 82.226 4.70671 81.9157C4.38203 81.6954 4.0211 81.3267 3.90457 81.0967C3.74197 80.7754 3.69235 78.2009 3.69049 69.9966L3.68794 59.3147L4.8312 59.8807C5.45991 60.192 6.37638 60.4938 6.86755 60.5514ZM15.9157 65.6466C15.9613 70.0945 16.0031 70.7572 16.2724 71.2982L16.5774 71.9108L15.4711 72.9528C14.8626 73.5259 13.8489 74.4673 13.2183 75.0447C12.5877 75.6221 11.7097 76.4371 11.2673 76.8558L10.4628 77.6169V69.1123V60.6078H13.1634H15.8641L15.9157 65.6466ZM82.2763 72.8026V82.2873H46.1111H9.94605L10.1921 81.8112C10.3276 81.5494 12.2791 79.6338 14.5291 77.5543L18.6197 73.7732L19.261 73.9655C19.6136 74.0711 20.2418 74.1575 20.6569 74.1575C21.0721 74.1575 21.7866 74.0298 22.2448 73.8737C22.791 73.6875 23.3747 73.2931 23.9388 72.7289C24.503 72.1647 24.8975 71.581 25.0836 71.0348C25.2533 70.5369 25.3675 69.6727 25.3675 68.887V67.5724L27.673 65.4451L29.9785 63.3177H56.1274H82.2763V72.8026ZM66.0166 78.2224V79.5774H67.3716H68.7266V78.2224V76.8675H67.3716H66.0166V78.2224ZM71.4365 78.2224V79.5774H72.7915H74.1465V78.2224V76.8675H72.7915H71.4365V78.2224ZM76.8564 78.2224V79.5774H78.2114H79.5664V78.2224V76.8675H78.2114H76.8564V78.2224Z" stroke="white" stroke-width="0.204566" mask="url(#path-1-outside-1_1_1842)"/>
</svg>
