<svg width="87" height="86" viewBox="0 0 87 86" fill="none" xmlns="http://www.w3.org/2000/svg">
<path fill-rule="evenodd" clip-rule="evenodd" d="M37.8369 84.4313C36.6281 83.8707 36.3068 83.4454 35.0639 80.76C34.2908 79.0898 33.3332 76.9956 32.936 76.107C32.5387 75.218 32.2137 74.3395 32.2137 74.155C32.2137 73.9702 31.7609 73.5849 31.2078 73.2988C30.6543 73.0127 29.9382 72.7784 29.6163 72.7784C29.2947 72.7784 27.1303 73.6224 24.807 74.6539C21.9787 75.9099 20.1328 76.5295 19.2203 76.5295C18.4708 76.5295 17.4433 76.3129 16.9366 76.048C16.4302 75.7833 14.5199 74.0401 12.691 72.1741C9.43816 68.8551 9.3662 68.7473 9.3662 67.179C9.3662 66.0189 9.88317 64.3146 11.2383 61.0068C12.706 57.4248 13.0453 56.2651 12.8083 55.6424C12.6423 55.2052 12.2985 54.6876 12.0445 54.4925C11.7904 54.2971 11.0457 53.9425 10.3892 53.7048C9.73279 53.4668 8.88879 53.1503 8.51368 53.0016C8.13857 52.853 7.0644 52.4594 6.12663 52.1276C5.18886 51.7958 3.86541 51.1762 3.18544 50.7503C2.50547 50.3244 1.62294 49.5616 1.22464 49.0548C0.558312 48.2081 0.5 47.7184 0.5 42.9702C0.5 38.8075 0.60503 37.6566 1.04084 37.0343C1.3382 36.6097 2.144 35.9137 2.83113 35.4882C3.51826 35.0626 4.61767 34.5088 5.27411 34.2578C5.93055 34.0065 6.96653 33.5939 7.57591 33.3408C8.18563 33.0875 9.25981 32.6431 9.96297 32.3526C10.6665 32.0624 11.4661 31.7043 11.74 31.5567C12.0141 31.409 12.4264 30.8269 12.6566 30.2632C13.0423 29.3183 12.9406 28.9602 11.3597 25.6883C10.4162 23.736 9.4801 21.3657 9.27959 20.4211C9.07907 19.4761 9.02554 18.2625 9.16058 17.7237C9.30005 17.1679 10.4097 15.7714 11.725 14.4967C12.9996 13.2606 14.7521 11.5972 15.6186 10.8002C16.9243 9.59919 17.4276 9.35094 18.5587 9.35094C19.3096 9.35094 20.5789 9.59782 21.3799 9.89962C22.1806 10.2018 23.2964 10.6389 23.859 10.8715C24.4217 11.1044 25.4191 11.4969 26.0756 11.7441C26.732 11.991 27.4635 12.3419 27.7012 12.5237C27.9385 12.7054 28.7252 12.8541 29.4488 12.8541C30.1724 12.8541 30.9418 12.7443 31.159 12.6103C31.3759 12.4759 31.8369 11.7261 32.1834 10.9438C32.5298 10.1615 33.1559 8.67744 33.5743 7.6459C33.9928 6.61435 34.6833 5.00308 35.1092 4.06532C35.5348 3.12754 36.2199 2.05746 36.6315 1.68747C37.3114 1.07639 37.8976 1.01329 43.0339 1.00034C46.3089 0.992149 48.9886 1.13572 49.4022 1.34203C49.7951 1.53777 50.6537 2.76949 51.3102 4.07861C51.9666 5.38808 52.6892 6.91819 52.916 7.47881C53.1427 8.03976 53.7078 9.36219 54.1722 10.4179C54.8406 11.9382 55.244 12.4169 56.1122 12.7197C57.1107 13.0679 57.5748 12.9377 61.3351 11.2538C63.6049 10.2372 66.0274 9.30115 66.7186 9.17395C67.4102 9.04641 68.4894 9.11223 69.1196 9.32024C69.7491 9.52792 70.9866 10.4101 71.8699 11.281C73.0221 12.4169 73.4757 13.133 73.4757 13.8161C73.4757 14.4135 73.1933 14.9663 72.7176 15.2991C72.3009 15.591 71.7897 15.8301 71.582 15.8301C71.3744 15.8301 70.5263 15.2183 69.6973 14.4708C68.8349 13.693 67.8412 13.1095 67.3747 13.1068C66.9259 13.1041 65.3147 13.6879 63.7941 14.404C62.2732 15.1198 60.1801 16.0548 59.1428 16.4818L57.2566 17.2575L54.7673 16.2881C53.0872 15.6337 52.1211 15.0413 51.7961 14.466C51.5308 13.9972 50.7761 12.4238 50.1187 10.9694C49.4612 9.51496 48.9231 8.24062 48.9231 8.13729C48.9231 8.03397 48.6124 7.26738 48.2326 6.43362L47.542 4.91783H43.2897H39.0373L38.3703 6.36712C38.0037 7.16439 37.2293 9.02527 36.6499 10.5029C36.0702 11.9804 35.3657 13.635 35.084 14.1799C34.7553 14.8156 33.9334 15.4625 32.7904 15.9852C31.811 16.4333 30.6001 16.9029 30.0998 17.0284C29.4198 17.1989 27.8836 16.7283 24.0138 15.1641L18.8377 13.0713L16.7449 15.0096C15.5937 16.0756 14.2355 17.383 13.7263 17.9153C12.8186 18.864 12.8104 18.9104 13.3076 20.3191C13.5862 21.1092 14.5178 23.2207 15.3775 25.0121C16.2372 26.803 16.9502 28.7308 16.9621 29.2955C16.9741 29.8605 16.5915 31.1724 16.112 32.2101C15.6322 33.2481 15.0307 34.266 14.7753 34.472C14.5199 34.6779 12.4694 35.5755 10.2187 36.4665C7.96807 37.3576 5.7048 38.3004 5.18886 38.5613L4.25109 39.036V42.9071C4.25109 45.613 4.38101 46.886 4.68246 47.1363C4.9198 47.3334 6.79978 48.13 8.85981 48.9065C10.9202 49.6829 13.1725 50.5573 13.8651 50.8495C14.8462 51.2635 15.3147 51.7832 15.9876 53.2042C16.4622 54.2068 16.9417 55.3897 17.0529 55.8323C17.1906 56.382 16.598 58.2177 15.1862 61.6134C14.0482 64.35 13.1173 66.733 13.1173 66.9086C13.1173 67.0846 14.4271 68.4858 16.0278 70.0224C18.4251 72.3238 19.0716 72.7763 19.6936 72.5871C20.109 72.4606 21.2162 72.0121 22.154 71.5903C23.0918 71.1685 24.6263 70.4906 25.5641 70.0837C26.5018 69.6773 27.5354 69.1964 27.8611 69.0154C28.1868 68.8343 28.8722 68.6863 29.3844 68.6863C29.8966 68.6863 31.011 68.9441 31.8615 69.2588C32.7116 69.5736 33.8294 70.1213 34.345 70.4756C34.8606 70.8299 35.2828 71.2582 35.2828 71.4273C35.2828 71.5968 35.6886 72.6222 36.1848 73.7059C36.6809 74.79 37.5682 76.8279 38.1571 78.2345L39.2276 80.7921L43.2596 80.8886C45.8714 80.951 47.454 80.8504 47.7521 80.6028C48.0051 80.3927 49.0691 78.0296 50.1163 75.3513L52.0208 70.4817L54.1378 69.5828C55.302 69.0887 56.7172 68.6849 57.2822 68.6853C57.8473 68.6859 60.102 69.4348 62.2927 70.3494C64.4833 71.2643 66.6824 72.1148 67.1796 72.2396C67.9701 72.4381 68.4328 72.1339 70.8649 69.8188C72.3947 68.3623 73.698 66.9625 73.7618 66.7081C73.8252 66.4537 73.683 65.7587 73.446 65.164C73.209 64.5693 72.2746 62.5236 71.3699 60.6177C70.4649 58.7122 69.7246 56.7844 69.7246 56.334C69.7246 55.8835 70.0369 54.8342 70.4189 54.0018C70.8005 53.1694 71.2322 52.2582 71.3781 51.9769C71.5241 51.6956 72.2514 51.1585 72.9945 50.7834C73.7379 50.4083 76.1451 49.359 78.3439 48.4512L82.3419 46.8011V42.7612V38.7209L80.5516 37.7613C79.1224 36.9958 78.7388 36.6067 78.6505 35.8343C78.585 35.2617 78.7807 34.5998 79.1296 34.2145C79.4542 33.8558 79.9343 33.5625 80.1973 33.5625C80.4602 33.5625 81.6254 34.028 82.7872 34.5964C83.949 35.1652 85.1681 35.9495 85.4962 36.3393C86.0118 36.9518 86.0929 37.8138 86.0929 42.6821V48.3158L84.9601 49.3791C84.2621 50.0342 82.1069 51.1438 79.3444 52.2698C76.8789 53.2748 74.722 54.2722 74.5515 54.4864C74.3807 54.7002 74.1341 55.225 74.0029 55.6519C73.83 56.2167 74.274 57.519 75.6315 60.4261C76.6579 62.6249 77.5984 65.0443 77.7215 65.8031C77.8443 66.5618 77.7897 67.5906 77.6002 68.0895C77.4106 68.5884 75.7011 70.4998 73.8013 72.3368C71.9016 74.1738 69.9636 75.8809 69.4941 76.1298C68.8015 76.4978 68.3128 76.5042 66.8942 76.1639C65.9333 75.9334 63.5302 75.0625 61.5537 74.2283C59.5769 73.3942 57.6168 72.7075 57.1977 72.7023C56.7786 72.6972 56.0751 72.9295 55.6341 73.2183C55.1479 73.5368 54.5323 74.5929 54.0686 75.9037C53.6484 77.0918 52.9296 78.908 52.4716 79.9395C52.0137 80.9711 51.4234 82.1987 51.1598 82.6676C50.8962 83.1365 50.2745 83.827 49.7784 84.2021C48.9903 84.7975 48.2622 84.8958 44.0402 84.9749C39.9171 85.0523 39.0028 84.9721 37.8369 84.4313ZM38.9711 63.6046C37.5297 63.2803 35.1546 62.424 33.693 61.7014C31.7319 60.7323 30.3508 59.7035 28.4231 57.7761C26.3839 55.7365 25.5085 54.5341 24.4312 52.2917C23.6725 50.7118 22.8111 48.2364 22.5175 46.7909C22.2239 45.3453 21.9835 43.5356 21.9835 42.7697C21.9835 42.0038 22.2249 40.1941 22.5199 38.7485C22.8149 37.303 23.5869 35.0101 24.2352 33.6532C24.8834 32.2963 26.1629 30.2861 27.0785 29.186C27.9941 28.0859 29.4857 26.6469 30.3934 25.988C31.3008 25.3292 32.7338 24.4105 33.5778 23.9461C34.4217 23.4813 35.8796 22.8559 36.8173 22.5558C37.7551 22.2557 39.6549 21.8427 41.0393 21.6381C43.1751 21.3227 43.6784 21.3462 44.3642 21.7957C44.9071 22.1513 45.172 22.6499 45.172 23.3159C45.172 23.8608 44.947 24.5316 44.6718 24.8068C44.3822 25.0963 43.1256 25.408 41.6879 25.5468C40.2349 25.6873 38.2547 26.1814 36.9155 26.7376C35.6565 27.2603 33.8598 28.2513 32.9223 28.9394C31.9846 29.6276 30.7689 30.7574 30.2202 31.4503L29.2224 32.71H31.6886H34.1544L38.5551 35.4022C40.9752 36.8829 43.4158 38.3557 43.9785 38.6756C44.5412 38.9951 45.7892 39.7422 46.7519 40.3356C47.7163 40.9303 48.7113 41.315 48.9685 41.1922C49.2249 41.0698 50.3959 39.9417 51.5703 38.6858L53.7064 36.4017L51.3095 34.7263C49.9911 33.8049 48.8252 32.7199 48.7185 32.3154C48.6114 31.911 48.6847 31.2794 48.8815 30.9125C49.0779 30.5453 50.1269 29.8131 51.2123 29.2852C52.2977 28.7577 58.3022 25.8213 64.5559 22.76C70.8097 19.6988 76.2719 17.1941 76.6941 17.1941C77.1166 17.1941 77.7434 17.5051 78.0874 17.885C78.6897 18.5506 78.6907 18.6976 78.1205 21.8918C77.7949 23.7155 77.3928 25.8983 77.2274 26.7423C77.0617 27.5863 76.6835 29.658 76.3868 31.3459C76.0898 33.0339 75.698 35.259 75.5156 36.2906C75.3328 37.3221 74.9665 39.317 74.7012 40.7237C74.4359 42.1303 74.0315 44.4321 73.8027 45.8388C73.5193 47.5793 73.1708 48.5869 72.7111 48.9931C72.3398 49.3215 71.7699 49.5899 71.445 49.5899C71.12 49.5899 69.5933 48.5767 68.0526 47.3385C65.4586 45.2533 65.2076 45.1271 64.6555 45.6263C64.3278 45.923 61.7665 48.4819 58.9637 51.313C56.161 54.144 53.3504 56.6791 52.7178 56.9468C52.0853 57.2141 50.7472 57.433 49.7443 57.433C48.5176 57.433 47.4987 57.196 46.6315 56.7091C45.9226 56.3108 42.7062 54.3926 39.484 52.4465C36.2618 50.5003 33.4997 48.9085 33.3459 48.9092C33.1921 48.9099 32.3375 49.8122 31.4465 50.9147C30.5554 52.0171 29.8267 53.153 29.8267 53.4395C29.8267 53.7256 30.5994 54.6545 31.5436 55.5033C32.4879 56.3524 33.9764 57.447 34.8518 57.9364C35.7271 58.4257 37.3585 59.1261 38.477 59.4934C39.5955 59.8607 41.2184 60.1611 42.0835 60.1611C42.9551 60.1611 43.9942 60.3978 44.414 60.692C44.8996 61.032 45.172 61.5766 45.172 62.2071C45.172 62.8377 44.8996 63.3823 44.414 63.7222C43.9972 64.0141 43.1918 64.2399 42.6237 64.2235C42.0559 64.2072 40.4122 63.9285 38.9711 63.6046ZM57.6737 47.0381C61.5933 43.0459 64.4656 40.3826 64.8519 40.3826C65.2062 40.3826 66.4482 41.1499 67.612 42.0877C68.7759 43.0255 69.8808 43.7927 70.0673 43.7927C70.2538 43.7927 70.4066 43.4255 70.4066 42.9767C70.4066 42.5279 70.6398 40.9549 70.9253 39.4814C71.2104 38.0079 71.5943 35.9581 71.7781 34.9265C71.9619 33.895 72.3333 31.8233 72.6034 30.3229C72.8734 28.8225 73.2844 26.5613 73.5169 25.2978C73.7495 24.0344 73.8627 22.9237 73.7686 22.8296C73.6745 22.7355 71.5367 23.6712 69.018 24.9091C66.4997 26.1469 62.2521 28.2158 59.5796 29.5069C56.9068 30.7976 54.7202 31.9826 54.7202 32.1398C54.7202 32.2974 55.5642 33.0073 56.5958 33.718C58.204 34.8252 58.4696 35.1618 58.459 36.0764C58.4488 36.9715 57.7709 37.8418 54.2421 41.4909C50.9265 44.9194 49.8459 45.8388 49.1298 45.8388C48.608 45.8388 46.8395 44.9682 44.9739 43.7927C43.1877 42.6674 41.6566 41.7467 41.571 41.7467C41.4857 41.7467 39.6139 40.6207 37.4114 39.2447C35.2091 37.8684 32.9793 36.6363 32.4565 36.5068C31.8454 36.3553 31.114 36.4651 30.4105 36.8137C29.8079 37.1117 28.5864 38.2524 27.6954 39.348C26.1407 41.2601 26.0756 41.4275 26.0793 43.5042C26.0814 44.6943 26.3058 46.4025 26.5782 47.3C26.8504 48.1975 27.1631 49.0773 27.2729 49.255C27.383 49.433 28.4013 48.4683 29.5358 47.1118C30.6707 45.7552 31.8911 44.5351 32.2478 44.4004C32.6045 44.2657 33.1648 44.2548 33.4928 44.3762C33.8209 44.4976 35.3169 45.3631 36.8173 46.2998C38.3178 47.2366 41.691 49.2806 44.313 50.8424C47.4339 52.7009 49.4367 53.684 50.1102 53.6877C51.0002 53.6932 52.0259 52.7912 57.6737 47.0381Z" fill="white" stroke="#17375E" stroke-width="0.975627"/>
</svg>
