<svg width="63" height="61" viewBox="0 0 63 61" fill="none" xmlns="http://www.w3.org/2000/svg">
<g clip-path="url(#clip0_1_1794)">
<path d="M36.736 43.7598L22.344 52.9812L1.40002 38.4277" stroke="white" stroke-width="2" stroke-linecap="round" stroke-linejoin="round"/>
<path d="M40.656 13.3086V15.9534" stroke="white" stroke-width="2" stroke-miterlimit="10"/>
<path d="M22.344 25.2178V27.8626" stroke="white" stroke-width="2" stroke-miterlimit="10"/>
<path d="M36.736 30.4227L15.19 15.6995L24.892 9.80176L30.576 13.4083L47.208 23.945V45.1034L36.736 51.9205V30.4227Z" stroke="white" stroke-width="2" stroke-linecap="round" stroke-linejoin="round"/>
<path d="M42.882 21.2154L50.372 16.4349C49.238 15.7136 49 14.6812 50.372 13.8043L42.14 8.54297C40.768 9.41985 39.158 9.26428 38.024 8.54297L30.492 13.3517" stroke="white" stroke-width="2" stroke-miterlimit="10"/>
<path d="M20.804 19.5322L12.614 24.7652C13.986 25.6421 13.762 26.6604 12.614 27.3818L20.846 32.6431C21.98 31.9217 23.576 31.7803 24.948 32.6431L32.704 27.6929" stroke="white" stroke-width="2" stroke-miterlimit="10"/>
<path d="M36.736 30.5491L22.344 39.7564L1.40002 26.5324L16.87 16.8584" stroke="white" stroke-width="2" stroke-linecap="round" stroke-linejoin="round"/>
<path d="M26.348 10.7062L40.656 1.41406L61.6 14.638L47.138 23.8877" stroke="white" stroke-width="2" stroke-linecap="round" stroke-linejoin="round"/>
<path d="M36.736 37.1826L22.344 46.3616L1.40002 31.8223" stroke="white" stroke-width="2" stroke-linecap="round" stroke-linejoin="round"/>
<path d="M61.6 21.2432L47.208 30.4504" stroke="white" stroke-width="2" stroke-linecap="round" stroke-linejoin="round"/>
<path d="M36.736 50.3779L22.344 59.5852L1.40002 45.0459" stroke="white" stroke-width="2" stroke-linecap="round" stroke-linejoin="round"/>
<path d="M61.6 34.4668L47.208 43.6741" stroke="white" stroke-width="2" stroke-linecap="round" stroke-linejoin="round"/>
<path d="M61.6 27.8623L47.208 37.0696" stroke="white" stroke-width="2" stroke-linecap="round" stroke-linejoin="round"/>
</g>
<defs>
<clipPath id="clip0_1_1794">
<rect width="63" height="61" fill="white"/>
</clipPath>
</defs>
</svg>
