<svg width="53" height="51" viewBox="0 0 53 51" fill="none" xmlns="http://www.w3.org/2000/svg">
<g clip-path="url(#clip0_1_1810)">
<path d="M17.4139 31.6273C19.5689 31.6273 21.3159 29.8816 21.3159 27.7282C21.3159 25.5748 19.5689 23.8291 17.4139 23.8291C15.2589 23.8291 13.512 25.5748 13.512 27.7282C13.512 29.8816 15.2589 31.6273 17.4139 31.6273Z" stroke="white" stroke-width="2" stroke-miterlimit="10"/>
<path d="M6.26544 36.0833C8.42044 36.0833 10.1674 34.3376 10.1674 32.1842C10.1674 30.0308 8.42044 28.2852 6.26544 28.2852C4.11044 28.2852 2.36346 30.0308 2.36346 32.1842C2.36346 34.3376 4.11044 36.0833 6.26544 36.0833Z" stroke="white" stroke-width="2" stroke-miterlimit="10"/>
<path d="M10.1674 50.5657L12.7762 38.4117C13.211 36.3953 14.6268 35.3816 16.8565 34.9694L23.5456 33.8554L30.179 27.873C30.179 27.873 32.3752 31.6273 29.9449 33.9222L25.1622 38.6568L17.8487 40.8848" stroke="white" stroke-width="2" stroke-miterlimit="10"/>
<path d="M20.2011 50.566L22.4308 39.4258" stroke="white" stroke-width="2" stroke-miterlimit="10"/>
<path d="M42.5427 34.9691C44.6977 34.9691 46.4447 33.2234 46.4447 31.07C46.4447 28.9166 44.6977 27.1709 42.5427 27.1709C40.3877 27.1709 38.6407 28.9166 38.6407 31.07C38.6407 33.2234 40.3877 34.9691 42.5427 34.9691Z" stroke="white" stroke-width="2" stroke-miterlimit="10"/>
<path d="M51.9298 50.5654L49.4325 41.8871C48.9977 39.8708 47.7491 38.3223 44.215 38.3223H30.8368C30.8368 38.3223 31.5837 42.7784 35.2962 42.7784H44.215" stroke="white" stroke-width="2" stroke-miterlimit="10"/>
<path d="M43.7021 50.5657L40.8704 42.7676" stroke="white" stroke-width="2" stroke-miterlimit="10"/>
<path d="M1.09253 50.5658L2.74251 42.8679C3.1773 40.8515 4.59316 39.8377 6.82286 39.4255L12.3971 38.3115" stroke="white" stroke-width="2" stroke-miterlimit="10"/>
<path d="M18.1275 4.58984L2.72021 11.1849L7.79278 15.1062L7.10158 21.4227L22.52 14.8277" stroke="white" stroke-width="2" stroke-miterlimit="10"/>
<path d="M28.6962 29.2209L16.3437 0.43457" stroke="white" stroke-width="2" stroke-miterlimit="10"/>
<path d="M32.4533 38.3117L30.4243 33.3877" stroke="white" stroke-width="2" stroke-miterlimit="10"/>
<path d="M37.5256 50.5653L34.3037 42.7783" stroke="white" stroke-width="2" stroke-miterlimit="10"/>
</g>
<defs>
<clipPath id="clip0_1_1810">
<rect width="53" height="51" fill="white"/>
</clipPath>
</defs>
</svg>
