<svg width="63" height="63" viewBox="0 0 63 63" fill="none" xmlns="http://www.w3.org/2000/svg">
<path fill-rule="evenodd" clip-rule="evenodd" d="M30.4 0.204217C30.109 0.299142 29.6268 0.519754 29.3285 0.694661C29.03 0.869442 28.5156 1.30163 28.1851 1.65496C27.8546 2.00829 27.4328 2.6204 27.2477 3.01529C26.9497 3.65113 26.9112 3.88405 26.9112 5.05165C26.9112 6.22113 26.9493 6.45166 27.2497 7.0924C27.4359 7.48967 27.8837 8.12715 28.2449 8.50911C28.6576 8.94543 29.1918 9.34196 29.6822 9.576C30.1115 9.78092 30.5536 9.94855 30.6646 9.94855C30.8418 9.94855 30.8664 10.2005 30.8664 12.0127V14.0766L30.2699 14.1513C29.9419 14.1923 29.194 14.3143 28.608 14.4224C28.022 14.5305 27.0332 14.7894 26.4107 14.9979C25.7882 15.2064 24.8274 15.6038 24.2754 15.8812C23.7234 16.1586 22.8618 16.6623 22.3606 17.0005C21.8595 17.3387 21.2472 17.7929 21.0001 18.0097L20.551 18.4042L15.915 13.7683L11.279 9.13227L11.53 8.47182C11.6788 8.08019 11.781 7.50713 11.781 7.06402C11.781 6.60635 11.6762 6.03655 11.5106 5.59395C11.3272 5.10401 11.0327 4.66366 10.5963 4.22733C10.16 3.79101 9.71967 3.49644 9.22973 3.31312C8.7885 3.14801 8.21732 3.04266 7.76304 3.04266C7.30876 3.04266 6.73758 3.14801 6.29636 3.31312C5.80642 3.49644 5.36607 3.79101 4.92975 4.22733C4.49342 4.66366 4.19885 5.10401 4.01553 5.59395C3.85042 6.03517 3.74507 6.60635 3.74507 7.06063C3.74507 7.51491 3.85042 8.08609 4.01553 8.52731C4.19885 9.01726 4.49342 9.4576 4.92975 9.89393C5.36607 10.3303 5.80642 10.6248 6.29636 10.8081C6.73896 10.9738 7.30876 11.0786 7.76643 11.0786C8.20954 11.0786 8.7826 10.9764 9.17423 10.8276L9.83468 10.5766L14.4697 15.2117L19.1048 19.8467L18.5983 20.4538C18.3196 20.7875 17.8373 21.4563 17.5263 21.9397C17.2153 22.4231 16.7624 23.2141 16.5201 23.6975C16.2776 24.1809 15.9087 25.0857 15.7003 25.7083C15.4919 26.3308 15.2329 27.3196 15.1248 27.9056C15.0167 28.4916 14.8947 29.2396 14.8538 29.5675L14.779 30.164H13.7196C12.7061 30.164 12.6597 30.1516 12.654 29.8814C12.6509 29.726 12.5237 29.3021 12.3715 28.9392C12.2195 28.5764 11.8504 27.9459 11.5515 27.538C11.2526 27.1301 10.6826 26.5681 10.2847 26.289C9.88679 26.0099 9.25547 25.654 8.8818 25.4982C8.31037 25.2599 7.97323 25.2149 6.75855 25.2152C5.55228 25.2156 5.19594 25.2627 4.59349 25.5011C4.19684 25.6582 3.54644 26.0317 3.1479 26.3313C2.7495 26.6308 2.18686 27.1952 1.89769 27.5854C1.60852 27.9758 1.24351 28.6168 1.08643 29.0098C0.847239 29.6081 0.800781 29.9595 0.800781 31.1684C0.800781 32.3773 0.847239 32.7288 1.08643 33.3271C1.24351 33.7201 1.60852 34.3611 1.89769 34.7515C2.18686 35.1417 2.7495 35.7061 3.1479 36.0056C3.54644 36.3052 4.19684 36.6781 4.59349 36.8343C5.18187 37.0661 5.56886 37.1197 6.69577 37.1255C7.84089 37.1314 8.20577 37.0837 8.83082 36.8463C9.24542 36.6889 9.91492 36.3131 10.3186 36.0112C10.7222 35.7093 11.2977 35.1343 11.5974 34.7335C11.8973 34.3327 12.259 33.7005 12.4013 33.3287C12.5435 32.9571 12.6599 32.5449 12.6599 32.4129C12.6599 32.1957 12.7601 32.1729 13.7196 32.1729H14.779L14.8538 32.7694C14.8947 33.0975 15.0167 33.8453 15.1248 34.4313C15.2329 35.0173 15.4919 36.0061 15.7003 36.6286C15.9088 37.2511 16.306 38.2124 16.583 38.7649C16.86 39.3174 17.4325 40.2769 17.8553 40.8973C18.2782 41.5176 19.1642 42.5662 19.8241 43.2274C20.4922 43.8967 21.5467 44.7791 22.2031 45.2182C22.8515 45.6518 23.8088 46.2213 24.3305 46.4833C24.8521 46.7455 25.7882 47.1305 26.4107 47.339C27.0332 47.5474 28.022 47.8064 28.608 47.9145C29.194 48.0226 29.9419 48.1446 30.2699 48.1856L30.8664 48.2603V50.3242C30.8664 52.1363 30.8418 52.3883 30.6646 52.3883C30.5536 52.3883 30.1115 52.556 29.6822 52.7609C29.1918 52.9949 28.6576 53.3915 28.2449 53.8278C27.8837 54.2097 27.4359 54.8472 27.2497 55.2445C26.9493 55.8852 26.9112 56.1158 26.9112 57.2852C26.9112 58.4547 26.9493 58.6853 27.2497 59.326C27.4359 59.7233 27.8828 60.3597 28.2429 60.7406C28.653 61.174 29.2061 61.5847 29.7225 61.8389C30.4939 62.2187 30.6326 62.2449 31.8709 62.2449C33.1091 62.2449 33.2478 62.2187 34.0192 61.8389C34.5356 61.5847 35.0888 61.174 35.4988 60.7406C35.8589 60.3597 36.3058 59.7233 36.492 59.326C36.7931 58.6835 36.8303 58.4577 36.828 57.2852C36.8258 56.1225 36.7857 55.8815 36.4894 55.2445C36.3047 54.8472 35.8602 54.2121 35.502 53.8332C35.1243 53.434 34.5324 52.9854 34.0939 52.7664C33.6779 52.5585 33.2335 52.3883 33.1064 52.3883C32.8914 52.3883 32.8754 52.245 32.8754 50.3242V48.2603L33.4718 48.181C33.7999 48.1375 34.5485 48.0175 35.1355 47.9146C35.7225 47.8116 36.7113 47.5544 37.3328 47.3429C37.9543 47.1315 38.8584 46.7604 39.3418 46.5185C39.8252 46.2765 40.6162 45.8256 41.0996 45.5165C41.583 45.2075 42.2527 44.7262 42.5877 44.447L43.1969 43.9393L45.3185 46.0609L47.44 48.1825L47.1891 48.8429C47.0403 49.2344 46.9382 49.8073 46.9382 50.2504C46.9382 50.7081 47.0431 51.2779 47.2087 51.7205C47.392 52.2104 47.6866 52.6508 48.1229 53.0871C48.5592 53.5234 48.9996 53.818 49.4895 54.0013C49.9308 54.1664 50.5019 54.2718 50.9562 54.2718C51.4105 54.2718 51.9817 54.1664 52.4229 54.0013C52.9128 53.818 53.3532 53.5234 53.7895 53.0871C54.2258 52.6508 54.5204 52.2104 54.7037 51.7205C54.8688 51.2793 54.9742 50.7081 54.9742 50.2538C54.9742 49.7995 54.8688 49.2283 54.7037 48.7871C54.5204 48.2972 54.2258 47.8568 53.7895 47.4205C53.3532 46.9842 52.9128 46.6896 52.4229 46.5063C51.9803 46.3407 51.4105 46.2358 50.9528 46.2358C50.5097 46.2358 49.9368 46.3379 49.5453 46.4867L48.8849 46.7376L46.7601 44.6128L44.6353 42.4881L45.0296 42.0391C45.2466 41.7921 45.7006 41.1798 46.0388 40.6787C46.377 40.1775 46.8807 39.3159 47.1581 38.7639C47.4355 38.2119 47.8358 37.2429 48.0476 36.6102C48.2594 35.9776 48.5163 34.9888 48.6185 34.4128C48.7207 33.837 48.8399 33.0975 48.8834 32.7694L48.9627 32.1729H50.0222C50.888 32.1729 51.0818 32.208 51.0818 32.3644C51.0818 32.4698 51.1906 32.8658 51.3239 33.2445C51.457 33.6233 51.7903 34.2496 52.0645 34.6362C52.3389 35.0228 52.8261 35.5563 53.1471 35.8216C53.4682 36.0869 54.0349 36.4478 54.4063 36.6236C54.7777 36.7993 55.38 37.0071 55.7448 37.0853C56.1103 37.1636 56.8612 37.198 57.4176 37.1618C57.9971 37.1241 58.7342 36.9798 59.1482 36.8231C59.5449 36.6731 60.2095 36.2945 60.6251 35.9821C61.0408 35.6696 61.605 35.101 61.8787 34.7187C62.1525 34.3364 62.4976 33.706 62.6454 33.3179C62.8169 32.8679 62.9375 32.1968 62.9786 31.4646C63.0315 30.5217 62.9948 30.1586 62.7733 29.4293C62.625 28.9411 62.2615 28.1862 61.9656 27.7519C61.6602 27.3038 61.0948 26.7095 60.6586 26.3783C60.2357 26.0571 59.5607 25.6697 59.1584 25.5175C58.7347 25.3572 58.0025 25.2132 57.4176 25.1751C56.8522 25.1384 56.1099 25.1733 55.7303 25.2547C55.3576 25.3346 54.6984 25.5744 54.2656 25.7875C53.8062 26.0136 53.1689 26.4847 52.7342 26.9194C52.2904 27.3632 51.8285 27.9914 51.5905 28.4745C51.3711 28.9204 51.1595 29.4829 51.1202 29.7246L51.0489 30.164H50.0057H48.9627L48.8834 29.5675C48.8399 29.2394 48.7207 28.4999 48.6185 27.9241C48.5163 27.3481 48.2594 26.3593 48.0476 25.7267C47.8358 25.094 47.4355 24.1249 47.1581 23.573C46.8807 23.021 46.377 22.1594 46.0388 21.6582C45.7006 21.157 45.2466 20.5448 45.0296 20.2978L44.6353 19.8488L46.7601 17.7241L48.8849 15.5993L49.5453 15.8502C49.9368 15.999 50.5097 16.1011 50.9528 16.1011C51.4105 16.1011 51.9803 15.9962 52.4229 15.8306C52.9128 15.6473 53.3532 15.3527 53.7895 14.9164C54.2258 14.4801 54.5204 14.0397 54.7037 13.5498C54.8688 13.1086 54.9742 12.5374 54.9742 12.0831C54.9742 11.6288 54.8688 11.0576 54.7037 10.6164C54.5204 10.1265 54.2258 9.68612 53.7895 9.24979C53.3532 8.81347 52.9128 8.5189 52.4229 8.33558C51.9817 8.17047 51.4105 8.06512 50.9562 8.06512C50.5019 8.06512 49.9308 8.17047 49.4895 8.33558C48.9996 8.5189 48.5592 8.81347 48.1229 9.24979C47.6866 9.68612 47.392 10.1265 47.2087 10.6164C47.0431 11.059 46.9382 11.6288 46.9382 12.0865C46.9382 12.5296 47.0403 13.1025 47.1891 13.494L47.44 14.1544L45.3185 16.276L43.1969 18.3976L42.5877 17.8899C42.2527 17.6107 41.583 17.1294 41.0996 16.8204C40.6162 16.5113 39.8252 16.0604 39.3418 15.8184C38.8584 15.5765 37.9543 15.2061 37.3328 14.9955C36.7113 14.7848 35.7225 14.5254 35.1355 14.4192C34.5485 14.3128 33.7999 14.1923 33.4718 14.1513L32.8754 14.0766V12.0127C32.8754 10.0919 32.8914 9.94855 33.1064 9.94855C33.2335 9.94855 33.6779 9.77841 34.0939 9.57048C34.5324 9.3515 35.1243 8.90287 35.502 8.50371C35.8602 8.12476 36.3047 7.48967 36.4894 7.0924C36.7858 6.45505 36.8258 6.21447 36.828 5.04901C36.8304 3.8111 36.8049 3.67599 36.4245 2.90329C36.1703 2.38685 35.7596 1.83376 35.3262 1.42367C34.9454 1.06356 34.3089 0.619324 33.9116 0.436381C33.3324 0.169814 32.9653 0.0967367 32.0592 0.0678575C31.3465 0.0451309 30.7338 0.0954811 30.4 0.204217ZM33.2388 2.41008C33.4878 2.53816 33.8404 2.80359 34.0225 2.99972C34.2045 3.19597 34.438 3.52607 34.5413 3.73325C34.6445 3.94043 34.7686 4.348 34.8169 4.63893C34.8755 4.99138 34.8375 5.3997 34.7029 5.86265C34.5918 6.24473 34.3242 6.75866 34.1081 7.00463C33.892 7.25073 33.4839 7.57192 33.2012 7.71845C32.8318 7.9098 32.4572 7.98476 31.8709 7.98476C31.2871 7.98476 30.9117 7.91005 30.5525 7.72259C30.2762 7.57832 29.9013 7.2997 29.7192 7.10357C29.5372 6.90732 29.2867 6.54897 29.1626 6.30726C29.0133 6.01671 28.937 5.59118 28.9372 5.05165C28.9376 4.46854 29.0126 4.0921 29.1999 3.73325C29.3442 3.45701 29.6339 3.06802 29.8435 2.86876C30.0534 2.66949 30.5247 2.40004 30.891 2.27021C31.3613 2.10321 31.7375 2.05487 32.1716 2.1056C32.5096 2.14502 32.9899 2.28201 33.2388 2.41008ZM56.2677 5.34069C55.1585 6.45002 54.9742 6.69236 54.9742 7.04155C54.9742 7.30648 55.0819 7.55647 55.2824 7.75687C55.4828 7.95739 55.7328 8.06512 55.9978 8.06512C56.3469 8.06512 56.5893 7.8808 57.6986 6.77159C58.8501 5.62006 58.9921 5.42934 58.9921 5.03557C58.9921 4.73548 58.8986 4.50533 58.7016 4.32012C58.5214 4.15087 58.2495 4.04715 57.9862 4.04715C57.6146 4.04715 57.399 4.2095 56.2677 5.34069ZM8.64675 5.33416C9.05608 5.54058 9.28309 5.7676 9.48951 6.17693C9.64483 6.48506 9.77203 6.88271 9.77203 7.06063C9.77203 7.23855 9.64483 7.6362 9.48951 7.94433C9.28309 8.35366 9.05608 8.58068 8.64675 8.7871C8.33862 8.94242 7.94096 9.06961 7.76304 9.06961C7.58512 9.06961 7.18747 8.94242 6.87934 8.7871C6.47001 8.58068 6.243 8.35366 6.03657 7.94433C5.88125 7.6362 5.75406 7.23855 5.75406 7.06063C5.75406 6.88271 5.88125 6.48506 6.03657 6.17693C6.243 5.7676 6.47001 5.54058 6.87934 5.33416C7.18747 5.17884 7.58512 5.05165 7.76304 5.05165C7.94096 5.05165 8.33862 5.17884 8.64675 5.33416ZM51.8399 10.3566C52.2492 10.563 52.4763 10.7901 52.6827 11.1994C52.8381 11.5075 52.9652 11.9052 52.9652 12.0831C52.9652 12.261 52.8381 12.6587 52.6827 12.9668C52.4763 13.3761 52.2492 13.6031 51.8399 13.8096C51.5318 13.9649 51.1341 14.0921 50.9562 14.0921C50.7783 14.0921 50.3806 13.9649 50.0725 13.8096C49.6632 13.6031 49.4362 13.3761 49.2297 12.9668C49.0743 12.6587 48.9472 12.261 48.9472 12.0831C48.9472 11.9052 49.0743 11.5075 49.2297 11.1994C49.4362 10.7901 49.6632 10.563 50.0725 10.3566C50.3806 10.2013 50.7783 10.0741 50.9562 10.0741C51.1341 10.0741 51.5318 10.2013 51.8399 10.3566ZM34.8007 16.4138C35.3418 16.5261 36.2741 16.7889 36.8725 16.9978C37.4709 17.2069 38.3844 17.6044 38.9023 17.8811C39.4202 18.1579 40.2014 18.6392 40.6379 18.9507C41.0746 19.2622 41.7915 19.8533 42.2309 20.2644C42.6703 20.6754 43.3429 21.4205 43.7255 21.9201C44.1082 22.4197 44.6749 23.2734 44.9848 23.8172C45.2946 24.361 45.7254 25.2912 45.942 25.8841C46.1588 26.477 46.4362 27.4439 46.5588 28.0327C46.6813 28.6216 46.8216 29.6104 46.8706 30.23C46.9218 30.8786 46.9004 31.8858 46.8202 32.6035C46.7436 33.2891 46.5651 34.3061 46.4233 34.8636C46.2816 35.421 46.0216 36.2443 45.8457 36.6932C45.6697 37.142 45.2956 37.9189 45.0143 38.4196C44.7329 38.9204 44.4574 39.3299 44.402 39.3299C44.3467 39.3299 44.3014 39.2404 44.3014 39.1312C44.3014 39.0218 44.1293 38.5022 43.9187 37.9766C43.7083 37.451 43.2705 36.5736 42.9456 36.0268C42.6209 35.48 41.9101 34.5563 41.3662 33.9745C40.8223 33.3926 40.0555 32.6689 39.6623 32.3664C39.2692 32.0638 38.5559 31.6044 38.0774 31.3452C37.5987 31.0862 37.1868 30.8588 37.1618 30.8398C37.1368 30.821 37.3136 30.5622 37.5548 30.265C37.7959 29.9677 38.1132 29.486 38.2599 29.1946C38.4067 28.9033 38.6113 28.3405 38.7146 27.944C38.8178 27.5476 38.9023 26.7668 38.9023 26.2088C38.9023 25.6508 38.815 24.8595 38.7086 24.4503C38.602 24.0411 38.3343 23.337 38.1137 22.8858C37.85 22.3465 37.4108 21.7634 36.832 21.1848C36.2535 20.6061 35.6703 20.1669 35.1311 19.9032C34.6798 19.6826 33.9758 19.4149 33.5666 19.3083C33.1574 19.2018 32.3943 19.1145 31.8709 19.1145C31.3474 19.1145 30.5823 19.2003 30.1708 19.3051C29.7592 19.41 29.0551 19.6782 28.6063 19.9013C28.082 20.1617 27.4757 20.6212 26.9109 21.1861C26.346 21.7508 25.8866 22.3572 25.6262 22.8814C25.4031 23.3303 25.1349 24.0343 25.03 24.4459C24.9252 24.8575 24.8394 25.6508 24.8394 26.2088C24.8394 26.7668 24.9239 27.5476 25.0271 27.944C25.1305 28.3405 25.335 28.9033 25.4818 29.1946C25.6286 29.486 25.9459 29.9677 26.1869 30.265C26.4281 30.5622 26.6049 30.821 26.5799 30.8398C26.555 30.8588 26.143 31.0862 25.6644 31.3452C25.1858 31.6044 24.4796 32.0588 24.0948 32.3551C23.7102 32.6515 22.9702 33.3393 22.4505 33.8837C21.9308 34.4282 21.236 35.306 20.9067 35.8343C20.5775 36.3627 20.1138 37.2665 19.8765 37.8427C19.639 38.419 19.4438 38.9894 19.4425 39.1102C19.4413 39.231 19.3951 39.3299 19.3397 39.3299C19.2843 39.3299 19.0088 38.9204 18.7275 38.4196C18.4461 37.9189 18.0718 37.142 17.8956 36.6932C17.7196 36.2443 17.4612 35.4394 17.3214 34.9047C17.1817 34.3698 17.003 33.3527 16.9244 32.6446C16.844 31.9199 16.8187 30.8901 16.8665 30.2895C16.9133 29.7025 17.0341 28.7808 17.135 28.2411C17.2359 27.7016 17.4899 26.7693 17.6994 26.1693C17.9089 25.5695 18.3068 24.6549 18.5836 24.137C18.8603 23.6191 19.3416 22.8379 19.6531 22.4014C19.9646 21.9647 20.5613 21.2419 20.979 20.7953C21.3968 20.3488 22.1813 19.6498 22.7223 19.2421C23.2634 18.8344 24.0628 18.3014 24.4988 18.0576C24.9347 17.8137 25.6842 17.4529 26.1641 17.2555C26.6441 17.0582 27.4888 16.7755 28.0412 16.627C28.5937 16.4787 29.4412 16.3028 29.9247 16.2363C30.4081 16.1696 31.4816 16.1365 32.3103 16.1625C33.139 16.1886 34.2597 16.3016 34.8007 16.4138ZM33.657 21.5026C34.0212 21.6413 34.583 21.9491 34.9053 22.1863C35.2276 22.4236 35.6744 22.8835 35.898 23.2086C36.1216 23.5336 36.4177 24.0873 36.5561 24.4391C36.738 24.9017 36.8101 25.3915 36.8166 26.2088C36.8244 27.1969 36.7804 27.4371 36.4665 28.1216C36.2477 28.5987 35.8763 29.1205 35.5157 29.4579C35.1901 29.7624 34.7471 30.1029 34.5311 30.2146C34.3152 30.3263 34.0802 30.5263 34.0092 30.6593C33.938 30.7921 33.8798 31.0332 33.8798 31.1951C33.8798 31.3569 33.9616 31.606 34.0617 31.7488C34.1666 31.8987 34.7114 32.1757 35.3516 32.4047C35.961 32.6227 36.8821 33.0485 37.3985 33.3508C37.9149 33.6532 38.7496 34.2824 39.2536 34.7491C39.7576 35.2159 40.4148 35.9432 40.714 36.3652C41.0131 36.7873 41.4134 37.4421 41.6035 37.8204C41.7935 38.1986 42.0583 38.8202 42.1918 39.2016C42.3254 39.583 42.5098 40.2799 42.6016 40.7504L42.7686 41.6059L41.7816 42.4455C41.2388 42.9073 40.3201 43.5835 39.7403 43.9482C39.1605 44.313 38.2121 44.8037 37.6328 45.0387C37.0534 45.2739 36.1352 45.5818 35.5923 45.7229C35.0493 45.8642 33.9898 46.0441 33.238 46.1228C32.2146 46.2299 31.5271 46.2299 30.5037 46.1228C29.7519 46.0441 28.7021 45.8659 28.1709 45.7267C27.6397 45.5876 26.7098 45.2755 26.1044 45.0332C25.499 44.791 24.5006 44.2665 23.8856 43.8679C23.2708 43.4692 22.3661 42.7956 21.8754 42.3709L20.9832 41.5988L21.0863 40.9466C21.143 40.5877 21.3079 39.9274 21.4526 39.4791C21.5975 39.0307 21.8887 38.3194 22.0997 37.8983C22.3107 37.4772 22.7247 36.7922 23.0198 36.3761C23.3148 35.96 23.9568 35.2415 24.4465 34.7796C24.9362 34.3177 25.7746 33.6836 26.3095 33.3704C26.8444 33.0573 27.7807 32.6227 28.3902 32.4047C29.0303 32.1757 29.5751 31.8987 29.6801 31.7488C29.7801 31.606 29.8619 31.3569 29.8619 31.1951C29.8619 31.0332 29.8037 30.7921 29.7325 30.6593C29.6615 30.5263 29.4266 30.3263 29.2106 30.2146C28.9946 30.1029 28.5516 29.7624 28.2261 29.4579C27.8734 29.1281 27.5026 28.6108 27.3081 28.1776C27.1286 27.7778 26.9461 27.1431 26.9023 26.767C26.8584 26.391 26.8854 25.7442 26.9622 25.3298C27.039 24.9155 27.2407 24.2922 27.4103 23.9449C27.58 23.5975 27.9122 23.0889 28.1483 22.8148C28.3845 22.5406 28.8809 22.1348 29.2513 21.9129C29.6217 21.6911 30.2354 21.423 30.6152 21.3171C31.0688 21.1907 31.5958 21.1461 32.1502 21.1874C32.6147 21.222 33.2927 21.3638 33.657 21.5026ZM8.37114 27.5323C8.6927 27.6741 9.22119 28.0505 9.54539 28.3691C9.86959 28.6875 10.2617 29.2358 10.4168 29.5874C10.6271 30.0644 10.6988 30.4659 10.6988 31.1684C10.6988 31.871 10.6271 32.2725 10.4168 32.7495C10.2617 33.1011 9.86959 33.6494 9.54539 33.9678C9.22119 34.2864 8.67336 34.6739 8.32807 34.8291C7.85583 35.0413 7.46684 35.111 6.75855 35.1099C6.05817 35.1089 5.65298 35.0364 5.17748 34.8267C4.82591 34.6716 4.27758 34.2795 3.95916 33.9553C3.64061 33.6311 3.25312 33.0833 3.09793 32.738C2.88623 32.2671 2.81579 31.8747 2.81579 31.1684C2.81579 30.4619 2.88623 30.0699 3.09806 29.5989C3.25337 29.2536 3.61788 28.7263 3.90805 28.4271C4.19823 28.128 4.64673 27.7741 4.90451 27.6408C5.16241 27.5076 5.58618 27.3451 5.84622 27.2798C6.10638 27.2144 6.64919 27.1865 7.05274 27.2178C7.4563 27.249 8.04957 27.3905 8.37114 27.5323ZM58.5957 27.5323C58.9173 27.6741 59.4458 28.0505 59.77 28.3691C60.0942 28.6875 60.4863 29.2358 60.6414 29.5874C60.8517 30.0644 60.9234 30.4659 60.9234 31.1684C60.9234 31.871 60.8517 32.2725 60.6414 32.7495C60.4863 33.1011 60.0942 33.6494 59.77 33.9678C59.4458 34.2864 58.898 34.6739 58.5527 34.8291C58.0804 35.0413 57.6915 35.111 56.9832 35.1099C56.2828 35.1089 55.8776 35.0364 55.4021 34.8267C55.0505 34.6716 54.5022 34.2795 54.1838 33.9553C53.8652 33.6311 53.4777 33.0833 53.3225 32.738C53.1108 32.2671 53.0404 31.8747 53.0404 31.1684C53.0404 30.4619 53.1108 30.0699 53.3227 29.5989C53.478 29.2536 53.8425 28.7263 54.1327 28.4271C54.4228 28.128 54.8713 27.7741 55.1291 27.6408C55.387 27.5076 55.8108 27.3451 56.0708 27.2798C56.331 27.2144 56.8738 27.1865 57.2774 27.2178C57.6809 27.249 58.2742 27.3905 58.5957 27.5323ZM16.088 45.5204C14.9365 46.6719 14.7945 46.8626 14.7945 47.2564C14.7945 47.5565 14.888 47.7866 15.085 47.9718C15.2652 48.1411 15.5372 48.2448 15.8005 48.2448C16.172 48.2448 16.3876 48.0825 17.5189 46.9513C18.6281 45.8419 18.8125 45.5996 18.8125 45.2504C18.8125 44.9855 18.7047 44.7355 18.5042 44.5351C18.3038 44.3346 18.0538 44.2268 17.7889 44.2268C17.4397 44.2268 17.1974 44.4112 16.088 45.5204ZM11.0951 50.5037L8.82429 52.7625L8.16672 52.5126C7.77786 52.3649 7.20392 52.2628 6.76194 52.2628C6.30427 52.2628 5.73447 52.3676 5.29187 52.5332C4.80193 52.7166 4.36158 53.0111 3.92525 53.4475C3.48893 53.8838 3.19436 54.3241 3.01104 54.8141C2.84593 55.2553 2.74058 55.8265 2.74058 56.2808C2.74058 56.735 2.84593 57.3062 3.01104 57.7474C3.19436 58.2374 3.48893 58.6777 3.92525 59.1141C4.36158 59.5504 4.80193 59.8449 5.29187 60.0283C5.73309 60.1934 6.30427 60.2987 6.75855 60.2987C7.21283 60.2987 7.78401 60.1934 8.22523 60.0283C8.71518 59.8449 9.15552 59.5504 9.59185 59.1141C10.0282 58.6777 10.3227 58.2374 10.5061 57.7474C10.6717 57.3048 10.7765 56.735 10.7765 56.2774C10.7765 55.8354 10.6744 55.2614 10.5267 54.8726L10.2768 54.215L12.5356 51.9442C14.5299 49.9393 14.7945 49.6257 14.7945 49.2673C14.7945 49.0036 14.6865 48.7532 14.4862 48.5531C14.2861 48.3528 14.0357 48.2448 13.772 48.2448C13.4136 48.2448 13.1 48.5094 11.0951 50.5037ZM51.8399 48.5273C52.2492 48.7338 52.4763 48.9608 52.6827 49.3701C52.8381 49.6782 52.9652 50.0759 52.9652 50.2538C52.9652 50.4317 52.8381 50.8294 52.6827 51.1375C52.4763 51.5468 52.2492 51.7738 51.8399 51.9803C51.5318 52.1357 51.1341 52.2628 50.9562 52.2628C50.7783 52.2628 50.3806 52.1357 50.0725 51.9803C49.6632 51.7738 49.4362 51.5468 49.2297 51.1375C49.0743 50.8294 48.9472 50.4317 48.9472 50.2538C48.9472 50.0759 49.0743 49.6782 49.2297 49.3701C49.4362 48.9608 49.6632 48.7338 50.0725 48.5273C50.3806 48.3719 50.7783 48.2448 50.9562 48.2448C51.1341 48.2448 51.5318 48.3719 51.8399 48.5273ZM7.64225 54.5543C8.05158 54.7607 8.2786 54.9877 8.48502 55.3971C8.64034 55.7052 8.76754 56.1028 8.76754 56.2808C8.76754 56.4587 8.64034 56.8563 8.48502 57.1645C8.2786 57.5738 8.05158 57.8008 7.64225 58.0072C7.33412 58.1627 6.93647 58.2897 6.75855 58.2897C6.58063 58.2897 6.18298 58.1627 5.87485 58.0072C5.46552 57.8008 5.2385 57.5738 5.03208 57.1645C4.87676 56.8563 4.74957 56.4587 4.74957 56.2808C4.74957 56.1028 4.87676 55.7052 5.03208 55.3971C5.2385 54.9877 5.46552 54.7607 5.87485 54.5543C6.18298 54.3988 6.58063 54.2718 6.75855 54.2718C6.93647 54.2718 7.33412 54.3988 7.64225 54.5543ZM33.2388 54.6437C33.4878 54.7718 33.8404 55.0372 34.0225 55.2333C34.2045 55.4296 34.455 55.7879 34.5791 56.0296C34.7284 56.3202 34.8047 56.7457 34.8045 57.2852C34.8041 57.8711 34.7289 58.2465 34.5377 58.6156C34.3911 58.8983 34.0699 59.3064 33.8238 59.5225C33.5779 59.7386 33.0639 60.0062 32.6819 60.1173C32.2185 60.252 31.811 60.2899 31.4581 60.2312C31.1672 60.1827 30.7314 60.0419 30.4897 59.9185C30.248 59.795 29.9013 59.5333 29.7192 59.3372C29.5372 59.1409 29.3038 58.8108 29.2004 58.6036C29.0972 58.3965 28.9732 57.9889 28.9248 57.698C28.8662 57.3455 28.9042 56.9372 29.0388 56.4742C29.1499 56.0922 29.4171 55.5787 29.6327 55.3331C29.8483 55.0877 30.2 54.7955 30.4141 54.6839C30.6283 54.5722 30.9731 54.4369 31.1803 54.3833C31.3874 54.3295 31.8336 54.3137 32.1716 54.3482C32.5096 54.3826 32.9899 54.5156 33.2388 54.6437Z" fill="white"/>
</svg>
